G04 #@! TF.GenerationSoftware,KiCad,Pcbnew,(6.0.7)*
G04 #@! TF.CreationDate,2022-09-06T15:12:06+02:00*
G04 #@! TF.ProjectId,osprey_plate,6f737072-6579-45f7-906c-6174652e6b69,rev?*
G04 #@! TF.SameCoordinates,Original*
G04 #@! TF.FileFunction,Copper,L1,Top*
G04 #@! TF.FilePolarity,Positive*
%FSLAX46Y46*%
G04 Gerber Fmt 4.6, Leading zero omitted, Abs format (unit mm)*
G04 Created by KiCad (PCBNEW (6.0.7)) date 2022-09-06 15:12:06*
%MOMM*%
%LPD*%
G01*
G04 APERTURE LIST*
G04 #@! TA.AperFunction,NonConductor*
%ADD10C,1.000000*%
G04 #@! TD*
G04 #@! TA.AperFunction,EtchedComponent*
%ADD11C,0.010000*%
G04 #@! TD*
G04 APERTURE END LIST*
D10*
X-114165038Y32358096D02*
G75*
G03*
X-114795074Y32037076I-154508J-475528D01*
G01*
X-95142055Y34273452D02*
G75*
G03*
X-94821037Y33643415I475528J-154509D01*
G01*
X-45562268Y-31570187D02*
G75*
G03*
X-44932232Y-31249168I154507J475530D01*
G01*
X87080553Y13779254D02*
G75*
G03*
X87710591Y13458234I475547J154546D01*
G01*
X-37839899Y34265707D02*
X-25476164Y30248486D01*
X94821039Y33643408D02*
G75*
G03*
X95142055Y34273452I-154439J475492D01*
G01*
X61383369Y-22013438D02*
X73747103Y-17996217D01*
X-107054592Y12172914D02*
X-119418326Y16190135D01*
X100074322Y17475465D02*
G75*
G03*
X100395345Y18105490I-154522J475535D01*
G01*
X-57926003Y-27552967D02*
X-45562268Y-31570188D01*
X69899722Y8407127D02*
X73916943Y-3956606D01*
X21135107Y-29202731D02*
G75*
G03*
X20814078Y-29832739I154393J-475469D01*
G01*
X109541793Y48205040D02*
G75*
G03*
X108911749Y48526057I-475493J-154440D01*
G01*
X-59393144Y40743049D02*
X-63410365Y28379314D01*
X87231734Y369631D02*
X83214513Y12733365D01*
X63561545Y14969741D02*
X59544324Y27333476D01*
X120048387Y15869123D02*
G75*
G03*
X119418326Y16190135I-475587J-154623D01*
G01*
X58247023Y-26922930D02*
X54229802Y-14559195D01*
X-111380830Y-1141877D02*
G75*
G03*
X-110750793Y-820857I154509J475528D01*
G01*
X39678917Y-15081215D02*
G75*
G03*
X40308980Y-15402227I475583J154615D01*
G01*
X54291035Y43501437D02*
X58308256Y31137702D01*
X70220746Y9037151D02*
G75*
G03*
X69899722Y8407127I154554J-475551D01*
G01*
X100244208Y31515062D02*
G75*
G03*
X100874252Y31194045I475492J154438D01*
G01*
X-52672714Y-11385006D02*
X-40308980Y-15402227D01*
X68814834Y-1198219D02*
X64797613Y11165515D01*
X35982746Y-2087449D02*
G75*
G03*
X35661722Y-2717473I154554J-475551D01*
G01*
X24487830Y-24958982D02*
X36851564Y-20941761D01*
X-31598275Y-4773800D02*
X-19234541Y-8791021D01*
X78131064Y42940986D02*
X90494799Y46958207D01*
X64967464Y25205092D02*
G75*
G03*
X64646433Y24575088I154436J-475492D01*
G01*
X-77961224Y28901327D02*
X-81978445Y16537591D01*
X70050901Y-5002445D02*
G75*
G03*
X69420865Y-4681426I-475501J-154455D01*
G01*
X110750799Y-820855D02*
G75*
G03*
X111380830Y-1141877I475501J154455D01*
G01*
X37172584Y-20311724D02*
X33155363Y-7947990D01*
X-27272038Y8540991D02*
G75*
G03*
X-27902074Y8219971I-154508J-475528D01*
G01*
X-53599765Y-14238177D02*
G75*
G03*
X-54229802Y-14559195I-154509J-475528D01*
G01*
X76404137Y32075515D02*
X64040402Y28058295D01*
X52672704Y-11384975D02*
G75*
G03*
X52993734Y-10754969I-154404J475475D01*
G01*
X53599764Y-14238176D02*
X41236031Y-18255397D01*
X35661722Y-2717473D02*
X39678943Y-15081207D01*
X27902118Y8219985D02*
G75*
G03*
X27272038Y8540991I-475618J-154685D01*
G01*
X-105497504Y15347104D02*
X-101480283Y27710838D01*
X-120048363Y15869115D02*
X-124065584Y3505381D01*
X-25461336Y-42517494D02*
G75*
G03*
X-24831299Y-42196474I154509J475528D01*
G01*
X-20814078Y-29832739D02*
G75*
G03*
X-21135098Y-29202703I-475528J154508D01*
G01*
X60753313Y-21692425D02*
G75*
G03*
X61383369Y-22013438I475587J154625D01*
G01*
X-63561545Y14969741D02*
G75*
G03*
X-63240525Y14339705I475528J-154508D01*
G01*
X96548015Y44508836D02*
X108911749Y48526057D01*
X37825071Y-38500273D02*
X25461336Y-42517494D01*
X57987237Y30507665D02*
X45623502Y26490445D01*
X-23857793Y-24637962D02*
X-19840572Y-12274228D01*
X-58247023Y-26922930D02*
G75*
G03*
X-57926003Y-27552967I475528J-154509D01*
G01*
X-123744564Y2875344D02*
X-111380830Y-1141877D01*
X22648790Y24387934D02*
G75*
G03*
X22018749Y24708952I-475490J-154434D01*
G01*
X63410387Y28379321D02*
G75*
G03*
X64040402Y28058295I475513J154479D01*
G01*
X22648785Y24387932D02*
X26666006Y12024197D01*
X30729464Y14080492D02*
G75*
G03*
X30408433Y13450488I154436J-475492D01*
G01*
X-83214513Y12733364D02*
X-87231734Y369631D01*
X-100395345Y18105491D02*
G75*
G03*
X-100074325Y17475455I475528J-154508D01*
G01*
X41297261Y39805244D02*
G75*
G03*
X40976244Y39175199I154539J-475544D01*
G01*
X111380830Y-1141877D02*
X123744564Y2875344D01*
X83063333Y26142988D02*
X87080554Y13779254D01*
X-81978445Y16537591D02*
G75*
G03*
X-81657425Y15907555I475528J-154508D01*
G01*
X19234541Y-8791021D02*
X31598275Y-4773800D01*
X42166139Y20950908D02*
G75*
G03*
X42487155Y21580952I-154439J475492D01*
G01*
X14587283Y3893733D02*
X18604505Y-8470001D01*
X42166137Y20950915D02*
X29802402Y16933695D01*
X-101801304Y28340875D02*
X-114165038Y32358096D01*
X48976505Y1608763D02*
G75*
G03*
X48346476Y1929785I-475505J-154463D01*
G01*
X77961240Y28901331D02*
G75*
G03*
X77331188Y29222346I-475540J-154531D01*
G01*
X-55500043Y-5524457D02*
X-51482822Y6839277D01*
X109541785Y48205037D02*
X113559006Y35841302D01*
X-76725155Y32705552D02*
G75*
G03*
X-76404137Y32075515I475528J-154509D01*
G01*
X63410365Y28379314D02*
X59393144Y40743049D01*
X-25155144Y29618449D02*
X-29172365Y17254714D01*
X-53660999Y43822457D02*
X-41297264Y39805235D01*
X-25155144Y29618449D02*
G75*
G03*
X-25476164Y30248486I-475528J154509D01*
G01*
X-13981252Y7376940D02*
X-26344987Y11394160D01*
X-40976244Y39175199D02*
X-44993465Y26811464D01*
X-113559007Y35841303D02*
G75*
G03*
X-113237987Y35211265I475532J-154508D01*
G01*
X-106733572Y11542877D02*
G75*
G03*
X-107054592Y12172914I-475528J154509D01*
G01*
X27272038Y8540991D02*
X14908303Y4523770D01*
X-61383370Y-22013437D02*
G75*
G03*
X-60753332Y-21692418I154511J475525D01*
G01*
X-92333843Y-2388707D02*
X-88316622Y9975027D01*
X-29802402Y16933696D02*
G75*
G03*
X-29172365Y17254714I154509J475528D01*
G01*
X25476164Y30248486D02*
X37839899Y34265707D01*
X-40308980Y-15402226D02*
G75*
G03*
X-39678944Y-15081207I154507J475530D01*
G01*
X-31919295Y-4143764D02*
G75*
G03*
X-31598275Y-4773800I475528J-154508D01*
G01*
X72707935Y45069287D02*
X76725156Y32705552D01*
X-37839899Y34265707D02*
G75*
G03*
X-38469935Y33944687I-154508J-475528D01*
G01*
X-96378124Y30469226D02*
X-100395345Y18105491D01*
X-83063334Y26142988D02*
G75*
G03*
X-83384353Y26773025I-475526J154510D01*
G01*
X-39678944Y-15081207D02*
X-35661722Y-2717473D01*
X-69899722Y8407127D02*
G75*
G03*
X-70220742Y9037164I-475528J154509D01*
G01*
X-45623502Y26490445D02*
X-57987237Y30507665D01*
X81827265Y29947215D02*
X77810044Y42310949D01*
X23857795Y-24637962D02*
G75*
G03*
X24487830Y-24958982I475505J154462D01*
G01*
X18604531Y-8469993D02*
G75*
G03*
X19234541Y-8791021I475469J154393D01*
G01*
X-9333995Y20061695D02*
G75*
G03*
X-9655014Y20691731I-475530J154507D01*
G01*
X69293691Y11890335D02*
X81657425Y15907555D01*
X-30729453Y14080525D02*
X-43093188Y18097746D01*
X-82457302Y29626193D02*
G75*
G03*
X-81827266Y29947214I154505J475534D01*
G01*
X26344998Y11394127D02*
G75*
G03*
X26666006Y12024197I-154598J475573D01*
G01*
X46229533Y23007238D02*
X50246754Y10643504D01*
X114165038Y32358096D02*
X101801303Y28340875D01*
X-56736111Y-9328683D02*
G75*
G03*
X-57057131Y-8698647I-475528J154508D01*
G01*
X-106127541Y15026084D02*
G75*
G03*
X-105497504Y15347104I154509J475528D01*
G01*
X-27902074Y8219971D02*
X-31919295Y-4143764D01*
X-14908303Y4523770D02*
X-27272038Y8540991D01*
X-95748088Y30790245D02*
G75*
G03*
X-96378124Y30469226I-154509J-475526D01*
G01*
X-72077899Y45390307D02*
G75*
G03*
X-72707935Y45069287I-154509J-475526D01*
G01*
X-70220742Y9037164D02*
X-82584476Y13054385D01*
X96548022Y44508814D02*
G75*
G03*
X96226994Y43878799I154478J-475514D01*
G01*
X113237980Y35211287D02*
G75*
G03*
X113559006Y35841302I-154480J475513D01*
G01*
X-14587283Y3893732D02*
G75*
G03*
X-14908303Y4523770I-475529J154509D01*
G01*
X105497534Y15347114D02*
G75*
G03*
X106127541Y15026084I475466J154386D01*
G01*
X44993457Y26811462D02*
G75*
G03*
X45623502Y26490445I475543J154538D01*
G01*
X-19840572Y-12274228D02*
G75*
G03*
X-20161592Y-11644191I-475526J154510D01*
G01*
X57057128Y-8698639D02*
G75*
G03*
X56736110Y-9328683I154572J-475561D01*
G01*
X-46229533Y23007238D02*
G75*
G03*
X-46550553Y23637275I-475528J154509D01*
G01*
X40308980Y-15402227D02*
X52672714Y-11385006D01*
X45562269Y-31570188D02*
X57926003Y-27552967D01*
X34425653Y1086754D02*
G75*
G03*
X35055691Y765734I475547J154546D01*
G01*
X101631405Y14301262D02*
G75*
G03*
X101001376Y14622285I-475505J-154462D01*
G01*
X-83384353Y26773025D02*
X-95748088Y30790245D01*
X-96226994Y43878799D02*
X-100244215Y31515064D01*
X-54229802Y-14559195D02*
X-58247023Y-26922930D01*
X-30408433Y13450488D02*
G75*
G03*
X-30729453Y14080525I-475528J154509D01*
G01*
X-101480282Y27710838D02*
G75*
G03*
X-101801304Y28340875I-475531J154507D01*
G01*
X-64797613Y11165515D02*
X-68814834Y-1198219D01*
X-74546981Y-4277626D02*
G75*
G03*
X-73916943Y-3956607I154511J475525D01*
G01*
X91124813Y46637180D02*
G75*
G03*
X90494799Y46958207I-475513J-154480D01*
G01*
X32525326Y-7626970D02*
X20161592Y-11644191D01*
X-20814078Y-29832739D02*
X-24831299Y-42196474D01*
X-68493814Y-1828256D02*
X-56130080Y-5845477D01*
X-38146090Y-37870236D02*
X-34128869Y-25506502D01*
X21135098Y-29202703D02*
X33498832Y-25185482D01*
X55500047Y-5524455D02*
G75*
G03*
X56130080Y-5845477I475553J154555D01*
G01*
X24831299Y-42196474D02*
X20814078Y-29832739D01*
X-119418326Y16190135D02*
G75*
G03*
X-120048363Y15869115I-154509J-475528D01*
G01*
X101001376Y14622285D02*
X88637642Y10605064D01*
X-47740445Y5412991D02*
G75*
G03*
X-47419425Y4782955I475528J-154508D01*
G01*
X-69420865Y-4681427D02*
G75*
G03*
X-70050902Y-5002445I-154509J-475528D01*
G01*
X41297264Y39805236D02*
X53660999Y43822457D01*
X-95142056Y34273452D02*
X-91124835Y46637187D01*
X83214505Y12733363D02*
G75*
G03*
X82584476Y13054385I-475505J-154463D01*
G01*
X58914288Y27654496D02*
X46550553Y23637274D01*
X87710591Y13458234D02*
X100074325Y17475455D01*
X-73916943Y-3956607D02*
X-69899722Y8407127D01*
X29172387Y17254721D02*
G75*
G03*
X29802402Y16933695I475513J154479D01*
G01*
X-68814834Y-1198219D02*
G75*
G03*
X-68493814Y-1828256I475528J-154509D01*
G01*
X92333817Y-2388715D02*
G75*
G03*
X92963880Y-2709727I475583J154615D01*
G01*
X-76725156Y32705552D02*
X-72707935Y45069287D01*
X56130080Y-5845477D02*
X68493814Y-1828256D01*
X105327604Y1307525D02*
G75*
G03*
X105648634Y1937531I-154404J475475D01*
G01*
X-64040402Y28058295D02*
X-76404137Y32075515D01*
X-33498833Y-25185482D02*
G75*
G03*
X-34128869Y-25506502I-154509J-475526D01*
G01*
X31598279Y-4773814D02*
G75*
G03*
X31919295Y-4143764I-154479J475514D01*
G01*
X68493824Y-1828287D02*
G75*
G03*
X68814834Y-1198219I-154624J475587D01*
G01*
X100395345Y18105490D02*
X96378123Y30469226D01*
X-26666005Y12024197D02*
G75*
G03*
X-26344987Y11394160I475528J-154509D01*
G01*
X13351215Y7697959D02*
X9333994Y20061694D01*
X-42487155Y21580952D02*
G75*
G03*
X-42166137Y20950915I475528J-154509D01*
G01*
X-64040402Y28058296D02*
G75*
G03*
X-63410365Y28379314I154509J475528D01*
G01*
X-101001376Y14622285D02*
G75*
G03*
X-101631413Y14301265I-154509J-475528D01*
G01*
X9655020Y20691715D02*
G75*
G03*
X9333994Y20061694I154480J-475515D01*
G01*
X64646433Y24575088D02*
X68663653Y12211354D01*
X-56130080Y-5845477D02*
G75*
G03*
X-55500043Y-5524457I154509J475528D01*
G01*
X33155384Y-7947983D02*
G75*
G03*
X32525326Y-7626970I-475584J-154617D01*
G01*
X-100074325Y17475455D02*
X-87710591Y13458234D01*
X19840572Y-12274228D02*
X23857794Y-24637962D01*
X-87710591Y13458234D02*
G75*
G03*
X-87080554Y13779254I154509J475528D01*
G01*
X-33498833Y-25185482D02*
X-21135098Y-29202703D01*
X44932243Y-31249165D02*
G75*
G03*
X45562269Y-31570188I475557J154565D01*
G01*
X-70050902Y-5002445D02*
X-74068123Y-17366180D01*
X-20161592Y-11644191D02*
X-32525326Y-7626970D01*
X-37172584Y-20311724D02*
G75*
G03*
X-36851564Y-20941761I475528J-154509D01*
G01*
X-90494799Y46958209D02*
G75*
G03*
X-91124835Y46637187I-154507J-475530D01*
G01*
X-77331188Y29222346D02*
G75*
G03*
X-77961224Y28901327I-154508J-475528D01*
G01*
X-40915012Y-18885433D02*
G75*
G03*
X-41236031Y-18255397I-475526J154509D01*
G01*
X51803846Y7469301D02*
G75*
G03*
X51482822Y6839277I154454J-475501D01*
G01*
X88637646Y10605051D02*
G75*
G03*
X88316622Y9975027I154554J-475551D01*
G01*
X119418326Y16190135D02*
X107054592Y12172914D01*
X-87231734Y369631D02*
G75*
G03*
X-86910714Y-260406I475528J-154509D01*
G01*
X50246722Y10643493D02*
G75*
G03*
X50876791Y10322484I475578J154607D01*
G01*
X-53660999Y43822457D02*
G75*
G03*
X-54291035Y43501437I-154508J-475528D01*
G01*
X-77810044Y42310949D02*
X-81827266Y29947214D01*
X26344987Y11394160D02*
X13981252Y7376940D01*
X-105648634Y1937531D02*
G75*
G03*
X-105327614Y1307494I475528J-154509D01*
G01*
X124065583Y3505381D02*
X120048363Y15869115D01*
X81657422Y15907565D02*
G75*
G03*
X81978445Y16537591I-154522J475535D01*
G01*
X41236029Y-18255391D02*
G75*
G03*
X40915011Y-18885433I154471J-475509D01*
G01*
X-41236031Y-18255397D02*
X-53599765Y-14238176D01*
X-113559006Y35841303D02*
X-109541785Y48205037D01*
X-24487830Y-24958982D02*
G75*
G03*
X-23857793Y-24637962I154509J475528D01*
G01*
X59544309Y27333471D02*
G75*
G03*
X58914288Y27654496I-475509J-154471D01*
G01*
X-52993734Y-10754969D02*
G75*
G03*
X-52672714Y-11385006I475528J-154509D01*
G01*
X101480283Y27710838D02*
X105497504Y15347104D01*
X113237987Y35211265D02*
X100874252Y31194045D01*
X83384364Y26772992D02*
G75*
G03*
X83063333Y26142988I154436J-475492D01*
G01*
X40915011Y-18885433D02*
X44932232Y-31249168D01*
X68663652Y12211354D02*
G75*
G03*
X69293691Y11890335I475548J154546D01*
G01*
X-59393144Y40743049D02*
G75*
G03*
X-59714164Y41373086I-475528J154509D01*
G01*
X118491281Y19043286D02*
G75*
G03*
X118812295Y19673341I-154481J475514D01*
G01*
X-63240525Y14339705D02*
X-50876791Y10322484D01*
X-74068123Y-17366180D02*
G75*
G03*
X-73747103Y-17996217I475528J-154509D01*
G01*
X50876791Y10322484D02*
X63240525Y14339705D01*
X95748088Y30790246D02*
X83384353Y26773025D01*
X14908301Y4523775D02*
G75*
G03*
X14587283Y3893733I154599J-475575D01*
G01*
X-35661722Y-2717473D02*
G75*
G03*
X-35982742Y-2087436I-475531J154507D01*
G01*
X36851562Y-20941756D02*
G75*
G03*
X37172584Y-20311724I-154562J475556D01*
G01*
X-118491275Y19043305D02*
X-106127541Y15026084D01*
X43093188Y18097746D02*
X30729453Y14080525D01*
X-58914288Y27654497D02*
G75*
G03*
X-59544324Y27333475I-154507J-475530D01*
G01*
X37825086Y-38500318D02*
G75*
G03*
X38146090Y-37870236I-154686J475618D01*
G01*
X-19234541Y-8791021D02*
G75*
G03*
X-18604504Y-8470001I154507J475531D01*
G01*
X-105327614Y1307494D02*
X-92963880Y-2709727D01*
X-82584476Y13054386D02*
G75*
G03*
X-83214513Y12733364I-154507J-475531D01*
G01*
X-60753332Y-21692418D02*
X-56736111Y-9328683D01*
X54229770Y-14559206D02*
G75*
G03*
X53599764Y-14238176I-475470J-154394D01*
G01*
X24831287Y-42196478D02*
G75*
G03*
X25461336Y-42517494I475513J154478D01*
G01*
X-100874252Y31194045D02*
X-113237987Y35211265D01*
X44993465Y26811464D02*
X40976244Y39175199D01*
X94821037Y33643415D02*
X82457302Y29626195D01*
X-77810044Y42310949D02*
G75*
G03*
X-78131064Y42940986I-475528J154509D01*
G01*
X-100874252Y31194046D02*
G75*
G03*
X-100244215Y31515064I154509J475528D01*
G01*
X107054587Y12172931D02*
G75*
G03*
X106733572Y11542877I154513J-475531D01*
G01*
X-29802402Y16933695D02*
X-42166137Y20950915D01*
X-22018749Y24708951D02*
G75*
G03*
X-22648785Y24387932I-154509J-475526D01*
G01*
X69420865Y-4681426D02*
X57057131Y-8698647D01*
X-22018749Y24708951D02*
X-9655014Y20691731D01*
X-69293691Y11890334D02*
G75*
G03*
X-68663654Y12211354I154509J475528D01*
G01*
X34128869Y-25506501D02*
X38146090Y-37870236D01*
X-73747103Y-17996217D02*
X-61383370Y-22013438D01*
X92963880Y-2709727D02*
X105327614Y1307494D01*
X-48976513Y1608765D02*
X-52993734Y-10754969D01*
X88316622Y9975027D02*
X92333843Y-2388707D01*
X-108911749Y48526057D02*
G75*
G03*
X-109541785Y48205037I-154508J-475528D01*
G01*
X74068123Y-17366180D02*
X70050902Y-5002445D01*
X73747107Y-17996228D02*
G75*
G03*
X74068123Y-17366180I-154507J475528D01*
G01*
X57987240Y30507657D02*
G75*
G03*
X58308256Y31137702I-154540J475543D01*
G01*
X-9333994Y20061695D02*
X-13351215Y7697959D01*
X30408433Y13450488D02*
X34425654Y1086754D01*
X-110750793Y-820857D02*
X-106733572Y11542877D01*
X59714161Y41373092D02*
G75*
G03*
X59393144Y40743049I154439J-475492D01*
G01*
X-68663654Y12211354D02*
X-64646433Y24575088D01*
X-82457302Y29626194D02*
X-94821037Y33643415D01*
X-50246754Y10643504D02*
X-46229533Y23007238D01*
X46550543Y23637304D02*
G75*
G03*
X46229533Y23007238I154657J-475604D01*
G01*
X-87080554Y13779254D02*
X-83063334Y26142988D01*
X64797635Y11165522D02*
G75*
G03*
X64167576Y11486535I-475535J-154522D01*
G01*
X73916917Y-3956615D02*
G75*
G03*
X74546980Y-4277627I475583J154615D01*
G01*
X-59544324Y27333475D02*
X-63561545Y14969741D01*
X25476162Y30248492D02*
G75*
G03*
X25155144Y29618449I154438J-475492D01*
G01*
X13351205Y7697956D02*
G75*
G03*
X13981252Y7376940I475495J154444D01*
G01*
X-47419425Y4782955D02*
X-35055692Y765734D01*
X-96226994Y43878799D02*
G75*
G03*
X-96548014Y44508836I-475528J154509D01*
G01*
X-114795074Y32037076D02*
X-118812295Y19673340D01*
X72707914Y45069280D02*
G75*
G03*
X72077899Y45390308I-475514J-154480D01*
G01*
X-43093188Y18097746D02*
G75*
G03*
X-43723224Y17776726I-154508J-475528D01*
G01*
X-108911749Y48526057D02*
X-96548014Y44508836D01*
X-64646434Y24575088D02*
G75*
G03*
X-64967453Y25205124I-475530J154507D01*
G01*
X-92963880Y-2709727D02*
G75*
G03*
X-92333843Y-2388707I154509J475528D01*
G01*
X-58308256Y31137702D02*
X-54291035Y43501437D01*
X123744564Y2875344D02*
G75*
G03*
X124065583Y3505381I-154564J475556D01*
G01*
X81827287Y29947222D02*
G75*
G03*
X82457302Y29626195I475513J154478D01*
G01*
X74546980Y-4277627D02*
X86910714Y-260406D01*
X9655015Y20691731D02*
X22018749Y24708952D01*
X96378140Y30469231D02*
G75*
G03*
X95748088Y30790246I-475540J-154531D01*
G01*
X-32525326Y-7626970D02*
G75*
G03*
X-33155363Y-7947990I-154509J-475528D01*
G01*
X114795060Y32037072D02*
G75*
G03*
X114165038Y32358096I-475560J-154572D01*
G01*
X47419423Y4782965D02*
G75*
G03*
X47740445Y5412992I-154523J475535D01*
G01*
X-86910714Y-260406D02*
X-74546981Y-4277627D01*
X-57057131Y-8698647D02*
X-69420865Y-4681426D01*
X-58308255Y31137702D02*
G75*
G03*
X-57987237Y30507665I475528J-154509D01*
G01*
X-64167576Y11486535D02*
G75*
G03*
X-64797613Y11165515I-154509J-475528D01*
G01*
X20161584Y-11644168D02*
G75*
G03*
X19840572Y-12274228I154516J-475532D01*
G01*
X57926007Y-27552978D02*
G75*
G03*
X58247023Y-26922930I-154607J475578D01*
G01*
X118812295Y19673341D02*
X114795074Y32037076D01*
X-43723224Y17776726D02*
X-47740445Y5412991D01*
X-35055692Y765735D02*
G75*
G03*
X-34425654Y1086754I154511J475525D01*
G01*
X-90494799Y46958208D02*
X-78131064Y42940986D01*
X78131062Y42940992D02*
G75*
G03*
X77810044Y42310949I154438J-475492D01*
G01*
X-64967453Y25205124D02*
X-77331188Y29222346D01*
X-51482822Y6839277D02*
G75*
G03*
X-51803842Y7469314I-475528J154509D01*
G01*
X-18604504Y-8470001D02*
X-14587283Y3893732D01*
X-34425654Y1086754D02*
X-30408433Y13450488D01*
X34128875Y-25506499D02*
G75*
G03*
X33498832Y-25185482I-475575J-154601D01*
G01*
X51482822Y6839277D02*
X55500042Y-5524457D01*
X-72077899Y45390307D02*
X-59714164Y41373086D01*
X64167576Y11486535D02*
X51803842Y7469314D01*
X-51803842Y7469314D02*
X-64167576Y11486535D01*
X-88316622Y9975027D02*
G75*
G03*
X-88637642Y10605064I-475528J154509D01*
G01*
X52993734Y-10754969D02*
X48976513Y1608766D01*
X-44932232Y-31249168D02*
X-40915012Y-18885433D01*
X82584476Y13054385D02*
X70220742Y9037164D01*
X-88637642Y10605064D02*
X-101001376Y14622285D01*
X-124065584Y3505381D02*
G75*
G03*
X-123744564Y2875344I475528J-154509D01*
G01*
X38469935Y33944687D02*
X42487155Y21580952D01*
X106127541Y15026084D02*
X118491275Y19043305D01*
X31919295Y-4143764D02*
X27902074Y8219971D01*
X86910704Y-260375D02*
G75*
G03*
X87231734Y369631I-154404J475475D01*
G01*
X-33155363Y-7947990D02*
X-37172584Y-20311724D01*
X-40976245Y39175199D02*
G75*
G03*
X-41297264Y39805235I-475530J154507D01*
G01*
X48346476Y1929785D02*
X35982742Y-2087436D01*
X54291044Y43501440D02*
G75*
G03*
X53660999Y43822457I-475544J-154540D01*
G01*
X29172365Y17254714D02*
X25155144Y29618449D01*
X-38146089Y-37870236D02*
G75*
G03*
X-37825071Y-38500273I475528J-154509D01*
G01*
X-35982742Y-2087436D02*
X-48346476Y1929785D01*
X35055691Y765734D02*
X47419426Y4782955D01*
X43723240Y17776731D02*
G75*
G03*
X43093188Y18097746I-475540J-154531D01*
G01*
X-26666006Y12024197D02*
X-22648785Y24387932D01*
X-118812295Y19673340D02*
G75*
G03*
X-118491275Y19043305I475526J-154508D01*
G01*
X-36851564Y-20941761D02*
X-24487830Y-24958982D01*
X63240521Y14339716D02*
G75*
G03*
X63561545Y14969741I-154421J475484D01*
G01*
X100244215Y31515064D02*
X96226994Y43878799D01*
X-42487156Y21580952D02*
X-38469935Y33944687D01*
X77331188Y29222346D02*
X64967453Y25205125D01*
X-25461336Y-42517494D02*
X-37825071Y-38500273D01*
X38469913Y33944680D02*
G75*
G03*
X37839899Y34265707I-475513J-154480D01*
G01*
X-45623502Y26490446D02*
G75*
G03*
X-44993465Y26811464I154509J475528D01*
G01*
X-46550553Y23637275D02*
X-58914288Y27654496D01*
X56736110Y-9328683D02*
X60753332Y-21692419D01*
X47740445Y5412992D02*
X43723224Y17776726D01*
X-50876791Y10322484D02*
G75*
G03*
X-50246754Y10643504I154509J475528D01*
G01*
X-13981252Y7376941D02*
G75*
G03*
X-13351215Y7697959I154509J475528D01*
G01*
X91124835Y46637187D02*
X95142055Y34273452D01*
X81978445Y16537591D02*
X77961224Y28901326D01*
X101801304Y28340873D02*
G75*
G03*
X101480283Y27710838I154596J-475573D01*
G01*
X-48346476Y1929785D02*
G75*
G03*
X-48976513Y1608765I-154509J-475528D01*
G01*
X106733572Y11542877D02*
X110750794Y-820857D01*
X-101631413Y14301265D02*
X-105648634Y1937531D01*
X-81657425Y15907555D02*
X-69293691Y11890334D01*
X76404140Y32075507D02*
G75*
G03*
X76725156Y32705552I-154440J475493D01*
G01*
X59714163Y41373086D02*
X72077899Y45390308D01*
X105648634Y1937531D02*
X101631414Y14301265D01*
G04 #@! TO.C,G1*
G36*
X83082655Y-11317825D02*
G01*
X83096504Y-11251591D01*
X83137297Y-11195005D01*
X83204473Y-11148360D01*
X83281846Y-11128548D01*
X83360353Y-11136451D01*
X83423360Y-11167166D01*
X83440634Y-11173407D01*
X83469062Y-11173231D01*
X83511413Y-11165825D01*
X83570458Y-11150376D01*
X83648965Y-11126071D01*
X83749705Y-11092098D01*
X83875448Y-11047643D01*
X84028964Y-10991892D01*
X84062718Y-10979508D01*
X84332155Y-10880522D01*
X84445313Y-10618410D01*
X84486382Y-10522769D01*
X84515506Y-10452323D01*
X84534098Y-10401631D01*
X84543568Y-10365251D01*
X84545330Y-10337742D01*
X84540795Y-10313663D01*
X84531373Y-10287571D01*
X84531239Y-10287230D01*
X84528623Y-10277153D01*
X84514334Y-10222107D01*
X84514045Y-10206135D01*
X84653828Y-10206135D01*
X84656581Y-10235577D01*
X84686168Y-10260342D01*
X84727799Y-10277410D01*
X84756840Y-10267781D01*
X84779225Y-10237196D01*
X84793876Y-10195537D01*
X84779424Y-10165204D01*
X84745117Y-10144649D01*
X84702181Y-10138501D01*
X84670702Y-10163722D01*
X84653828Y-10206135D01*
X84514045Y-10206135D01*
X84513246Y-10162031D01*
X84513382Y-10161189D01*
X84539477Y-10094811D01*
X84588488Y-10043300D01*
X84652505Y-10009281D01*
X84723626Y-9995376D01*
X84793940Y-10004208D01*
X84855541Y-10038401D01*
X84862897Y-10045238D01*
X84910311Y-10111584D01*
X84931078Y-10184989D01*
X84926532Y-10258353D01*
X84898002Y-10324573D01*
X84846820Y-10376548D01*
X84796141Y-10401343D01*
X84778403Y-10409995D01*
X84760691Y-10426593D01*
X84740758Y-10455137D01*
X84716354Y-10499626D01*
X84685231Y-10564058D01*
X84645139Y-10652434D01*
X84609062Y-10734037D01*
X84469673Y-11051235D01*
X83989948Y-11207541D01*
X83853280Y-11252202D01*
X83745044Y-11288004D01*
X83661841Y-11316276D01*
X83600269Y-11338343D01*
X83556930Y-11355533D01*
X83528424Y-11369170D01*
X83511350Y-11380584D01*
X83502311Y-11391098D01*
X83498754Y-11399206D01*
X83460500Y-11466735D01*
X83399926Y-11516998D01*
X83325869Y-11544821D01*
X83249075Y-11545392D01*
X83178499Y-11516848D01*
X83126018Y-11460532D01*
X83102252Y-11407955D01*
X83097347Y-11397105D01*
X83084260Y-11326484D01*
X83223585Y-11326484D01*
X83230334Y-11366338D01*
X83266887Y-11398609D01*
X83309920Y-11406853D01*
X83342256Y-11384044D01*
X83357209Y-11350200D01*
X83361451Y-11318536D01*
X83346498Y-11296465D01*
X83326004Y-11281904D01*
X83292512Y-11265020D01*
X83267011Y-11271206D01*
X83248048Y-11286762D01*
X83223585Y-11326484D01*
X83084260Y-11326484D01*
X83082655Y-11317825D01*
G37*
D11*
X83082655Y-11317825D02*
X83096504Y-11251591D01*
X83137297Y-11195005D01*
X83204473Y-11148360D01*
X83281846Y-11128548D01*
X83360353Y-11136451D01*
X83423360Y-11167166D01*
X83440634Y-11173407D01*
X83469062Y-11173231D01*
X83511413Y-11165825D01*
X83570458Y-11150376D01*
X83648965Y-11126071D01*
X83749705Y-11092098D01*
X83875448Y-11047643D01*
X84028964Y-10991892D01*
X84062718Y-10979508D01*
X84332155Y-10880522D01*
X84445313Y-10618410D01*
X84486382Y-10522769D01*
X84515506Y-10452323D01*
X84534098Y-10401631D01*
X84543568Y-10365251D01*
X84545330Y-10337742D01*
X84540795Y-10313663D01*
X84531373Y-10287571D01*
X84531239Y-10287230D01*
X84528623Y-10277153D01*
X84514334Y-10222107D01*
X84514045Y-10206135D01*
X84653828Y-10206135D01*
X84656581Y-10235577D01*
X84686168Y-10260342D01*
X84727799Y-10277410D01*
X84756840Y-10267781D01*
X84779225Y-10237196D01*
X84793876Y-10195537D01*
X84779424Y-10165204D01*
X84745117Y-10144649D01*
X84702181Y-10138501D01*
X84670702Y-10163722D01*
X84653828Y-10206135D01*
X84514045Y-10206135D01*
X84513246Y-10162031D01*
X84513382Y-10161189D01*
X84539477Y-10094811D01*
X84588488Y-10043300D01*
X84652505Y-10009281D01*
X84723626Y-9995376D01*
X84793940Y-10004208D01*
X84855541Y-10038401D01*
X84862897Y-10045238D01*
X84910311Y-10111584D01*
X84931078Y-10184989D01*
X84926532Y-10258353D01*
X84898002Y-10324573D01*
X84846820Y-10376548D01*
X84796141Y-10401343D01*
X84778403Y-10409995D01*
X84760691Y-10426593D01*
X84740758Y-10455137D01*
X84716354Y-10499626D01*
X84685231Y-10564058D01*
X84645139Y-10652434D01*
X84609062Y-10734037D01*
X84469673Y-11051235D01*
X83989948Y-11207541D01*
X83853280Y-11252202D01*
X83745044Y-11288004D01*
X83661841Y-11316276D01*
X83600269Y-11338343D01*
X83556930Y-11355533D01*
X83528424Y-11369170D01*
X83511350Y-11380584D01*
X83502311Y-11391098D01*
X83498754Y-11399206D01*
X83460500Y-11466735D01*
X83399926Y-11516998D01*
X83325869Y-11544821D01*
X83249075Y-11545392D01*
X83178499Y-11516848D01*
X83126018Y-11460532D01*
X83102252Y-11407955D01*
X83097347Y-11397105D01*
X83084260Y-11326484D01*
X83223585Y-11326484D01*
X83230334Y-11366338D01*
X83266887Y-11398609D01*
X83309920Y-11406853D01*
X83342256Y-11384044D01*
X83357209Y-11350200D01*
X83361451Y-11318536D01*
X83346498Y-11296465D01*
X83326004Y-11281904D01*
X83292512Y-11265020D01*
X83267011Y-11271206D01*
X83248048Y-11286762D01*
X83223585Y-11326484D01*
X83084260Y-11326484D01*
X83082655Y-11317825D01*
G36*
X85105327Y-7576944D02*
G01*
X85133111Y-7520283D01*
X85138988Y-7513711D01*
X85148878Y-7500276D01*
X85152794Y-7482282D01*
X85149729Y-7454036D01*
X85138670Y-7409845D01*
X85118607Y-7344015D01*
X85096848Y-7276420D01*
X85028584Y-7066326D01*
X84196820Y-6642632D01*
X83365057Y-6218937D01*
X82956660Y-6345671D01*
X82831633Y-6384599D01*
X82734701Y-6415275D01*
X82661995Y-6439210D01*
X82609648Y-6457917D01*
X82573791Y-6472909D01*
X82550556Y-6485696D01*
X82536075Y-6497793D01*
X82526480Y-6510711D01*
X82524087Y-6514776D01*
X82466503Y-6586781D01*
X82393711Y-6631722D01*
X82310683Y-6647046D01*
X82272731Y-6643839D01*
X82208412Y-6617602D01*
X82156236Y-6567113D01*
X82124925Y-6507406D01*
X82121476Y-6500830D01*
X82110834Y-6435914D01*
X82251587Y-6435914D01*
X82254339Y-6465357D01*
X82283927Y-6490122D01*
X82329714Y-6506665D01*
X82363043Y-6493670D01*
X82381504Y-6466975D01*
X82392635Y-6424418D01*
X82374007Y-6392646D01*
X82342876Y-6374428D01*
X82299940Y-6368280D01*
X82268461Y-6393501D01*
X82251587Y-6435914D01*
X82110834Y-6435914D01*
X82109407Y-6427211D01*
X82113815Y-6388989D01*
X82144762Y-6319130D01*
X82197808Y-6266610D01*
X82265184Y-6234186D01*
X82339116Y-6224620D01*
X82411832Y-6240674D01*
X82456254Y-6267340D01*
X82495993Y-6299252D01*
X83393335Y-6007688D01*
X84282924Y-6461073D01*
X85172513Y-6914457D01*
X85256221Y-7172084D01*
X85287746Y-7268291D01*
X85311372Y-7337292D01*
X85329234Y-7383758D01*
X85343470Y-7412362D01*
X85356216Y-7427777D01*
X85369609Y-7434674D01*
X85377049Y-7436361D01*
X85431101Y-7461638D01*
X85476788Y-7511295D01*
X85509071Y-7576452D01*
X85522912Y-7648236D01*
X85520552Y-7689104D01*
X85494362Y-7752880D01*
X85443613Y-7805027D01*
X85376531Y-7840418D01*
X85301343Y-7853920D01*
X85261656Y-7850568D01*
X85200974Y-7824455D01*
X85152015Y-7775840D01*
X85117764Y-7712918D01*
X85113101Y-7693480D01*
X85103122Y-7651871D01*
X85241159Y-7651871D01*
X85254154Y-7685200D01*
X85280847Y-7703662D01*
X85323406Y-7714792D01*
X85355176Y-7696165D01*
X85373395Y-7665033D01*
X85382755Y-7627386D01*
X85367696Y-7602169D01*
X85320079Y-7574760D01*
X85281677Y-7579462D01*
X85257701Y-7606084D01*
X85241159Y-7651871D01*
X85103122Y-7651871D01*
X85101207Y-7643888D01*
X85105327Y-7576944D01*
G37*
X85105327Y-7576944D02*
X85133111Y-7520283D01*
X85138988Y-7513711D01*
X85148878Y-7500276D01*
X85152794Y-7482282D01*
X85149729Y-7454036D01*
X85138670Y-7409845D01*
X85118607Y-7344015D01*
X85096848Y-7276420D01*
X85028584Y-7066326D01*
X84196820Y-6642632D01*
X83365057Y-6218937D01*
X82956660Y-6345671D01*
X82831633Y-6384599D01*
X82734701Y-6415275D01*
X82661995Y-6439210D01*
X82609648Y-6457917D01*
X82573791Y-6472909D01*
X82550556Y-6485696D01*
X82536075Y-6497793D01*
X82526480Y-6510711D01*
X82524087Y-6514776D01*
X82466503Y-6586781D01*
X82393711Y-6631722D01*
X82310683Y-6647046D01*
X82272731Y-6643839D01*
X82208412Y-6617602D01*
X82156236Y-6567113D01*
X82124925Y-6507406D01*
X82121476Y-6500830D01*
X82110834Y-6435914D01*
X82251587Y-6435914D01*
X82254339Y-6465357D01*
X82283927Y-6490122D01*
X82329714Y-6506665D01*
X82363043Y-6493670D01*
X82381504Y-6466975D01*
X82392635Y-6424418D01*
X82374007Y-6392646D01*
X82342876Y-6374428D01*
X82299940Y-6368280D01*
X82268461Y-6393501D01*
X82251587Y-6435914D01*
X82110834Y-6435914D01*
X82109407Y-6427211D01*
X82113815Y-6388989D01*
X82144762Y-6319130D01*
X82197808Y-6266610D01*
X82265184Y-6234186D01*
X82339116Y-6224620D01*
X82411832Y-6240674D01*
X82456254Y-6267340D01*
X82495993Y-6299252D01*
X83393335Y-6007688D01*
X84282924Y-6461073D01*
X85172513Y-6914457D01*
X85256221Y-7172084D01*
X85287746Y-7268291D01*
X85311372Y-7337292D01*
X85329234Y-7383758D01*
X85343470Y-7412362D01*
X85356216Y-7427777D01*
X85369609Y-7434674D01*
X85377049Y-7436361D01*
X85431101Y-7461638D01*
X85476788Y-7511295D01*
X85509071Y-7576452D01*
X85522912Y-7648236D01*
X85520552Y-7689104D01*
X85494362Y-7752880D01*
X85443613Y-7805027D01*
X85376531Y-7840418D01*
X85301343Y-7853920D01*
X85261656Y-7850568D01*
X85200974Y-7824455D01*
X85152015Y-7775840D01*
X85117764Y-7712918D01*
X85113101Y-7693480D01*
X85103122Y-7651871D01*
X85241159Y-7651871D01*
X85254154Y-7685200D01*
X85280847Y-7703662D01*
X85323406Y-7714792D01*
X85355176Y-7696165D01*
X85373395Y-7665033D01*
X85382755Y-7627386D01*
X85367696Y-7602169D01*
X85320079Y-7574760D01*
X85281677Y-7579462D01*
X85257701Y-7606084D01*
X85241159Y-7651871D01*
X85103122Y-7651871D01*
X85101207Y-7643888D01*
X85105327Y-7576944D01*
G36*
X79401434Y-10191017D02*
G01*
X79342530Y-9859552D01*
X79313743Y-9521596D01*
X79315193Y-9316629D01*
X79554154Y-9316629D01*
X79554396Y-9414665D01*
X79556709Y-9516584D01*
X79560783Y-9615199D01*
X79566307Y-9703320D01*
X79572972Y-9773758D01*
X79580468Y-9819325D01*
X79581951Y-9824551D01*
X79593469Y-9860342D01*
X80256768Y-9644823D01*
X80622783Y-9817831D01*
X80988797Y-9990839D01*
X81594261Y-11854265D01*
X81988962Y-12055635D01*
X82383665Y-12257003D01*
X83970186Y-11741512D01*
X84250649Y-11741512D01*
X84262375Y-11783692D01*
X84269878Y-11794512D01*
X84297305Y-11805723D01*
X84333847Y-11797724D01*
X84365228Y-11775180D01*
X84374336Y-11760389D01*
X84376026Y-11717640D01*
X84350271Y-11683839D01*
X84324453Y-11672303D01*
X84286072Y-11675999D01*
X84260010Y-11702341D01*
X84250649Y-11741512D01*
X83970186Y-11741512D01*
X84089994Y-11702584D01*
X84121392Y-11640963D01*
X84170927Y-11575176D01*
X84238113Y-11537734D01*
X84323084Y-11528570D01*
X84340070Y-11529897D01*
X84396776Y-11540420D01*
X84437217Y-11563565D01*
X84473252Y-11602449D01*
X84504500Y-11643875D01*
X84519026Y-11676256D01*
X84522191Y-11715637D01*
X84521055Y-11745588D01*
X84503781Y-11827949D01*
X84460052Y-11890858D01*
X84412508Y-11925183D01*
X84349247Y-11945395D01*
X84277499Y-11946057D01*
X84213384Y-11927552D01*
X84200660Y-11920126D01*
X84157777Y-11891406D01*
X82382628Y-12468187D01*
X82294225Y-12423182D01*
X81903508Y-12224276D01*
X81424388Y-11980367D01*
X80823640Y-10131454D01*
X80230553Y-9847296D01*
X79926219Y-9945841D01*
X79818931Y-9980930D01*
X79739581Y-10007912D01*
X79684148Y-10028447D01*
X79648610Y-10044194D01*
X79628946Y-10056816D01*
X79621131Y-10067973D01*
X79620437Y-10072103D01*
X79624149Y-10097732D01*
X79635337Y-10148787D01*
X79652400Y-10218532D01*
X79673741Y-10300228D01*
X79680436Y-10324952D01*
X79741884Y-10550080D01*
X80199151Y-10401505D01*
X80610128Y-10609935D01*
X80735155Y-10994729D01*
X80774689Y-11115836D01*
X80805682Y-11208895D01*
X80829678Y-11277722D01*
X80848221Y-11326136D01*
X80862858Y-11357950D01*
X80875130Y-11376981D01*
X80886584Y-11387044D01*
X80895540Y-11390994D01*
X80962847Y-11428370D01*
X81010883Y-11485795D01*
X81037485Y-11555393D01*
X81040490Y-11629291D01*
X81017737Y-11699614D01*
X80990590Y-11737065D01*
X80938934Y-11773168D01*
X80870459Y-11796613D01*
X80800850Y-11802522D01*
X80785634Y-11800776D01*
X80719379Y-11774499D01*
X80668319Y-11724644D01*
X80635287Y-11658683D01*
X80634972Y-11656751D01*
X80628278Y-11615729D01*
X80761224Y-11615729D01*
X80783554Y-11642475D01*
X80820787Y-11661808D01*
X80854651Y-11664441D01*
X80876224Y-11645433D01*
X80893093Y-11617259D01*
X80903545Y-11586583D01*
X80895123Y-11565534D01*
X80871953Y-11545061D01*
X80837010Y-11524647D01*
X80810273Y-11520725D01*
X80782527Y-11543667D01*
X80763212Y-11581726D01*
X80761224Y-11615729D01*
X80628278Y-11615729D01*
X80623115Y-11584088D01*
X80634635Y-11508332D01*
X80656835Y-11460937D01*
X80664340Y-11446746D01*
X80668045Y-11430158D01*
X80666938Y-11406728D01*
X80660004Y-11372009D01*
X80646231Y-11321554D01*
X80624608Y-11250917D01*
X80594120Y-11155651D01*
X80571233Y-11085070D01*
X80461580Y-10747595D01*
X80319746Y-10674638D01*
X80177911Y-10601681D01*
X79998693Y-10659912D01*
X79924142Y-10683537D01*
X79872854Y-10701906D01*
X79843161Y-10720815D01*
X79833393Y-10746060D01*
X79841879Y-10783436D01*
X79866951Y-10838739D01*
X79906938Y-10917762D01*
X79918042Y-10939847D01*
X80082635Y-11232279D01*
X80273228Y-11505182D01*
X80487804Y-11757249D01*
X80724349Y-11987176D01*
X80980847Y-12193657D01*
X81255281Y-12375386D01*
X81545636Y-12531058D01*
X81849898Y-12659367D01*
X82166049Y-12759007D01*
X82492075Y-12828674D01*
X82825959Y-12867062D01*
X82899832Y-12871160D01*
X83042299Y-12873472D01*
X83199435Y-12869149D01*
X83360087Y-12858956D01*
X83513100Y-12843660D01*
X83647320Y-12824024D01*
X83681849Y-12817484D01*
X83756407Y-12802554D01*
X83823921Y-12789272D01*
X83873961Y-12779680D01*
X83888343Y-12777051D01*
X83938061Y-12764700D01*
X84011777Y-12741822D01*
X84102716Y-12710929D01*
X84204106Y-12674538D01*
X84309170Y-12635162D01*
X84411138Y-12595315D01*
X84503232Y-12557511D01*
X84578681Y-12524265D01*
X84609604Y-12509352D01*
X84694946Y-12466367D01*
X84752173Y-12435418D01*
X84782362Y-12412268D01*
X84786591Y-12392682D01*
X84765935Y-12372423D01*
X84721472Y-12347252D01*
X84658929Y-12315329D01*
X84504011Y-12235740D01*
X83921259Y-12425087D01*
X83767594Y-12475175D01*
X83642891Y-12516256D01*
X83544249Y-12549404D01*
X83468763Y-12575693D01*
X83413531Y-12596198D01*
X83375652Y-12611989D01*
X83352221Y-12624143D01*
X83340337Y-12633732D01*
X83337109Y-12641145D01*
X83321858Y-12680132D01*
X83286049Y-12723614D01*
X83239346Y-12761816D01*
X83196395Y-12783472D01*
X83120061Y-12791995D01*
X83044730Y-12772591D01*
X82979285Y-12729811D01*
X82932609Y-12668210D01*
X82929861Y-12661468D01*
X82922354Y-12643056D01*
X82915926Y-12583791D01*
X82917851Y-12572344D01*
X83067653Y-12572344D01*
X83074587Y-12614444D01*
X83101620Y-12644444D01*
X83110175Y-12648106D01*
X83142242Y-12656054D01*
X83155123Y-12656450D01*
X83171686Y-12641836D01*
X83186581Y-12623281D01*
X83198220Y-12585968D01*
X83186669Y-12550373D01*
X83159837Y-12523520D01*
X83125626Y-12512432D01*
X83091942Y-12524135D01*
X83083972Y-12532103D01*
X83067653Y-12572344D01*
X82917851Y-12572344D01*
X82927044Y-12517671D01*
X82952192Y-12461031D01*
X82964961Y-12445121D01*
X83004747Y-12416055D01*
X83058276Y-12389802D01*
X83074449Y-12383965D01*
X83126081Y-12371786D01*
X83171319Y-12375525D01*
X83226352Y-12396105D01*
X83305995Y-12431724D01*
X84541273Y-12030358D01*
X84777838Y-12150471D01*
X85014402Y-12270584D01*
X85235428Y-12110152D01*
X84928541Y-11139771D01*
X84910543Y-11082859D01*
X85103700Y-11082859D01*
X85247061Y-11524078D01*
X85284654Y-11638686D01*
X85319225Y-11742001D01*
X85349377Y-11830015D01*
X85373712Y-11898715D01*
X85390834Y-11944093D01*
X85399346Y-11962138D01*
X85399727Y-11962275D01*
X85414563Y-11949887D01*
X85447687Y-11918603D01*
X85493964Y-11873360D01*
X85540302Y-11827118D01*
X85671572Y-11694983D01*
X85509735Y-11196902D01*
X85665436Y-10891993D01*
X85821138Y-10587085D01*
X85469725Y-9505548D01*
X85618119Y-9214996D01*
X85669669Y-9113188D01*
X85707139Y-9036470D01*
X85732211Y-8980466D01*
X85746566Y-8940792D01*
X85751888Y-8913070D01*
X85749858Y-8892921D01*
X85745770Y-8882564D01*
X85742011Y-8867069D01*
X85730091Y-8817924D01*
X85733370Y-8782606D01*
X85873632Y-8782606D01*
X85881354Y-8821794D01*
X85907192Y-8852832D01*
X85944705Y-8865426D01*
X85963564Y-8862373D01*
X85993490Y-8840927D01*
X86001867Y-8828842D01*
X86009418Y-8786176D01*
X85992973Y-8750534D01*
X85961181Y-8728383D01*
X85922688Y-8726189D01*
X85890468Y-8745558D01*
X85873632Y-8782606D01*
X85733370Y-8782606D01*
X85736847Y-8745146D01*
X85763937Y-8678780D01*
X85778007Y-8659557D01*
X85840592Y-8609322D01*
X85913959Y-8585609D01*
X85989846Y-8588552D01*
X86059993Y-8618291D01*
X86100465Y-8654196D01*
X86141649Y-8725077D01*
X86150490Y-8802895D01*
X86126773Y-8885380D01*
X86123149Y-8892730D01*
X86093410Y-8940925D01*
X86058416Y-8969102D01*
X86018613Y-8985050D01*
X85993072Y-8994311D01*
X85971823Y-9006415D01*
X85951630Y-9025876D01*
X85929259Y-9057214D01*
X85901475Y-9104946D01*
X85865043Y-9173587D01*
X85817975Y-9265216D01*
X85686239Y-9522994D01*
X86037664Y-10604569D01*
X85876603Y-10920019D01*
X85715542Y-11235468D01*
X85760790Y-11374728D01*
X85781896Y-11436499D01*
X85799943Y-11483510D01*
X85812134Y-11508725D01*
X85814922Y-11511101D01*
X85827632Y-11497047D01*
X85854885Y-11461409D01*
X85892245Y-11410113D01*
X85922138Y-11367911D01*
X85980688Y-11277558D01*
X86046825Y-11164276D01*
X86116305Y-11036392D01*
X86184885Y-10902234D01*
X86248322Y-10770130D01*
X86302371Y-10648408D01*
X86342791Y-10545394D01*
X86346186Y-10535670D01*
X86401896Y-10373650D01*
X86164842Y-9644073D01*
X86101264Y-9608902D01*
X86035291Y-9558016D01*
X86001669Y-9498110D01*
X85998890Y-9493159D01*
X85990865Y-9415409D01*
X86133611Y-9415409D01*
X86141920Y-9452540D01*
X86170149Y-9477244D01*
X86211686Y-9481163D01*
X86231298Y-9474696D01*
X86258297Y-9455273D01*
X86260241Y-9425884D01*
X86255909Y-9410621D01*
X86231253Y-9370225D01*
X86196752Y-9353843D01*
X86161570Y-9364679D01*
X86151834Y-9374213D01*
X86133611Y-9415409D01*
X85990865Y-9415409D01*
X85990421Y-9411111D01*
X85991794Y-9393697D01*
X86014472Y-9317782D01*
X86060883Y-9259164D01*
X86124275Y-9221450D01*
X86197892Y-9208246D01*
X86274980Y-9223159D01*
X86294584Y-9231999D01*
X86355040Y-9279224D01*
X86394938Y-9343804D01*
X86411707Y-9416906D01*
X86402776Y-9489698D01*
X86382087Y-9532490D01*
X86370756Y-9551494D01*
X86365240Y-9571096D01*
X86366509Y-9597520D01*
X86375531Y-9636985D01*
X86393276Y-9695715D01*
X86420547Y-9779432D01*
X86487728Y-9983492D01*
X86509788Y-9844545D01*
X86531712Y-9653335D01*
X86541201Y-9441923D01*
X86538378Y-9221082D01*
X86523372Y-9001580D01*
X86497604Y-8802017D01*
X86482197Y-8720259D01*
X86460169Y-8619134D01*
X86434422Y-8511315D01*
X86407856Y-8409469D01*
X86407013Y-8406411D01*
X86343620Y-8176629D01*
X85694798Y-8387444D01*
X85407948Y-8950777D01*
X85121097Y-9514112D01*
X85425822Y-10451959D01*
X85264762Y-10767409D01*
X85103700Y-11082859D01*
X84910543Y-11082859D01*
X84898173Y-11043744D01*
X85209296Y-10434476D01*
X84904431Y-9496198D01*
X85223744Y-8869836D01*
X85543056Y-8243473D01*
X85895632Y-8128914D01*
X86005804Y-8092389D01*
X86100258Y-8059634D01*
X86175182Y-8032066D01*
X86226763Y-8011102D01*
X86251188Y-7998156D01*
X86252617Y-7996290D01*
X86247332Y-7971172D01*
X86227665Y-7923000D01*
X86196502Y-7857336D01*
X86156722Y-7779744D01*
X86111209Y-7695786D01*
X86062845Y-7611027D01*
X86014513Y-7531028D01*
X85998340Y-7505497D01*
X85800725Y-7228060D01*
X85579829Y-6973301D01*
X85337624Y-6742357D01*
X85076080Y-6536370D01*
X84797169Y-6356477D01*
X84502863Y-6203816D01*
X84195133Y-6079528D01*
X83875949Y-5984749D01*
X83547284Y-5920620D01*
X83211109Y-5888278D01*
X83197479Y-5887659D01*
X82923593Y-5885081D01*
X82663525Y-5902923D01*
X82407525Y-5942548D01*
X82145837Y-6005313D01*
X81969025Y-6058852D01*
X81704006Y-6154422D01*
X81462810Y-6262378D01*
X81236751Y-6387350D01*
X81017143Y-6533971D01*
X80874561Y-6642427D01*
X80814689Y-6691939D01*
X80748020Y-6750184D01*
X80678992Y-6812900D01*
X80612043Y-6875828D01*
X80551613Y-6934707D01*
X80502141Y-6985277D01*
X80468064Y-7023276D01*
X80453823Y-7044446D01*
X80453758Y-7046324D01*
X80468964Y-7056046D01*
X80511050Y-7079336D01*
X80577082Y-7114660D01*
X80664127Y-7160479D01*
X80769254Y-7215260D01*
X80889526Y-7277466D01*
X81022012Y-7345560D01*
X81157627Y-7414873D01*
X81857695Y-7771723D01*
X83288495Y-7306828D01*
X83725321Y-7529635D01*
X84162146Y-7752443D01*
X84532601Y-8892584D01*
X84608230Y-8936080D01*
X84672513Y-8987982D01*
X84709887Y-9049785D01*
X84722948Y-9116254D01*
X84714290Y-9182155D01*
X84686510Y-9242252D01*
X84642202Y-9291312D01*
X84583963Y-9324098D01*
X84514388Y-9335380D01*
X84436072Y-9319918D01*
X84420959Y-9313764D01*
X84364114Y-9272555D01*
X84324441Y-9212077D01*
X84321738Y-9202598D01*
X84304351Y-9141621D01*
X84304957Y-9118941D01*
X84442523Y-9118941D01*
X84454283Y-9159531D01*
X84466513Y-9174142D01*
X84502266Y-9188773D01*
X84542221Y-9179391D01*
X84573578Y-9150760D01*
X84581914Y-9131201D01*
X84577744Y-9092300D01*
X84548914Y-9066580D01*
X84503497Y-9060466D01*
X84494756Y-9061829D01*
X84456932Y-9082725D01*
X84442523Y-9118941D01*
X84304957Y-9118941D01*
X84306251Y-9070476D01*
X84332552Y-9007930D01*
X84339358Y-8999136D01*
X84345726Y-8989918D01*
X84349303Y-8977834D01*
X84349206Y-8959537D01*
X84344554Y-8931684D01*
X84334466Y-8890925D01*
X84318059Y-8833918D01*
X84294453Y-8757314D01*
X84262767Y-8657771D01*
X84222120Y-8531940D01*
X84191203Y-8436712D01*
X84018112Y-7903993D01*
X83644994Y-7715509D01*
X83271875Y-7527024D01*
X82545443Y-7751772D01*
X81819012Y-7976519D01*
X80303662Y-7206254D01*
X80207580Y-7343158D01*
X80165716Y-7403329D01*
X80130829Y-7454435D01*
X80107630Y-7489527D01*
X80101176Y-7500202D01*
X80112664Y-7513893D01*
X80153146Y-7541165D01*
X80221406Y-7581320D01*
X80316219Y-7633661D01*
X80436364Y-7697490D01*
X80546105Y-7754405D01*
X81001358Y-7988467D01*
X81365052Y-9073874D01*
X81432001Y-9273915D01*
X81500155Y-9478000D01*
X81568050Y-9681724D01*
X81634227Y-9880685D01*
X81697223Y-10070478D01*
X81755576Y-10246699D01*
X81807827Y-10404945D01*
X81852511Y-10540813D01*
X81888171Y-10649897D01*
X81891529Y-10660226D01*
X82054311Y-11161172D01*
X82238761Y-11254616D01*
X82318593Y-11294196D01*
X82375590Y-11319658D01*
X82416182Y-11333029D01*
X82446796Y-11336333D01*
X82473864Y-11331596D01*
X82478541Y-11330147D01*
X82555886Y-11320956D01*
X82629644Y-11339925D01*
X82692378Y-11382416D01*
X82736648Y-11443798D01*
X82753533Y-11501487D01*
X82750094Y-11557833D01*
X82730705Y-11619956D01*
X82725577Y-11630723D01*
X82698510Y-11675995D01*
X82667423Y-11703255D01*
X82618800Y-11723725D01*
X82610113Y-11726594D01*
X82549024Y-11741143D01*
X82499419Y-11737845D01*
X82469364Y-11727825D01*
X82411143Y-11691974D01*
X82363724Y-11640708D01*
X82354873Y-11622804D01*
X82336013Y-11584653D01*
X82332523Y-11564601D01*
X82326386Y-11546132D01*
X82319634Y-11538880D01*
X82481977Y-11538880D01*
X82493640Y-11577716D01*
X82523790Y-11601010D01*
X82565994Y-11600366D01*
X82595918Y-11578920D01*
X82604296Y-11566836D01*
X82612233Y-11525403D01*
X82597851Y-11490550D01*
X82569397Y-11467816D01*
X82535118Y-11462739D01*
X82503264Y-11480858D01*
X82494545Y-11493125D01*
X82481977Y-11538880D01*
X82319634Y-11538880D01*
X82307629Y-11525985D01*
X82271905Y-11501186D01*
X82214870Y-11468756D01*
X82132182Y-11425723D01*
X82122839Y-11420977D01*
X81915794Y-11315973D01*
X81401238Y-9808863D01*
X80509178Y-9351964D01*
X80431960Y-9377054D01*
X80378200Y-9390631D01*
X80335731Y-9387788D01*
X80285981Y-9367102D01*
X80283150Y-9365665D01*
X80237612Y-9338799D01*
X80210214Y-9308751D01*
X80189991Y-9262375D01*
X80189945Y-9262272D01*
X80185040Y-9247576D01*
X80172032Y-9178792D01*
X80313277Y-9178792D01*
X80320950Y-9219824D01*
X80342416Y-9240920D01*
X80381053Y-9248695D01*
X80417091Y-9229076D01*
X80440941Y-9187351D01*
X80441192Y-9186459D01*
X80445919Y-9154838D01*
X80431789Y-9135205D01*
X80407604Y-9121410D01*
X80373427Y-9107704D01*
X80351449Y-9114636D01*
X80335261Y-9132550D01*
X80313277Y-9178792D01*
X80172032Y-9178792D01*
X80168835Y-9161884D01*
X80181639Y-9090317D01*
X80221985Y-9031475D01*
X80287580Y-8986054D01*
X80360883Y-8968780D01*
X80434833Y-8977822D01*
X80502369Y-9011346D01*
X80556427Y-9067520D01*
X80584602Y-9125590D01*
X80592342Y-9146238D01*
X80603323Y-9164611D01*
X80621274Y-9183130D01*
X80649927Y-9204217D01*
X80693009Y-9230293D01*
X80754255Y-9263780D01*
X80837391Y-9307099D01*
X80946151Y-9362672D01*
X80963220Y-9371357D01*
X81321066Y-9553396D01*
X80861506Y-8139017D01*
X80424336Y-7916501D01*
X79987166Y-7693986D01*
X79904472Y-7857468D01*
X79821780Y-8020949D01*
X80112259Y-8168605D01*
X80222270Y-8223542D01*
X80305892Y-8262927D01*
X80365730Y-8287834D01*
X80404390Y-8299334D01*
X80424474Y-8298500D01*
X80425729Y-8297648D01*
X80467534Y-8281882D01*
X80525649Y-8281449D01*
X80587259Y-8295289D01*
X80627992Y-8314363D01*
X80677751Y-8363153D01*
X80711364Y-8431630D01*
X80724046Y-8508045D01*
X80721381Y-8543558D01*
X80699508Y-8596089D01*
X80657397Y-8647665D01*
X80606196Y-8685840D01*
X80586292Y-8694371D01*
X80508415Y-8703416D01*
X80432808Y-8683718D01*
X80367396Y-8639477D01*
X80320101Y-8574889D01*
X80312524Y-8556113D01*
X80309046Y-8547496D01*
X80300054Y-8524008D01*
X80292920Y-8512766D01*
X80445931Y-8512766D01*
X80465849Y-8541503D01*
X80502380Y-8556551D01*
X80544113Y-8548597D01*
X80575569Y-8520891D01*
X80577060Y-8518152D01*
X80584085Y-8476486D01*
X80566203Y-8443575D01*
X80531871Y-8426257D01*
X80489547Y-8431371D01*
X80477527Y-8437684D01*
X80446114Y-8472348D01*
X80445931Y-8512766D01*
X80292920Y-8512766D01*
X80287134Y-8503647D01*
X80265873Y-8483350D01*
X80231861Y-8460052D01*
X80180687Y-8430690D01*
X80107937Y-8392199D01*
X80021591Y-8347844D01*
X79754780Y-8211524D01*
X79723746Y-8299826D01*
X79678442Y-8448238D01*
X79637531Y-8619858D01*
X79602838Y-8804572D01*
X79576182Y-8992269D01*
X79559385Y-9172833D01*
X79556293Y-9229665D01*
X79554154Y-9316629D01*
X79315193Y-9316629D01*
X79316166Y-9179004D01*
X79349753Y-8841375D01*
X79416629Y-8495684D01*
X79513904Y-8162082D01*
X79640254Y-7842138D01*
X79794355Y-7537420D01*
X79974884Y-7249493D01*
X80180519Y-6979927D01*
X80409937Y-6730291D01*
X80661812Y-6502151D01*
X80934823Y-6297074D01*
X81227647Y-6116630D01*
X81538960Y-5962386D01*
X81867437Y-5835909D01*
X81893772Y-5827247D01*
X82233583Y-5733931D01*
X82575984Y-5673209D01*
X82918983Y-5644589D01*
X83260587Y-5647578D01*
X83598805Y-5681690D01*
X83931644Y-5746431D01*
X84257112Y-5841311D01*
X84573217Y-5965841D01*
X84877968Y-6119529D01*
X85169371Y-6301885D01*
X85445436Y-6512417D01*
X85704169Y-6750637D01*
X85723586Y-6770391D01*
X85953951Y-7030024D01*
X86157873Y-7308649D01*
X86334577Y-7603896D01*
X86483282Y-7913392D01*
X86603211Y-8234766D01*
X86693588Y-8565647D01*
X86753632Y-8903663D01*
X86782568Y-9246443D01*
X86779617Y-9591616D01*
X86749614Y-9898400D01*
X86684520Y-10243801D01*
X86588680Y-10577868D01*
X86463335Y-10898954D01*
X86309726Y-11205416D01*
X86129091Y-11495606D01*
X85922673Y-11767880D01*
X85691711Y-12020593D01*
X85437445Y-12252099D01*
X85161117Y-12460754D01*
X84863965Y-12644910D01*
X84566692Y-12794242D01*
X84471651Y-12833521D01*
X84353724Y-12877048D01*
X84222621Y-12921691D01*
X84088053Y-12964320D01*
X83959731Y-13001806D01*
X83847363Y-13031015D01*
X83798677Y-13041850D01*
X83466859Y-13093295D01*
X83127530Y-13114337D01*
X82785506Y-13105360D01*
X82445601Y-13066743D01*
X82112630Y-12998866D01*
X81791409Y-12902114D01*
X81724743Y-12877726D01*
X81406637Y-12740195D01*
X81106633Y-12575752D01*
X80825825Y-12386252D01*
X80565303Y-12173554D01*
X80326160Y-11939512D01*
X80109488Y-11685984D01*
X79916381Y-11414826D01*
X79747930Y-11127894D01*
X79605227Y-10827044D01*
X79528364Y-10619457D01*
X79489364Y-10514132D01*
X79401434Y-10191017D01*
G37*
X79401434Y-10191017D02*
X79342530Y-9859552D01*
X79313743Y-9521596D01*
X79315193Y-9316629D01*
X79554154Y-9316629D01*
X79554396Y-9414665D01*
X79556709Y-9516584D01*
X79560783Y-9615199D01*
X79566307Y-9703320D01*
X79572972Y-9773758D01*
X79580468Y-9819325D01*
X79581951Y-9824551D01*
X79593469Y-9860342D01*
X80256768Y-9644823D01*
X80622783Y-9817831D01*
X80988797Y-9990839D01*
X81594261Y-11854265D01*
X81988962Y-12055635D01*
X82383665Y-12257003D01*
X83970186Y-11741512D01*
X84250649Y-11741512D01*
X84262375Y-11783692D01*
X84269878Y-11794512D01*
X84297305Y-11805723D01*
X84333847Y-11797724D01*
X84365228Y-11775180D01*
X84374336Y-11760389D01*
X84376026Y-11717640D01*
X84350271Y-11683839D01*
X84324453Y-11672303D01*
X84286072Y-11675999D01*
X84260010Y-11702341D01*
X84250649Y-11741512D01*
X83970186Y-11741512D01*
X84089994Y-11702584D01*
X84121392Y-11640963D01*
X84170927Y-11575176D01*
X84238113Y-11537734D01*
X84323084Y-11528570D01*
X84340070Y-11529897D01*
X84396776Y-11540420D01*
X84437217Y-11563565D01*
X84473252Y-11602449D01*
X84504500Y-11643875D01*
X84519026Y-11676256D01*
X84522191Y-11715637D01*
X84521055Y-11745588D01*
X84503781Y-11827949D01*
X84460052Y-11890858D01*
X84412508Y-11925183D01*
X84349247Y-11945395D01*
X84277499Y-11946057D01*
X84213384Y-11927552D01*
X84200660Y-11920126D01*
X84157777Y-11891406D01*
X82382628Y-12468187D01*
X82294225Y-12423182D01*
X81903508Y-12224276D01*
X81424388Y-11980367D01*
X80823640Y-10131454D01*
X80230553Y-9847296D01*
X79926219Y-9945841D01*
X79818931Y-9980930D01*
X79739581Y-10007912D01*
X79684148Y-10028447D01*
X79648610Y-10044194D01*
X79628946Y-10056816D01*
X79621131Y-10067973D01*
X79620437Y-10072103D01*
X79624149Y-10097732D01*
X79635337Y-10148787D01*
X79652400Y-10218532D01*
X79673741Y-10300228D01*
X79680436Y-10324952D01*
X79741884Y-10550080D01*
X80199151Y-10401505D01*
X80610128Y-10609935D01*
X80735155Y-10994729D01*
X80774689Y-11115836D01*
X80805682Y-11208895D01*
X80829678Y-11277722D01*
X80848221Y-11326136D01*
X80862858Y-11357950D01*
X80875130Y-11376981D01*
X80886584Y-11387044D01*
X80895540Y-11390994D01*
X80962847Y-11428370D01*
X81010883Y-11485795D01*
X81037485Y-11555393D01*
X81040490Y-11629291D01*
X81017737Y-11699614D01*
X80990590Y-11737065D01*
X80938934Y-11773168D01*
X80870459Y-11796613D01*
X80800850Y-11802522D01*
X80785634Y-11800776D01*
X80719379Y-11774499D01*
X80668319Y-11724644D01*
X80635287Y-11658683D01*
X80634972Y-11656751D01*
X80628278Y-11615729D01*
X80761224Y-11615729D01*
X80783554Y-11642475D01*
X80820787Y-11661808D01*
X80854651Y-11664441D01*
X80876224Y-11645433D01*
X80893093Y-11617259D01*
X80903545Y-11586583D01*
X80895123Y-11565534D01*
X80871953Y-11545061D01*
X80837010Y-11524647D01*
X80810273Y-11520725D01*
X80782527Y-11543667D01*
X80763212Y-11581726D01*
X80761224Y-11615729D01*
X80628278Y-11615729D01*
X80623115Y-11584088D01*
X80634635Y-11508332D01*
X80656835Y-11460937D01*
X80664340Y-11446746D01*
X80668045Y-11430158D01*
X80666938Y-11406728D01*
X80660004Y-11372009D01*
X80646231Y-11321554D01*
X80624608Y-11250917D01*
X80594120Y-11155651D01*
X80571233Y-11085070D01*
X80461580Y-10747595D01*
X80319746Y-10674638D01*
X80177911Y-10601681D01*
X79998693Y-10659912D01*
X79924142Y-10683537D01*
X79872854Y-10701906D01*
X79843161Y-10720815D01*
X79833393Y-10746060D01*
X79841879Y-10783436D01*
X79866951Y-10838739D01*
X79906938Y-10917762D01*
X79918042Y-10939847D01*
X80082635Y-11232279D01*
X80273228Y-11505182D01*
X80487804Y-11757249D01*
X80724349Y-11987176D01*
X80980847Y-12193657D01*
X81255281Y-12375386D01*
X81545636Y-12531058D01*
X81849898Y-12659367D01*
X82166049Y-12759007D01*
X82492075Y-12828674D01*
X82825959Y-12867062D01*
X82899832Y-12871160D01*
X83042299Y-12873472D01*
X83199435Y-12869149D01*
X83360087Y-12858956D01*
X83513100Y-12843660D01*
X83647320Y-12824024D01*
X83681849Y-12817484D01*
X83756407Y-12802554D01*
X83823921Y-12789272D01*
X83873961Y-12779680D01*
X83888343Y-12777051D01*
X83938061Y-12764700D01*
X84011777Y-12741822D01*
X84102716Y-12710929D01*
X84204106Y-12674538D01*
X84309170Y-12635162D01*
X84411138Y-12595315D01*
X84503232Y-12557511D01*
X84578681Y-12524265D01*
X84609604Y-12509352D01*
X84694946Y-12466367D01*
X84752173Y-12435418D01*
X84782362Y-12412268D01*
X84786591Y-12392682D01*
X84765935Y-12372423D01*
X84721472Y-12347252D01*
X84658929Y-12315329D01*
X84504011Y-12235740D01*
X83921259Y-12425087D01*
X83767594Y-12475175D01*
X83642891Y-12516256D01*
X83544249Y-12549404D01*
X83468763Y-12575693D01*
X83413531Y-12596198D01*
X83375652Y-12611989D01*
X83352221Y-12624143D01*
X83340337Y-12633732D01*
X83337109Y-12641145D01*
X83321858Y-12680132D01*
X83286049Y-12723614D01*
X83239346Y-12761816D01*
X83196395Y-12783472D01*
X83120061Y-12791995D01*
X83044730Y-12772591D01*
X82979285Y-12729811D01*
X82932609Y-12668210D01*
X82929861Y-12661468D01*
X82922354Y-12643056D01*
X82915926Y-12583791D01*
X82917851Y-12572344D01*
X83067653Y-12572344D01*
X83074587Y-12614444D01*
X83101620Y-12644444D01*
X83110175Y-12648106D01*
X83142242Y-12656054D01*
X83155123Y-12656450D01*
X83171686Y-12641836D01*
X83186581Y-12623281D01*
X83198220Y-12585968D01*
X83186669Y-12550373D01*
X83159837Y-12523520D01*
X83125626Y-12512432D01*
X83091942Y-12524135D01*
X83083972Y-12532103D01*
X83067653Y-12572344D01*
X82917851Y-12572344D01*
X82927044Y-12517671D01*
X82952192Y-12461031D01*
X82964961Y-12445121D01*
X83004747Y-12416055D01*
X83058276Y-12389802D01*
X83074449Y-12383965D01*
X83126081Y-12371786D01*
X83171319Y-12375525D01*
X83226352Y-12396105D01*
X83305995Y-12431724D01*
X84541273Y-12030358D01*
X84777838Y-12150471D01*
X85014402Y-12270584D01*
X85235428Y-12110152D01*
X84928541Y-11139771D01*
X84910543Y-11082859D01*
X85103700Y-11082859D01*
X85247061Y-11524078D01*
X85284654Y-11638686D01*
X85319225Y-11742001D01*
X85349377Y-11830015D01*
X85373712Y-11898715D01*
X85390834Y-11944093D01*
X85399346Y-11962138D01*
X85399727Y-11962275D01*
X85414563Y-11949887D01*
X85447687Y-11918603D01*
X85493964Y-11873360D01*
X85540302Y-11827118D01*
X85671572Y-11694983D01*
X85509735Y-11196902D01*
X85665436Y-10891993D01*
X85821138Y-10587085D01*
X85469725Y-9505548D01*
X85618119Y-9214996D01*
X85669669Y-9113188D01*
X85707139Y-9036470D01*
X85732211Y-8980466D01*
X85746566Y-8940792D01*
X85751888Y-8913070D01*
X85749858Y-8892921D01*
X85745770Y-8882564D01*
X85742011Y-8867069D01*
X85730091Y-8817924D01*
X85733370Y-8782606D01*
X85873632Y-8782606D01*
X85881354Y-8821794D01*
X85907192Y-8852832D01*
X85944705Y-8865426D01*
X85963564Y-8862373D01*
X85993490Y-8840927D01*
X86001867Y-8828842D01*
X86009418Y-8786176D01*
X85992973Y-8750534D01*
X85961181Y-8728383D01*
X85922688Y-8726189D01*
X85890468Y-8745558D01*
X85873632Y-8782606D01*
X85733370Y-8782606D01*
X85736847Y-8745146D01*
X85763937Y-8678780D01*
X85778007Y-8659557D01*
X85840592Y-8609322D01*
X85913959Y-8585609D01*
X85989846Y-8588552D01*
X86059993Y-8618291D01*
X86100465Y-8654196D01*
X86141649Y-8725077D01*
X86150490Y-8802895D01*
X86126773Y-8885380D01*
X86123149Y-8892730D01*
X86093410Y-8940925D01*
X86058416Y-8969102D01*
X86018613Y-8985050D01*
X85993072Y-8994311D01*
X85971823Y-9006415D01*
X85951630Y-9025876D01*
X85929259Y-9057214D01*
X85901475Y-9104946D01*
X85865043Y-9173587D01*
X85817975Y-9265216D01*
X85686239Y-9522994D01*
X86037664Y-10604569D01*
X85876603Y-10920019D01*
X85715542Y-11235468D01*
X85760790Y-11374728D01*
X85781896Y-11436499D01*
X85799943Y-11483510D01*
X85812134Y-11508725D01*
X85814922Y-11511101D01*
X85827632Y-11497047D01*
X85854885Y-11461409D01*
X85892245Y-11410113D01*
X85922138Y-11367911D01*
X85980688Y-11277558D01*
X86046825Y-11164276D01*
X86116305Y-11036392D01*
X86184885Y-10902234D01*
X86248322Y-10770130D01*
X86302371Y-10648408D01*
X86342791Y-10545394D01*
X86346186Y-10535670D01*
X86401896Y-10373650D01*
X86164842Y-9644073D01*
X86101264Y-9608902D01*
X86035291Y-9558016D01*
X86001669Y-9498110D01*
X85998890Y-9493159D01*
X85990865Y-9415409D01*
X86133611Y-9415409D01*
X86141920Y-9452540D01*
X86170149Y-9477244D01*
X86211686Y-9481163D01*
X86231298Y-9474696D01*
X86258297Y-9455273D01*
X86260241Y-9425884D01*
X86255909Y-9410621D01*
X86231253Y-9370225D01*
X86196752Y-9353843D01*
X86161570Y-9364679D01*
X86151834Y-9374213D01*
X86133611Y-9415409D01*
X85990865Y-9415409D01*
X85990421Y-9411111D01*
X85991794Y-9393697D01*
X86014472Y-9317782D01*
X86060883Y-9259164D01*
X86124275Y-9221450D01*
X86197892Y-9208246D01*
X86274980Y-9223159D01*
X86294584Y-9231999D01*
X86355040Y-9279224D01*
X86394938Y-9343804D01*
X86411707Y-9416906D01*
X86402776Y-9489698D01*
X86382087Y-9532490D01*
X86370756Y-9551494D01*
X86365240Y-9571096D01*
X86366509Y-9597520D01*
X86375531Y-9636985D01*
X86393276Y-9695715D01*
X86420547Y-9779432D01*
X86487728Y-9983492D01*
X86509788Y-9844545D01*
X86531712Y-9653335D01*
X86541201Y-9441923D01*
X86538378Y-9221082D01*
X86523372Y-9001580D01*
X86497604Y-8802017D01*
X86482197Y-8720259D01*
X86460169Y-8619134D01*
X86434422Y-8511315D01*
X86407856Y-8409469D01*
X86407013Y-8406411D01*
X86343620Y-8176629D01*
X85694798Y-8387444D01*
X85407948Y-8950777D01*
X85121097Y-9514112D01*
X85425822Y-10451959D01*
X85264762Y-10767409D01*
X85103700Y-11082859D01*
X84910543Y-11082859D01*
X84898173Y-11043744D01*
X85209296Y-10434476D01*
X84904431Y-9496198D01*
X85223744Y-8869836D01*
X85543056Y-8243473D01*
X85895632Y-8128914D01*
X86005804Y-8092389D01*
X86100258Y-8059634D01*
X86175182Y-8032066D01*
X86226763Y-8011102D01*
X86251188Y-7998156D01*
X86252617Y-7996290D01*
X86247332Y-7971172D01*
X86227665Y-7923000D01*
X86196502Y-7857336D01*
X86156722Y-7779744D01*
X86111209Y-7695786D01*
X86062845Y-7611027D01*
X86014513Y-7531028D01*
X85998340Y-7505497D01*
X85800725Y-7228060D01*
X85579829Y-6973301D01*
X85337624Y-6742357D01*
X85076080Y-6536370D01*
X84797169Y-6356477D01*
X84502863Y-6203816D01*
X84195133Y-6079528D01*
X83875949Y-5984749D01*
X83547284Y-5920620D01*
X83211109Y-5888278D01*
X83197479Y-5887659D01*
X82923593Y-5885081D01*
X82663525Y-5902923D01*
X82407525Y-5942548D01*
X82145837Y-6005313D01*
X81969025Y-6058852D01*
X81704006Y-6154422D01*
X81462810Y-6262378D01*
X81236751Y-6387350D01*
X81017143Y-6533971D01*
X80874561Y-6642427D01*
X80814689Y-6691939D01*
X80748020Y-6750184D01*
X80678992Y-6812900D01*
X80612043Y-6875828D01*
X80551613Y-6934707D01*
X80502141Y-6985277D01*
X80468064Y-7023276D01*
X80453823Y-7044446D01*
X80453758Y-7046324D01*
X80468964Y-7056046D01*
X80511050Y-7079336D01*
X80577082Y-7114660D01*
X80664127Y-7160479D01*
X80769254Y-7215260D01*
X80889526Y-7277466D01*
X81022012Y-7345560D01*
X81157627Y-7414873D01*
X81857695Y-7771723D01*
X83288495Y-7306828D01*
X83725321Y-7529635D01*
X84162146Y-7752443D01*
X84532601Y-8892584D01*
X84608230Y-8936080D01*
X84672513Y-8987982D01*
X84709887Y-9049785D01*
X84722948Y-9116254D01*
X84714290Y-9182155D01*
X84686510Y-9242252D01*
X84642202Y-9291312D01*
X84583963Y-9324098D01*
X84514388Y-9335380D01*
X84436072Y-9319918D01*
X84420959Y-9313764D01*
X84364114Y-9272555D01*
X84324441Y-9212077D01*
X84321738Y-9202598D01*
X84304351Y-9141621D01*
X84304957Y-9118941D01*
X84442523Y-9118941D01*
X84454283Y-9159531D01*
X84466513Y-9174142D01*
X84502266Y-9188773D01*
X84542221Y-9179391D01*
X84573578Y-9150760D01*
X84581914Y-9131201D01*
X84577744Y-9092300D01*
X84548914Y-9066580D01*
X84503497Y-9060466D01*
X84494756Y-9061829D01*
X84456932Y-9082725D01*
X84442523Y-9118941D01*
X84304957Y-9118941D01*
X84306251Y-9070476D01*
X84332552Y-9007930D01*
X84339358Y-8999136D01*
X84345726Y-8989918D01*
X84349303Y-8977834D01*
X84349206Y-8959537D01*
X84344554Y-8931684D01*
X84334466Y-8890925D01*
X84318059Y-8833918D01*
X84294453Y-8757314D01*
X84262767Y-8657771D01*
X84222120Y-8531940D01*
X84191203Y-8436712D01*
X84018112Y-7903993D01*
X83644994Y-7715509D01*
X83271875Y-7527024D01*
X82545443Y-7751772D01*
X81819012Y-7976519D01*
X80303662Y-7206254D01*
X80207580Y-7343158D01*
X80165716Y-7403329D01*
X80130829Y-7454435D01*
X80107630Y-7489527D01*
X80101176Y-7500202D01*
X80112664Y-7513893D01*
X80153146Y-7541165D01*
X80221406Y-7581320D01*
X80316219Y-7633661D01*
X80436364Y-7697490D01*
X80546105Y-7754405D01*
X81001358Y-7988467D01*
X81365052Y-9073874D01*
X81432001Y-9273915D01*
X81500155Y-9478000D01*
X81568050Y-9681724D01*
X81634227Y-9880685D01*
X81697223Y-10070478D01*
X81755576Y-10246699D01*
X81807827Y-10404945D01*
X81852511Y-10540813D01*
X81888171Y-10649897D01*
X81891529Y-10660226D01*
X82054311Y-11161172D01*
X82238761Y-11254616D01*
X82318593Y-11294196D01*
X82375590Y-11319658D01*
X82416182Y-11333029D01*
X82446796Y-11336333D01*
X82473864Y-11331596D01*
X82478541Y-11330147D01*
X82555886Y-11320956D01*
X82629644Y-11339925D01*
X82692378Y-11382416D01*
X82736648Y-11443798D01*
X82753533Y-11501487D01*
X82750094Y-11557833D01*
X82730705Y-11619956D01*
X82725577Y-11630723D01*
X82698510Y-11675995D01*
X82667423Y-11703255D01*
X82618800Y-11723725D01*
X82610113Y-11726594D01*
X82549024Y-11741143D01*
X82499419Y-11737845D01*
X82469364Y-11727825D01*
X82411143Y-11691974D01*
X82363724Y-11640708D01*
X82354873Y-11622804D01*
X82336013Y-11584653D01*
X82332523Y-11564601D01*
X82326386Y-11546132D01*
X82319634Y-11538880D01*
X82481977Y-11538880D01*
X82493640Y-11577716D01*
X82523790Y-11601010D01*
X82565994Y-11600366D01*
X82595918Y-11578920D01*
X82604296Y-11566836D01*
X82612233Y-11525403D01*
X82597851Y-11490550D01*
X82569397Y-11467816D01*
X82535118Y-11462739D01*
X82503264Y-11480858D01*
X82494545Y-11493125D01*
X82481977Y-11538880D01*
X82319634Y-11538880D01*
X82307629Y-11525985D01*
X82271905Y-11501186D01*
X82214870Y-11468756D01*
X82132182Y-11425723D01*
X82122839Y-11420977D01*
X81915794Y-11315973D01*
X81401238Y-9808863D01*
X80509178Y-9351964D01*
X80431960Y-9377054D01*
X80378200Y-9390631D01*
X80335731Y-9387788D01*
X80285981Y-9367102D01*
X80283150Y-9365665D01*
X80237612Y-9338799D01*
X80210214Y-9308751D01*
X80189991Y-9262375D01*
X80189945Y-9262272D01*
X80185040Y-9247576D01*
X80172032Y-9178792D01*
X80313277Y-9178792D01*
X80320950Y-9219824D01*
X80342416Y-9240920D01*
X80381053Y-9248695D01*
X80417091Y-9229076D01*
X80440941Y-9187351D01*
X80441192Y-9186459D01*
X80445919Y-9154838D01*
X80431789Y-9135205D01*
X80407604Y-9121410D01*
X80373427Y-9107704D01*
X80351449Y-9114636D01*
X80335261Y-9132550D01*
X80313277Y-9178792D01*
X80172032Y-9178792D01*
X80168835Y-9161884D01*
X80181639Y-9090317D01*
X80221985Y-9031475D01*
X80287580Y-8986054D01*
X80360883Y-8968780D01*
X80434833Y-8977822D01*
X80502369Y-9011346D01*
X80556427Y-9067520D01*
X80584602Y-9125590D01*
X80592342Y-9146238D01*
X80603323Y-9164611D01*
X80621274Y-9183130D01*
X80649927Y-9204217D01*
X80693009Y-9230293D01*
X80754255Y-9263780D01*
X80837391Y-9307099D01*
X80946151Y-9362672D01*
X80963220Y-9371357D01*
X81321066Y-9553396D01*
X80861506Y-8139017D01*
X80424336Y-7916501D01*
X79987166Y-7693986D01*
X79904472Y-7857468D01*
X79821780Y-8020949D01*
X80112259Y-8168605D01*
X80222270Y-8223542D01*
X80305892Y-8262927D01*
X80365730Y-8287834D01*
X80404390Y-8299334D01*
X80424474Y-8298500D01*
X80425729Y-8297648D01*
X80467534Y-8281882D01*
X80525649Y-8281449D01*
X80587259Y-8295289D01*
X80627992Y-8314363D01*
X80677751Y-8363153D01*
X80711364Y-8431630D01*
X80724046Y-8508045D01*
X80721381Y-8543558D01*
X80699508Y-8596089D01*
X80657397Y-8647665D01*
X80606196Y-8685840D01*
X80586292Y-8694371D01*
X80508415Y-8703416D01*
X80432808Y-8683718D01*
X80367396Y-8639477D01*
X80320101Y-8574889D01*
X80312524Y-8556113D01*
X80309046Y-8547496D01*
X80300054Y-8524008D01*
X80292920Y-8512766D01*
X80445931Y-8512766D01*
X80465849Y-8541503D01*
X80502380Y-8556551D01*
X80544113Y-8548597D01*
X80575569Y-8520891D01*
X80577060Y-8518152D01*
X80584085Y-8476486D01*
X80566203Y-8443575D01*
X80531871Y-8426257D01*
X80489547Y-8431371D01*
X80477527Y-8437684D01*
X80446114Y-8472348D01*
X80445931Y-8512766D01*
X80292920Y-8512766D01*
X80287134Y-8503647D01*
X80265873Y-8483350D01*
X80231861Y-8460052D01*
X80180687Y-8430690D01*
X80107937Y-8392199D01*
X80021591Y-8347844D01*
X79754780Y-8211524D01*
X79723746Y-8299826D01*
X79678442Y-8448238D01*
X79637531Y-8619858D01*
X79602838Y-8804572D01*
X79576182Y-8992269D01*
X79559385Y-9172833D01*
X79556293Y-9229665D01*
X79554154Y-9316629D01*
X79315193Y-9316629D01*
X79316166Y-9179004D01*
X79349753Y-8841375D01*
X79416629Y-8495684D01*
X79513904Y-8162082D01*
X79640254Y-7842138D01*
X79794355Y-7537420D01*
X79974884Y-7249493D01*
X80180519Y-6979927D01*
X80409937Y-6730291D01*
X80661812Y-6502151D01*
X80934823Y-6297074D01*
X81227647Y-6116630D01*
X81538960Y-5962386D01*
X81867437Y-5835909D01*
X81893772Y-5827247D01*
X82233583Y-5733931D01*
X82575984Y-5673209D01*
X82918983Y-5644589D01*
X83260587Y-5647578D01*
X83598805Y-5681690D01*
X83931644Y-5746431D01*
X84257112Y-5841311D01*
X84573217Y-5965841D01*
X84877968Y-6119529D01*
X85169371Y-6301885D01*
X85445436Y-6512417D01*
X85704169Y-6750637D01*
X85723586Y-6770391D01*
X85953951Y-7030024D01*
X86157873Y-7308649D01*
X86334577Y-7603896D01*
X86483282Y-7913392D01*
X86603211Y-8234766D01*
X86693588Y-8565647D01*
X86753632Y-8903663D01*
X86782568Y-9246443D01*
X86779617Y-9591616D01*
X86749614Y-9898400D01*
X86684520Y-10243801D01*
X86588680Y-10577868D01*
X86463335Y-10898954D01*
X86309726Y-11205416D01*
X86129091Y-11495606D01*
X85922673Y-11767880D01*
X85691711Y-12020593D01*
X85437445Y-12252099D01*
X85161117Y-12460754D01*
X84863965Y-12644910D01*
X84566692Y-12794242D01*
X84471651Y-12833521D01*
X84353724Y-12877048D01*
X84222621Y-12921691D01*
X84088053Y-12964320D01*
X83959731Y-13001806D01*
X83847363Y-13031015D01*
X83798677Y-13041850D01*
X83466859Y-13093295D01*
X83127530Y-13114337D01*
X82785506Y-13105360D01*
X82445601Y-13066743D01*
X82112630Y-12998866D01*
X81791409Y-12902114D01*
X81724743Y-12877726D01*
X81406637Y-12740195D01*
X81106633Y-12575752D01*
X80825825Y-12386252D01*
X80565303Y-12173554D01*
X80326160Y-11939512D01*
X80109488Y-11685984D01*
X79916381Y-11414826D01*
X79747930Y-11127894D01*
X79605227Y-10827044D01*
X79528364Y-10619457D01*
X79489364Y-10514132D01*
X79401434Y-10191017D01*
G36*
X84702857Y-8337637D02*
G01*
X84717956Y-8284027D01*
X84733270Y-8259376D01*
X84740313Y-8249639D01*
X84743630Y-8235691D01*
X84742255Y-8213617D01*
X84735225Y-8179496D01*
X84721571Y-8129413D01*
X84700331Y-8059451D01*
X84670538Y-7965690D01*
X84631227Y-7844214D01*
X84502494Y-7448017D01*
X83438988Y-6906519D01*
X82056059Y-7355860D01*
X81803878Y-7226953D01*
X81706086Y-7177806D01*
X81632927Y-7143311D01*
X81579907Y-7121733D01*
X81542531Y-7111339D01*
X81516305Y-7110393D01*
X81507234Y-7112493D01*
X81424824Y-7124338D01*
X81349109Y-7108384D01*
X81285357Y-7069278D01*
X81238833Y-7011665D01*
X81231933Y-6991137D01*
X81214806Y-6940192D01*
X81216310Y-6907703D01*
X81352033Y-6907703D01*
X81363792Y-6948294D01*
X81376023Y-6962903D01*
X81411776Y-6977535D01*
X81451730Y-6968153D01*
X81483088Y-6939522D01*
X81491423Y-6919962D01*
X81487253Y-6881063D01*
X81458424Y-6855343D01*
X81413006Y-6849228D01*
X81404265Y-6850591D01*
X81366441Y-6871487D01*
X81352033Y-6907703D01*
X81216310Y-6907703D01*
X81218542Y-6859504D01*
X81218868Y-6858114D01*
X81251217Y-6786084D01*
X81305145Y-6734868D01*
X81374090Y-6707246D01*
X81451489Y-6706002D01*
X81522375Y-6729436D01*
X81565653Y-6754845D01*
X81592282Y-6783358D01*
X81612234Y-6827366D01*
X81620244Y-6851049D01*
X81648180Y-6937031D01*
X81865369Y-7045503D01*
X82082557Y-7153976D01*
X83477984Y-6700574D01*
X84062230Y-6998438D01*
X84646475Y-7296302D01*
X84925904Y-8156296D01*
X84988756Y-8186643D01*
X85055883Y-8233503D01*
X85098033Y-8292861D01*
X85117000Y-8359076D01*
X85114580Y-8426506D01*
X85092565Y-8489509D01*
X85052750Y-8542444D01*
X84996930Y-8579670D01*
X84926898Y-8595543D01*
X84860845Y-8588841D01*
X84791296Y-8558077D01*
X84735265Y-8506594D01*
X84706061Y-8453068D01*
X84705959Y-8452369D01*
X84699641Y-8408874D01*
X84839824Y-8408874D01*
X84854273Y-8428485D01*
X84876609Y-8441156D01*
X84912926Y-8457518D01*
X84935474Y-8456089D01*
X84959828Y-8435073D01*
X84963642Y-8431117D01*
X84980007Y-8395154D01*
X84972271Y-8357399D01*
X84947347Y-8327104D01*
X84912144Y-8313522D01*
X84881291Y-8320871D01*
X84857867Y-8346830D01*
X84844641Y-8376869D01*
X84839824Y-8408874D01*
X84699641Y-8408874D01*
X84698197Y-8398930D01*
X84702857Y-8337637D01*
G37*
X84702857Y-8337637D02*
X84717956Y-8284027D01*
X84733270Y-8259376D01*
X84740313Y-8249639D01*
X84743630Y-8235691D01*
X84742255Y-8213617D01*
X84735225Y-8179496D01*
X84721571Y-8129413D01*
X84700331Y-8059451D01*
X84670538Y-7965690D01*
X84631227Y-7844214D01*
X84502494Y-7448017D01*
X83438988Y-6906519D01*
X82056059Y-7355860D01*
X81803878Y-7226953D01*
X81706086Y-7177806D01*
X81632927Y-7143311D01*
X81579907Y-7121733D01*
X81542531Y-7111339D01*
X81516305Y-7110393D01*
X81507234Y-7112493D01*
X81424824Y-7124338D01*
X81349109Y-7108384D01*
X81285357Y-7069278D01*
X81238833Y-7011665D01*
X81231933Y-6991137D01*
X81214806Y-6940192D01*
X81216310Y-6907703D01*
X81352033Y-6907703D01*
X81363792Y-6948294D01*
X81376023Y-6962903D01*
X81411776Y-6977535D01*
X81451730Y-6968153D01*
X81483088Y-6939522D01*
X81491423Y-6919962D01*
X81487253Y-6881063D01*
X81458424Y-6855343D01*
X81413006Y-6849228D01*
X81404265Y-6850591D01*
X81366441Y-6871487D01*
X81352033Y-6907703D01*
X81216310Y-6907703D01*
X81218542Y-6859504D01*
X81218868Y-6858114D01*
X81251217Y-6786084D01*
X81305145Y-6734868D01*
X81374090Y-6707246D01*
X81451489Y-6706002D01*
X81522375Y-6729436D01*
X81565653Y-6754845D01*
X81592282Y-6783358D01*
X81612234Y-6827366D01*
X81620244Y-6851049D01*
X81648180Y-6937031D01*
X81865369Y-7045503D01*
X82082557Y-7153976D01*
X83477984Y-6700574D01*
X84062230Y-6998438D01*
X84646475Y-7296302D01*
X84925904Y-8156296D01*
X84988756Y-8186643D01*
X85055883Y-8233503D01*
X85098033Y-8292861D01*
X85117000Y-8359076D01*
X85114580Y-8426506D01*
X85092565Y-8489509D01*
X85052750Y-8542444D01*
X84996930Y-8579670D01*
X84926898Y-8595543D01*
X84860845Y-8588841D01*
X84791296Y-8558077D01*
X84735265Y-8506594D01*
X84706061Y-8453068D01*
X84705959Y-8452369D01*
X84699641Y-8408874D01*
X84839824Y-8408874D01*
X84854273Y-8428485D01*
X84876609Y-8441156D01*
X84912926Y-8457518D01*
X84935474Y-8456089D01*
X84959828Y-8435073D01*
X84963642Y-8431117D01*
X84980007Y-8395154D01*
X84972271Y-8357399D01*
X84947347Y-8327104D01*
X84912144Y-8313522D01*
X84881291Y-8320871D01*
X84857867Y-8346830D01*
X84844641Y-8376869D01*
X84839824Y-8408874D01*
X84699641Y-8408874D01*
X84698197Y-8398930D01*
X84702857Y-8337637D01*
G36*
X82711578Y-9348798D02*
G01*
X82743657Y-9282420D01*
X82799896Y-9230097D01*
X82852344Y-9205591D01*
X82907591Y-9197200D01*
X82968645Y-9201713D01*
X83022123Y-9216986D01*
X83052286Y-9237619D01*
X83064550Y-9244315D01*
X83088541Y-9243932D01*
X83129070Y-9235433D01*
X83190954Y-9217783D01*
X83279006Y-9189948D01*
X83289019Y-9186699D01*
X83509087Y-9115195D01*
X83606688Y-8918929D01*
X83704289Y-8722664D01*
X83565852Y-8296600D01*
X83370883Y-8197769D01*
X83175914Y-8098939D01*
X82111076Y-8444926D01*
X82012244Y-8639895D01*
X81913414Y-8834864D01*
X82440135Y-10455945D01*
X82635104Y-10554776D01*
X82830074Y-10653607D01*
X83895136Y-10307547D01*
X84038864Y-10022763D01*
X84008785Y-9930190D01*
X84002301Y-9907611D01*
X83992725Y-9874255D01*
X83992104Y-9865976D01*
X84130439Y-9865976D01*
X84152231Y-9904006D01*
X84175378Y-9920802D01*
X84211227Y-9936024D01*
X84235685Y-9927361D01*
X84259231Y-9890879D01*
X84260226Y-9888936D01*
X84273398Y-9855371D01*
X84265430Y-9833393D01*
X84248300Y-9818136D01*
X84202238Y-9796205D01*
X84161316Y-9803469D01*
X84140489Y-9824406D01*
X84130439Y-9865976D01*
X83992104Y-9865976D01*
X83989760Y-9834697D01*
X84000458Y-9796905D01*
X84015185Y-9766025D01*
X84044001Y-9718236D01*
X84076955Y-9690158D01*
X84125558Y-9670423D01*
X84212772Y-9653996D01*
X84285845Y-9666930D01*
X84347523Y-9709745D01*
X84350779Y-9713125D01*
X84395542Y-9781294D01*
X84412398Y-9855810D01*
X84402511Y-9929279D01*
X84367049Y-9994310D01*
X84307179Y-10043513D01*
X84297894Y-10048251D01*
X84270216Y-10064434D01*
X84245254Y-10087547D01*
X84219060Y-10123135D01*
X84187686Y-10176745D01*
X84147184Y-10253922D01*
X84136397Y-10275126D01*
X84036342Y-10472512D01*
X82811503Y-10870486D01*
X82553724Y-10738752D01*
X82295946Y-10607017D01*
X81707573Y-8796190D01*
X81833311Y-8548618D01*
X81959048Y-8301047D01*
X83199649Y-7897951D01*
X83457427Y-8029686D01*
X83715206Y-8161421D01*
X83906274Y-8749468D01*
X83774538Y-9007246D01*
X83642803Y-9265024D01*
X83385336Y-9348680D01*
X83289163Y-9380193D01*
X83220195Y-9403809D01*
X83173758Y-9421665D01*
X83145179Y-9435898D01*
X83129784Y-9448646D01*
X83122897Y-9462045D01*
X83121221Y-9469455D01*
X83095408Y-9527254D01*
X83046306Y-9571920D01*
X82982243Y-9601149D01*
X82911546Y-9612640D01*
X82842542Y-9604092D01*
X82783560Y-9573204D01*
X82774768Y-9565211D01*
X82725687Y-9496898D01*
X82714579Y-9456755D01*
X82705107Y-9422525D01*
X82705807Y-9414549D01*
X82844475Y-9414549D01*
X82857470Y-9447877D01*
X82884163Y-9466339D01*
X82926722Y-9477469D01*
X82958494Y-9458842D01*
X82976711Y-9427710D01*
X82986072Y-9390064D01*
X82971012Y-9364847D01*
X82923395Y-9337438D01*
X82884993Y-9342140D01*
X82861017Y-9368761D01*
X82844475Y-9414549D01*
X82705807Y-9414549D01*
X82711578Y-9348798D01*
G37*
X82711578Y-9348798D02*
X82743657Y-9282420D01*
X82799896Y-9230097D01*
X82852344Y-9205591D01*
X82907591Y-9197200D01*
X82968645Y-9201713D01*
X83022123Y-9216986D01*
X83052286Y-9237619D01*
X83064550Y-9244315D01*
X83088541Y-9243932D01*
X83129070Y-9235433D01*
X83190954Y-9217783D01*
X83279006Y-9189948D01*
X83289019Y-9186699D01*
X83509087Y-9115195D01*
X83606688Y-8918929D01*
X83704289Y-8722664D01*
X83565852Y-8296600D01*
X83370883Y-8197769D01*
X83175914Y-8098939D01*
X82111076Y-8444926D01*
X82012244Y-8639895D01*
X81913414Y-8834864D01*
X82440135Y-10455945D01*
X82635104Y-10554776D01*
X82830074Y-10653607D01*
X83895136Y-10307547D01*
X84038864Y-10022763D01*
X84008785Y-9930190D01*
X84002301Y-9907611D01*
X83992725Y-9874255D01*
X83992104Y-9865976D01*
X84130439Y-9865976D01*
X84152231Y-9904006D01*
X84175378Y-9920802D01*
X84211227Y-9936024D01*
X84235685Y-9927361D01*
X84259231Y-9890879D01*
X84260226Y-9888936D01*
X84273398Y-9855371D01*
X84265430Y-9833393D01*
X84248300Y-9818136D01*
X84202238Y-9796205D01*
X84161316Y-9803469D01*
X84140489Y-9824406D01*
X84130439Y-9865976D01*
X83992104Y-9865976D01*
X83989760Y-9834697D01*
X84000458Y-9796905D01*
X84015185Y-9766025D01*
X84044001Y-9718236D01*
X84076955Y-9690158D01*
X84125558Y-9670423D01*
X84212772Y-9653996D01*
X84285845Y-9666930D01*
X84347523Y-9709745D01*
X84350779Y-9713125D01*
X84395542Y-9781294D01*
X84412398Y-9855810D01*
X84402511Y-9929279D01*
X84367049Y-9994310D01*
X84307179Y-10043513D01*
X84297894Y-10048251D01*
X84270216Y-10064434D01*
X84245254Y-10087547D01*
X84219060Y-10123135D01*
X84187686Y-10176745D01*
X84147184Y-10253922D01*
X84136397Y-10275126D01*
X84036342Y-10472512D01*
X82811503Y-10870486D01*
X82553724Y-10738752D01*
X82295946Y-10607017D01*
X81707573Y-8796190D01*
X81833311Y-8548618D01*
X81959048Y-8301047D01*
X83199649Y-7897951D01*
X83457427Y-8029686D01*
X83715206Y-8161421D01*
X83906274Y-8749468D01*
X83774538Y-9007246D01*
X83642803Y-9265024D01*
X83385336Y-9348680D01*
X83289163Y-9380193D01*
X83220195Y-9403809D01*
X83173758Y-9421665D01*
X83145179Y-9435898D01*
X83129784Y-9448646D01*
X83122897Y-9462045D01*
X83121221Y-9469455D01*
X83095408Y-9527254D01*
X83046306Y-9571920D01*
X82982243Y-9601149D01*
X82911546Y-9612640D01*
X82842542Y-9604092D01*
X82783560Y-9573204D01*
X82774768Y-9565211D01*
X82725687Y-9496898D01*
X82714579Y-9456755D01*
X82705107Y-9422525D01*
X82705807Y-9414549D01*
X82844475Y-9414549D01*
X82857470Y-9447877D01*
X82884163Y-9466339D01*
X82926722Y-9477469D01*
X82958494Y-9458842D01*
X82976711Y-9427710D01*
X82986072Y-9390064D01*
X82971012Y-9364847D01*
X82923395Y-9337438D01*
X82884993Y-9342140D01*
X82861017Y-9368761D01*
X82844475Y-9414549D01*
X82705807Y-9414549D01*
X82711578Y-9348798D01*
G04 #@! TD*
M02*
