G04 #@! TF.GenerationSoftware,KiCad,Pcbnew,(6.0.7)*
G04 #@! TF.CreationDate,2022-09-06T15:12:06+02:00*
G04 #@! TF.ProjectId,osprey_plate,6f737072-6579-45f7-906c-6174652e6b69,rev?*
G04 #@! TF.SameCoordinates,Original*
G04 #@! TF.FileFunction,Copper,L2,Bot*
G04 #@! TF.FilePolarity,Positive*
%FSLAX46Y46*%
G04 Gerber Fmt 4.6, Leading zero omitted, Abs format (unit mm)*
G04 Created by KiCad (PCBNEW (6.0.7)) date 2022-09-06 15:12:06*
%MOMM*%
%LPD*%
G01*
G04 APERTURE LIST*
G04 #@! TA.AperFunction,EtchedComponent*
%ADD10C,0.010000*%
G04 #@! TD*
G04 APERTURE END LIST*
G04 #@! TO.C,G2*
G36*
X82961306Y-6230443D02*
G01*
X83029815Y-6269702D01*
X83030896Y-6270634D01*
X83081345Y-6333716D01*
X83097434Y-6384999D01*
X83103918Y-6405662D01*
X83100144Y-6479618D01*
X83071553Y-6548729D01*
X83019676Y-6606139D01*
X82946042Y-6644996D01*
X82937469Y-6648629D01*
X82916808Y-6664810D01*
X82892680Y-6695187D01*
X82862470Y-6743809D01*
X82823558Y-6814718D01*
X82773330Y-6911959D01*
X82645081Y-7164475D01*
X81262153Y-7613816D01*
X80991097Y-8145413D01*
X80720042Y-8677010D01*
X80848774Y-9073208D01*
X80888372Y-9194590D01*
X80919381Y-9287956D01*
X80943320Y-9357041D01*
X80961712Y-9405585D01*
X80976079Y-9437321D01*
X80987942Y-9455988D01*
X80998824Y-9465322D01*
X81010245Y-9469060D01*
X81037124Y-9480001D01*
X81080851Y-9514498D01*
X81120648Y-9561346D01*
X81145778Y-9609142D01*
X81146107Y-9609767D01*
X81153942Y-9670236D01*
X81138874Y-9744821D01*
X81100689Y-9810590D01*
X81051191Y-9854836D01*
X80985204Y-9883158D01*
X80918163Y-9885853D01*
X80854838Y-9866430D01*
X80799996Y-9828400D01*
X80758403Y-9775270D01*
X80734827Y-9710552D01*
X80734592Y-9688844D01*
X80874505Y-9688844D01*
X80890439Y-9723935D01*
X80924817Y-9743411D01*
X80930228Y-9744369D01*
X80962284Y-9747057D01*
X80981365Y-9734959D01*
X81001129Y-9700375D01*
X81011751Y-9676995D01*
X81011914Y-9652637D01*
X80989205Y-9629576D01*
X80960848Y-9613049D01*
X80926640Y-9605815D01*
X80897359Y-9618004D01*
X80876863Y-9649685D01*
X80874505Y-9688844D01*
X80734592Y-9688844D01*
X80734038Y-9637755D01*
X80760801Y-9560388D01*
X80793812Y-9498893D01*
X80514383Y-8638900D01*
X80811967Y-8054512D01*
X81109553Y-7470124D01*
X82504980Y-7016723D01*
X82616930Y-6801306D01*
X82728881Y-6585890D01*
X82700943Y-6499909D01*
X82693502Y-6476041D01*
X82687333Y-6446020D01*
X82826176Y-6446020D01*
X82845667Y-6479942D01*
X82863907Y-6490867D01*
X82906105Y-6495598D01*
X82943943Y-6479704D01*
X82964268Y-6446851D01*
X82965575Y-6427843D01*
X82951230Y-6388092D01*
X82918286Y-6367262D01*
X82875403Y-6372589D01*
X82867531Y-6376624D01*
X82834382Y-6408267D01*
X82826176Y-6446020D01*
X82687333Y-6446020D01*
X82683776Y-6428710D01*
X82688560Y-6389991D01*
X82708638Y-6343996D01*
X82752211Y-6283372D01*
X82815560Y-6238884D01*
X82887573Y-6220706D01*
X82961306Y-6230443D01*
G37*
D10*
X82961306Y-6230443D02*
X83029815Y-6269702D01*
X83030896Y-6270634D01*
X83081345Y-6333716D01*
X83097434Y-6384999D01*
X83103918Y-6405662D01*
X83100144Y-6479618D01*
X83071553Y-6548729D01*
X83019676Y-6606139D01*
X82946042Y-6644996D01*
X82937469Y-6648629D01*
X82916808Y-6664810D01*
X82892680Y-6695187D01*
X82862470Y-6743809D01*
X82823558Y-6814718D01*
X82773330Y-6911959D01*
X82645081Y-7164475D01*
X81262153Y-7613816D01*
X80991097Y-8145413D01*
X80720042Y-8677010D01*
X80848774Y-9073208D01*
X80888372Y-9194590D01*
X80919381Y-9287956D01*
X80943320Y-9357041D01*
X80961712Y-9405585D01*
X80976079Y-9437321D01*
X80987942Y-9455988D01*
X80998824Y-9465322D01*
X81010245Y-9469060D01*
X81037124Y-9480001D01*
X81080851Y-9514498D01*
X81120648Y-9561346D01*
X81145778Y-9609142D01*
X81146107Y-9609767D01*
X81153942Y-9670236D01*
X81138874Y-9744821D01*
X81100689Y-9810590D01*
X81051191Y-9854836D01*
X80985204Y-9883158D01*
X80918163Y-9885853D01*
X80854838Y-9866430D01*
X80799996Y-9828400D01*
X80758403Y-9775270D01*
X80734827Y-9710552D01*
X80734592Y-9688844D01*
X80874505Y-9688844D01*
X80890439Y-9723935D01*
X80924817Y-9743411D01*
X80930228Y-9744369D01*
X80962284Y-9747057D01*
X80981365Y-9734959D01*
X81001129Y-9700375D01*
X81011751Y-9676995D01*
X81011914Y-9652637D01*
X80989205Y-9629576D01*
X80960848Y-9613049D01*
X80926640Y-9605815D01*
X80897359Y-9618004D01*
X80876863Y-9649685D01*
X80874505Y-9688844D01*
X80734592Y-9688844D01*
X80734038Y-9637755D01*
X80760801Y-9560388D01*
X80793812Y-9498893D01*
X80514383Y-8638900D01*
X80811967Y-8054512D01*
X81109553Y-7470124D01*
X82504980Y-7016723D01*
X82616930Y-6801306D01*
X82728881Y-6585890D01*
X82700943Y-6499909D01*
X82693502Y-6476041D01*
X82687333Y-6446020D01*
X82826176Y-6446020D01*
X82845667Y-6479942D01*
X82863907Y-6490867D01*
X82906105Y-6495598D01*
X82943943Y-6479704D01*
X82964268Y-6446851D01*
X82965575Y-6427843D01*
X82951230Y-6388092D01*
X82918286Y-6367262D01*
X82875403Y-6372589D01*
X82867531Y-6376624D01*
X82834382Y-6408267D01*
X82826176Y-6446020D01*
X82687333Y-6446020D01*
X82683776Y-6428710D01*
X82688560Y-6389991D01*
X82708638Y-6343996D01*
X82752211Y-6283372D01*
X82815560Y-6238884D01*
X82887573Y-6220706D01*
X82961306Y-6230443D01*
G36*
X83271253Y-5654292D02*
G01*
X83609122Y-5690813D01*
X83941457Y-5757925D01*
X84266266Y-5855138D01*
X84581556Y-5981963D01*
X84885336Y-6137908D01*
X85175613Y-6322481D01*
X85450396Y-6535194D01*
X85707693Y-6775555D01*
X85933318Y-7028961D01*
X86136649Y-7304700D01*
X86312005Y-7595032D01*
X86459181Y-7897816D01*
X86577967Y-8210906D01*
X86608323Y-8319038D01*
X86668157Y-8532159D01*
X86729543Y-8859430D01*
X86761917Y-9190577D01*
X86765073Y-9523453D01*
X86738802Y-9855919D01*
X86682898Y-10185827D01*
X86597152Y-10511035D01*
X86481358Y-10829398D01*
X86335307Y-11138773D01*
X86158793Y-11437016D01*
X86119194Y-11495931D01*
X85916190Y-11763015D01*
X85686708Y-12013643D01*
X85434417Y-12244677D01*
X85162991Y-12452976D01*
X84876100Y-12635405D01*
X84577415Y-12788823D01*
X84531658Y-12808674D01*
X84423582Y-12851091D01*
X84297734Y-12896191D01*
X84163809Y-12940800D01*
X84031504Y-12981744D01*
X83910514Y-13015845D01*
X83810537Y-13039932D01*
X83482263Y-13093852D01*
X83133618Y-13119528D01*
X82787419Y-13113145D01*
X82445639Y-13075306D01*
X82110245Y-13006613D01*
X81783210Y-12907668D01*
X81466505Y-12779074D01*
X81162098Y-12621431D01*
X80871963Y-12435342D01*
X80598067Y-12221410D01*
X80342383Y-11980235D01*
X80137787Y-11749678D01*
X79932512Y-11472162D01*
X79754440Y-11177838D01*
X79604336Y-10869085D01*
X79482965Y-10548274D01*
X79427473Y-10348657D01*
X79658807Y-10348657D01*
X79742584Y-10571816D01*
X79743700Y-10574785D01*
X79782070Y-10672795D01*
X79824615Y-10775157D01*
X79866233Y-10869916D01*
X79901826Y-10945116D01*
X79998279Y-11121711D01*
X80115159Y-11308112D01*
X80242683Y-11488436D01*
X80374624Y-11653894D01*
X80504751Y-11795700D01*
X80604268Y-11895144D01*
X80538676Y-11690568D01*
X80511531Y-11606810D01*
X80491367Y-11548866D01*
X80475469Y-11511635D01*
X80460963Y-11489512D01*
X80444979Y-11476895D01*
X80424642Y-11468181D01*
X80382752Y-11445723D01*
X80332740Y-11392082D01*
X80303339Y-11323084D01*
X80297723Y-11248248D01*
X80451293Y-11248248D01*
X80455090Y-11295422D01*
X80460556Y-11310316D01*
X80479403Y-11332949D01*
X80512662Y-11332793D01*
X80532330Y-11326497D01*
X80563631Y-11298913D01*
X80571947Y-11262333D01*
X80556844Y-11227410D01*
X80517888Y-11204794D01*
X80504408Y-11202803D01*
X80469575Y-11214716D01*
X80451293Y-11248248D01*
X80297723Y-11248248D01*
X80297658Y-11247387D01*
X80318809Y-11173646D01*
X80329473Y-11154971D01*
X80383073Y-11097595D01*
X80450392Y-11065006D01*
X80523844Y-11058257D01*
X80595846Y-11078400D01*
X80658815Y-11126487D01*
X80670161Y-11139768D01*
X80711537Y-11211125D01*
X80712199Y-11216763D01*
X80720209Y-11284991D01*
X80696746Y-11364936D01*
X80665983Y-11430760D01*
X80903037Y-12160337D01*
X81043341Y-12258669D01*
X81051803Y-12264540D01*
X81145054Y-12324121D01*
X81260327Y-12390828D01*
X81389297Y-12460415D01*
X81523636Y-12528641D01*
X81655014Y-12591262D01*
X81775105Y-12644034D01*
X81875581Y-12682717D01*
X81924572Y-12699288D01*
X81984948Y-12718828D01*
X82027943Y-12731641D01*
X82046486Y-12735540D01*
X82047345Y-12731979D01*
X82042387Y-12704414D01*
X82029355Y-12655774D01*
X82010122Y-12593394D01*
X81964874Y-12454134D01*
X81333438Y-12133064D01*
X80982013Y-11051490D01*
X80723918Y-10920375D01*
X80631982Y-10873912D01*
X80562160Y-10839794D01*
X80511627Y-10817509D01*
X80475108Y-10805306D01*
X80447333Y-10801430D01*
X80423027Y-10804128D01*
X80396922Y-10811648D01*
X80355346Y-10822141D01*
X80310473Y-10819915D01*
X80258086Y-10798405D01*
X80250834Y-10794588D01*
X80183162Y-10741798D01*
X80144575Y-10673644D01*
X80137741Y-10606850D01*
X80279820Y-10606850D01*
X80287465Y-10645351D01*
X80318652Y-10675431D01*
X80332533Y-10680283D01*
X80369349Y-10680043D01*
X80386401Y-10671428D01*
X80409347Y-10639190D01*
X80412007Y-10598893D01*
X80395220Y-10562650D01*
X80359823Y-10542574D01*
X80322371Y-10545842D01*
X80292520Y-10570243D01*
X80279820Y-10606850D01*
X80137741Y-10606850D01*
X80136231Y-10592093D01*
X80147869Y-10539257D01*
X80187139Y-10473966D01*
X80246803Y-10426979D01*
X80320097Y-10403040D01*
X80400256Y-10406894D01*
X80422938Y-10414176D01*
X80483863Y-10451944D01*
X80532106Y-10506851D01*
X80551350Y-10553617D01*
X80557416Y-10568362D01*
X80560197Y-10579144D01*
X80570398Y-10596639D01*
X80590997Y-10615938D01*
X80625931Y-10639597D01*
X80679133Y-10670168D01*
X80754541Y-10710210D01*
X80856086Y-10762274D01*
X81146922Y-10910111D01*
X81498335Y-11991649D01*
X81803521Y-12146805D01*
X82108706Y-12301963D01*
X82270542Y-12800045D01*
X82454409Y-12829785D01*
X82519078Y-12839959D01*
X82583109Y-12849361D01*
X82628296Y-12855200D01*
X82647580Y-12856502D01*
X82647808Y-12856167D01*
X82644087Y-12836565D01*
X82631267Y-12789790D01*
X82610573Y-12719906D01*
X82583233Y-12630978D01*
X82550475Y-12527075D01*
X82513523Y-12412259D01*
X82370162Y-11971039D01*
X82054444Y-11810504D01*
X81738727Y-11649969D01*
X81434001Y-10712122D01*
X80870815Y-10424981D01*
X80307630Y-10137842D01*
X79658807Y-10348657D01*
X79427473Y-10348657D01*
X79391092Y-10217784D01*
X79329479Y-9879991D01*
X79298894Y-9537267D01*
X79299854Y-9262142D01*
X79540464Y-9262142D01*
X79543664Y-9602749D01*
X79545586Y-9632910D01*
X79553506Y-9726039D01*
X79564199Y-9823039D01*
X79576727Y-9917714D01*
X79590153Y-10003869D01*
X79603537Y-10075309D01*
X79615942Y-10125841D01*
X79626430Y-10149269D01*
X79628683Y-10149939D01*
X79656052Y-10146055D01*
X79710105Y-10132697D01*
X79786924Y-10110961D01*
X79882592Y-10081942D01*
X79993191Y-10046733D01*
X80345767Y-9932174D01*
X80972263Y-10251226D01*
X81598759Y-10570277D01*
X81903623Y-11508554D01*
X82513446Y-11818588D01*
X82545321Y-11914126D01*
X82867421Y-12879564D01*
X83003977Y-12879503D01*
X83140533Y-12879440D01*
X83261317Y-12643219D01*
X83382102Y-12406996D01*
X84537819Y-12031480D01*
X84783657Y-12031480D01*
X84795234Y-12067067D01*
X84826581Y-12090412D01*
X84849538Y-12096669D01*
X84871529Y-12098756D01*
X84881717Y-12090865D01*
X84902987Y-12065586D01*
X84907756Y-12057595D01*
X84911992Y-12017435D01*
X84892856Y-11979300D01*
X84856001Y-11956336D01*
X84844870Y-11954574D01*
X84810740Y-11964906D01*
X84789581Y-11993985D01*
X84783657Y-12031480D01*
X84537819Y-12031480D01*
X84617380Y-12005629D01*
X84660876Y-11930000D01*
X84693302Y-11881003D01*
X84727702Y-11851388D01*
X84776632Y-11830891D01*
X84793147Y-11826108D01*
X84851885Y-11815884D01*
X84901156Y-11816013D01*
X84920839Y-11821379D01*
X84974476Y-11852420D01*
X85022335Y-11899377D01*
X85051969Y-11951102D01*
X85056719Y-11970411D01*
X85058458Y-11977480D01*
X85056905Y-12054752D01*
X85029104Y-12127829D01*
X84979565Y-12187805D01*
X84912801Y-12225778D01*
X84865323Y-12233504D01*
X84805084Y-12230049D01*
X84750556Y-12215920D01*
X84715302Y-12193343D01*
X84708333Y-12189243D01*
X84693083Y-12188471D01*
X84666983Y-12192410D01*
X84627056Y-12201899D01*
X84570321Y-12217776D01*
X84493799Y-12240877D01*
X84394511Y-12272040D01*
X84269478Y-12312103D01*
X84115720Y-12361903D01*
X83532967Y-12551251D01*
X83454418Y-12706698D01*
X83422584Y-12769287D01*
X83401407Y-12815785D01*
X83396604Y-12844316D01*
X83411538Y-12857676D01*
X83449568Y-12858660D01*
X83514057Y-12850061D01*
X83608366Y-12834674D01*
X83642149Y-12828563D01*
X83722730Y-12811111D01*
X83819457Y-12787564D01*
X83925372Y-12759866D01*
X84033515Y-12729966D01*
X84136931Y-12699812D01*
X84228661Y-12671352D01*
X84301745Y-12646532D01*
X84349229Y-12627301D01*
X84362409Y-12620974D01*
X84408530Y-12599321D01*
X84470957Y-12570383D01*
X84540051Y-12538636D01*
X84571830Y-12523632D01*
X84691958Y-12460626D01*
X84824739Y-12383062D01*
X84960700Y-12296879D01*
X85090367Y-12208015D01*
X85204267Y-12122404D01*
X85261622Y-12075667D01*
X85509176Y-11848359D01*
X85731988Y-11600364D01*
X85929192Y-11333924D01*
X86099927Y-11051279D01*
X86243327Y-10754672D01*
X86358531Y-10446341D01*
X86444676Y-10128529D01*
X86500897Y-9803477D01*
X86526332Y-9473425D01*
X86520116Y-9140615D01*
X86481388Y-8807286D01*
X86477390Y-8782893D01*
X86463291Y-8695458D01*
X86451069Y-8635980D01*
X86435966Y-8600754D01*
X86413224Y-8586072D01*
X86378088Y-8588227D01*
X86325798Y-8603513D01*
X86251598Y-8628220D01*
X86072380Y-8686451D01*
X86000517Y-8828844D01*
X85928653Y-8971235D01*
X86038305Y-9308711D01*
X86061276Y-9379265D01*
X86092606Y-9474256D01*
X86116632Y-9544113D01*
X86135147Y-9593028D01*
X86149944Y-9625191D01*
X86162820Y-9644798D01*
X86175568Y-9656040D01*
X86189981Y-9663109D01*
X86235799Y-9688403D01*
X86289647Y-9742921D01*
X86322765Y-9808675D01*
X86323646Y-9810423D01*
X86335693Y-9883202D01*
X86323689Y-9953548D01*
X86285533Y-10013750D01*
X86274249Y-10024107D01*
X86214461Y-10060241D01*
X86145283Y-10081523D01*
X86082271Y-10082677D01*
X86038296Y-10068335D01*
X85978553Y-10024817D01*
X85937548Y-9963266D01*
X85918161Y-9891323D01*
X85918402Y-9887792D01*
X86058683Y-9887792D01*
X86064242Y-9909771D01*
X86090728Y-9928445D01*
X86120935Y-9941323D01*
X86149561Y-9944020D01*
X86175410Y-9921986D01*
X86194168Y-9884460D01*
X86196512Y-9849697D01*
X86174918Y-9823356D01*
X86136922Y-9803919D01*
X86100989Y-9801667D01*
X86081664Y-9820556D01*
X86065393Y-9857610D01*
X86058683Y-9887792D01*
X85918402Y-9887792D01*
X85923269Y-9816631D01*
X85955753Y-9746831D01*
X85960676Y-9738372D01*
X85964028Y-9723498D01*
X85962771Y-9700888D01*
X85955912Y-9666546D01*
X85942457Y-9616480D01*
X85921415Y-9546693D01*
X85891790Y-9453189D01*
X85852588Y-9331974D01*
X85727561Y-8947180D01*
X85937537Y-8536990D01*
X86394804Y-8388415D01*
X86312189Y-8170165D01*
X86303073Y-8146227D01*
X86272318Y-8067590D01*
X86245128Y-8001136D01*
X86224169Y-7953255D01*
X86212109Y-7930339D01*
X86209119Y-7927406D01*
X86196239Y-7922973D01*
X86172911Y-7924320D01*
X86134904Y-7932469D01*
X86077988Y-7948439D01*
X85997933Y-7973250D01*
X85890510Y-8007925D01*
X85586376Y-8107084D01*
X85273582Y-8685580D01*
X85874330Y-10534493D01*
X85630081Y-11013440D01*
X85430898Y-11404015D01*
X85385832Y-11492387D01*
X83610682Y-12069168D01*
X83592870Y-12117609D01*
X83586942Y-12131095D01*
X83545948Y-12183752D01*
X83487514Y-12225389D01*
X83424454Y-12246221D01*
X83365814Y-12246398D01*
X83293461Y-12221206D01*
X83231075Y-12164728D01*
X83212552Y-12141165D01*
X83191964Y-12107444D01*
X83184683Y-12072709D01*
X83184967Y-12056871D01*
X83331979Y-12056871D01*
X83358473Y-12090463D01*
X83374535Y-12097075D01*
X83413175Y-12096869D01*
X83447439Y-12081861D01*
X83463038Y-12056670D01*
X83462748Y-12043506D01*
X83447442Y-12002490D01*
X83416845Y-11976302D01*
X83380276Y-11970310D01*
X83347054Y-11989879D01*
X83332947Y-12014388D01*
X83331979Y-12056871D01*
X83184967Y-12056871D01*
X83185613Y-12020829D01*
X83191911Y-11968189D01*
X83211024Y-11925694D01*
X83250715Y-11883850D01*
X83263677Y-11872792D01*
X83337806Y-11830261D01*
X83414169Y-11821062D01*
X83492912Y-11845169D01*
X83554534Y-11876565D01*
X85260862Y-11322145D01*
X85662780Y-10532323D01*
X85057316Y-8668897D01*
X85251736Y-8313793D01*
X85446157Y-7958688D01*
X86109456Y-7743169D01*
X86097736Y-7707444D01*
X86095865Y-7702344D01*
X86075145Y-7661073D01*
X86039135Y-7600170D01*
X85991808Y-7525632D01*
X85937140Y-7443457D01*
X85879104Y-7359642D01*
X85821676Y-7280188D01*
X85768830Y-7211089D01*
X85732923Y-7166929D01*
X85613201Y-7030723D01*
X85481310Y-6894541D01*
X85344671Y-6765496D01*
X85210698Y-6650699D01*
X85086811Y-6557261D01*
X85009801Y-6504064D01*
X84874074Y-6771177D01*
X84830290Y-6857814D01*
X84794058Y-6931715D01*
X84769916Y-6985549D01*
X84756094Y-7024388D01*
X84750824Y-7053306D01*
X84752339Y-7077373D01*
X84758870Y-7101660D01*
X84761121Y-7110676D01*
X84766028Y-7130320D01*
X84765729Y-7210371D01*
X84738814Y-7284612D01*
X84689225Y-7344988D01*
X84620904Y-7383446D01*
X84599787Y-7388244D01*
X84535927Y-7387454D01*
X84471542Y-7370480D01*
X84422969Y-7340840D01*
X84399940Y-7313675D01*
X84365283Y-7244399D01*
X84352228Y-7169243D01*
X84352313Y-7168739D01*
X84489743Y-7168739D01*
X84494620Y-7205876D01*
X84524795Y-7235455D01*
X84527611Y-7236795D01*
X84569344Y-7240720D01*
X84607782Y-7222624D01*
X84628492Y-7188978D01*
X84627715Y-7154022D01*
X84603809Y-7121430D01*
X84558020Y-7111851D01*
X84544586Y-7113809D01*
X84507339Y-7134549D01*
X84489743Y-7168739D01*
X84352313Y-7168739D01*
X84363805Y-7100523D01*
X84385548Y-7061150D01*
X84427256Y-7013741D01*
X84474527Y-6979931D01*
X84517615Y-6968114D01*
X84519130Y-6968065D01*
X84535869Y-6956935D01*
X84560386Y-6924907D01*
X84594156Y-6869585D01*
X84638658Y-6788570D01*
X84695368Y-6679463D01*
X84843581Y-6389267D01*
X84680589Y-6305613D01*
X84517596Y-6221960D01*
X84294710Y-6658940D01*
X84071822Y-7095922D01*
X84531382Y-8510301D01*
X84713886Y-8152691D01*
X84722590Y-8135633D01*
X84777913Y-8026745D01*
X84819710Y-7942834D01*
X84849575Y-7879743D01*
X84869103Y-7833324D01*
X84879889Y-7799422D01*
X84883526Y-7773889D01*
X84881611Y-7752570D01*
X84875736Y-7731316D01*
X84864397Y-7667775D01*
X84866965Y-7649273D01*
X85005016Y-7649273D01*
X85005124Y-7673463D01*
X85027535Y-7696266D01*
X85028262Y-7696840D01*
X85072083Y-7716577D01*
X85112770Y-7711266D01*
X85139458Y-7682267D01*
X85144425Y-7652582D01*
X85126514Y-7614877D01*
X85081548Y-7590387D01*
X85057922Y-7585411D01*
X85036067Y-7592721D01*
X85016473Y-7623898D01*
X85005016Y-7649273D01*
X84866965Y-7649273D01*
X84875113Y-7590555D01*
X84910046Y-7523737D01*
X84964558Y-7472956D01*
X85034014Y-7443844D01*
X85113780Y-7442034D01*
X85181007Y-7465924D01*
X85233432Y-7516296D01*
X85270690Y-7595148D01*
X85275360Y-7609920D01*
X85275383Y-7610031D01*
X85286282Y-7659437D01*
X85281778Y-7699850D01*
X85260729Y-7748352D01*
X85259282Y-7751178D01*
X85231193Y-7797155D01*
X85198506Y-7824419D01*
X85147032Y-7845034D01*
X85069815Y-7870123D01*
X84616682Y-8764102D01*
X85086254Y-10285828D01*
X84980471Y-10492476D01*
X84975702Y-10501808D01*
X84934100Y-10585225D01*
X84907020Y-10644985D01*
X84892695Y-10686046D01*
X84889362Y-10713371D01*
X84895253Y-10731919D01*
X84904215Y-10750193D01*
X84911382Y-10792144D01*
X84914745Y-10811831D01*
X84906516Y-10881178D01*
X84880487Y-10944404D01*
X84862062Y-10970176D01*
X84823869Y-11002001D01*
X84765895Y-11026138D01*
X84757181Y-11028923D01*
X84705811Y-11040942D01*
X84664639Y-11037161D01*
X84616131Y-11016445D01*
X84605654Y-11010748D01*
X84553453Y-10971886D01*
X84517551Y-10928323D01*
X84497303Y-10871726D01*
X84497150Y-10827967D01*
X84637072Y-10827967D01*
X84645923Y-10864617D01*
X84676697Y-10893471D01*
X84690578Y-10898324D01*
X84727393Y-10898084D01*
X84761915Y-10873799D01*
X84772615Y-10837232D01*
X84759223Y-10798958D01*
X84722161Y-10769328D01*
X84707897Y-10764529D01*
X84671477Y-10768594D01*
X84646729Y-10792849D01*
X84637072Y-10827967D01*
X84497150Y-10827967D01*
X84497038Y-10796047D01*
X84522815Y-10724796D01*
X84571338Y-10666096D01*
X84639313Y-10628070D01*
X84643949Y-10626493D01*
X84668631Y-10614415D01*
X84691457Y-10593747D01*
X84716437Y-10559071D01*
X84747582Y-10504969D01*
X84788903Y-10426025D01*
X84883202Y-10242009D01*
X84720446Y-9741055D01*
X84717092Y-9730725D01*
X84681823Y-9621514D01*
X84638112Y-9485330D01*
X84587370Y-9326594D01*
X84530998Y-9149728D01*
X84470405Y-8959155D01*
X84406997Y-8759294D01*
X84342180Y-8554570D01*
X84277359Y-8349402D01*
X84213940Y-8148214D01*
X83870189Y-7056327D01*
X84100918Y-6599376D01*
X84156247Y-6488827D01*
X84215929Y-6366568D01*
X84261869Y-6268494D01*
X84293489Y-6195886D01*
X84310211Y-6150027D01*
X84311457Y-6132199D01*
X84299961Y-6127356D01*
X84260566Y-6112602D01*
X84202302Y-6091762D01*
X84133066Y-6067690D01*
X83974864Y-6013409D01*
X83201671Y-7527266D01*
X81762073Y-8017588D01*
X81571002Y-8389390D01*
X81379931Y-8761190D01*
X81553022Y-9293909D01*
X81583984Y-9389122D01*
X81625061Y-9514814D01*
X81657936Y-9613971D01*
X81683865Y-9689820D01*
X81704100Y-9745583D01*
X81719895Y-9784487D01*
X81732504Y-9809756D01*
X81743180Y-9824615D01*
X81753176Y-9832288D01*
X81763747Y-9836003D01*
X81774423Y-9839117D01*
X81832464Y-9874258D01*
X81875819Y-9930699D01*
X81897594Y-9990250D01*
X81900978Y-9999508D01*
X81904431Y-10071754D01*
X81882664Y-10138507D01*
X81874055Y-10152368D01*
X81819784Y-10210909D01*
X81756865Y-10242678D01*
X81690478Y-10250385D01*
X81625795Y-10236738D01*
X81567996Y-10204448D01*
X81522256Y-10156222D01*
X81493753Y-10094770D01*
X81490091Y-10051494D01*
X81625649Y-10051494D01*
X81645141Y-10085416D01*
X81663381Y-10096340D01*
X81705579Y-10101072D01*
X81743417Y-10085177D01*
X81763742Y-10052326D01*
X81765049Y-10033316D01*
X81750704Y-9993566D01*
X81717760Y-9972735D01*
X81674877Y-9978063D01*
X81667005Y-9982098D01*
X81633855Y-10013740D01*
X81625649Y-10051494D01*
X81490091Y-10051494D01*
X81487663Y-10022803D01*
X81509161Y-9943029D01*
X81544781Y-9863386D01*
X81174326Y-8723244D01*
X81396762Y-8286230D01*
X81619199Y-7849215D01*
X83049999Y-7384320D01*
X83406615Y-6684133D01*
X83475589Y-6548345D01*
X83542747Y-6415382D01*
X83603486Y-6294362D01*
X83656336Y-6188252D01*
X83699825Y-6100019D01*
X83732483Y-6032629D01*
X83752842Y-5989049D01*
X83759429Y-5972246D01*
X83758273Y-5970765D01*
X83734308Y-5962009D01*
X83684404Y-5951297D01*
X83614656Y-5939464D01*
X83531159Y-5927350D01*
X83440008Y-5915792D01*
X83347299Y-5905627D01*
X83259127Y-5897693D01*
X83181588Y-5892829D01*
X83002487Y-5888893D01*
X82738639Y-5899357D01*
X82482297Y-5931127D01*
X82223711Y-5985560D01*
X81953131Y-6064016D01*
X81778617Y-6124630D01*
X81530015Y-6227668D01*
X81299616Y-6346084D01*
X81078729Y-6484513D01*
X80858666Y-6647586D01*
X80848003Y-6656097D01*
X80595041Y-6879862D01*
X80366840Y-7124928D01*
X80164325Y-7389217D01*
X79988420Y-7670647D01*
X79840054Y-7967142D01*
X79720148Y-8276617D01*
X79629632Y-8596996D01*
X79569428Y-8926198D01*
X79540464Y-9262142D01*
X79299854Y-9262142D01*
X79300099Y-9191991D01*
X79333860Y-8846539D01*
X79337957Y-8819145D01*
X79407254Y-8474341D01*
X79506847Y-8141750D01*
X79635412Y-7822939D01*
X79791625Y-7519475D01*
X79974162Y-7232926D01*
X80181702Y-6964860D01*
X80412921Y-6716846D01*
X80666495Y-6490450D01*
X80941101Y-6287241D01*
X81235415Y-6108786D01*
X81548115Y-5956654D01*
X81877878Y-5832411D01*
X81904275Y-5823940D01*
X82244360Y-5733188D01*
X82586880Y-5674989D01*
X82929841Y-5648854D01*
X83271253Y-5654292D01*
G37*
X83271253Y-5654292D02*
X83609122Y-5690813D01*
X83941457Y-5757925D01*
X84266266Y-5855138D01*
X84581556Y-5981963D01*
X84885336Y-6137908D01*
X85175613Y-6322481D01*
X85450396Y-6535194D01*
X85707693Y-6775555D01*
X85933318Y-7028961D01*
X86136649Y-7304700D01*
X86312005Y-7595032D01*
X86459181Y-7897816D01*
X86577967Y-8210906D01*
X86608323Y-8319038D01*
X86668157Y-8532159D01*
X86729543Y-8859430D01*
X86761917Y-9190577D01*
X86765073Y-9523453D01*
X86738802Y-9855919D01*
X86682898Y-10185827D01*
X86597152Y-10511035D01*
X86481358Y-10829398D01*
X86335307Y-11138773D01*
X86158793Y-11437016D01*
X86119194Y-11495931D01*
X85916190Y-11763015D01*
X85686708Y-12013643D01*
X85434417Y-12244677D01*
X85162991Y-12452976D01*
X84876100Y-12635405D01*
X84577415Y-12788823D01*
X84531658Y-12808674D01*
X84423582Y-12851091D01*
X84297734Y-12896191D01*
X84163809Y-12940800D01*
X84031504Y-12981744D01*
X83910514Y-13015845D01*
X83810537Y-13039932D01*
X83482263Y-13093852D01*
X83133618Y-13119528D01*
X82787419Y-13113145D01*
X82445639Y-13075306D01*
X82110245Y-13006613D01*
X81783210Y-12907668D01*
X81466505Y-12779074D01*
X81162098Y-12621431D01*
X80871963Y-12435342D01*
X80598067Y-12221410D01*
X80342383Y-11980235D01*
X80137787Y-11749678D01*
X79932512Y-11472162D01*
X79754440Y-11177838D01*
X79604336Y-10869085D01*
X79482965Y-10548274D01*
X79427473Y-10348657D01*
X79658807Y-10348657D01*
X79742584Y-10571816D01*
X79743700Y-10574785D01*
X79782070Y-10672795D01*
X79824615Y-10775157D01*
X79866233Y-10869916D01*
X79901826Y-10945116D01*
X79998279Y-11121711D01*
X80115159Y-11308112D01*
X80242683Y-11488436D01*
X80374624Y-11653894D01*
X80504751Y-11795700D01*
X80604268Y-11895144D01*
X80538676Y-11690568D01*
X80511531Y-11606810D01*
X80491367Y-11548866D01*
X80475469Y-11511635D01*
X80460963Y-11489512D01*
X80444979Y-11476895D01*
X80424642Y-11468181D01*
X80382752Y-11445723D01*
X80332740Y-11392082D01*
X80303339Y-11323084D01*
X80297723Y-11248248D01*
X80451293Y-11248248D01*
X80455090Y-11295422D01*
X80460556Y-11310316D01*
X80479403Y-11332949D01*
X80512662Y-11332793D01*
X80532330Y-11326497D01*
X80563631Y-11298913D01*
X80571947Y-11262333D01*
X80556844Y-11227410D01*
X80517888Y-11204794D01*
X80504408Y-11202803D01*
X80469575Y-11214716D01*
X80451293Y-11248248D01*
X80297723Y-11248248D01*
X80297658Y-11247387D01*
X80318809Y-11173646D01*
X80329473Y-11154971D01*
X80383073Y-11097595D01*
X80450392Y-11065006D01*
X80523844Y-11058257D01*
X80595846Y-11078400D01*
X80658815Y-11126487D01*
X80670161Y-11139768D01*
X80711537Y-11211125D01*
X80712199Y-11216763D01*
X80720209Y-11284991D01*
X80696746Y-11364936D01*
X80665983Y-11430760D01*
X80903037Y-12160337D01*
X81043341Y-12258669D01*
X81051803Y-12264540D01*
X81145054Y-12324121D01*
X81260327Y-12390828D01*
X81389297Y-12460415D01*
X81523636Y-12528641D01*
X81655014Y-12591262D01*
X81775105Y-12644034D01*
X81875581Y-12682717D01*
X81924572Y-12699288D01*
X81984948Y-12718828D01*
X82027943Y-12731641D01*
X82046486Y-12735540D01*
X82047345Y-12731979D01*
X82042387Y-12704414D01*
X82029355Y-12655774D01*
X82010122Y-12593394D01*
X81964874Y-12454134D01*
X81333438Y-12133064D01*
X80982013Y-11051490D01*
X80723918Y-10920375D01*
X80631982Y-10873912D01*
X80562160Y-10839794D01*
X80511627Y-10817509D01*
X80475108Y-10805306D01*
X80447333Y-10801430D01*
X80423027Y-10804128D01*
X80396922Y-10811648D01*
X80355346Y-10822141D01*
X80310473Y-10819915D01*
X80258086Y-10798405D01*
X80250834Y-10794588D01*
X80183162Y-10741798D01*
X80144575Y-10673644D01*
X80137741Y-10606850D01*
X80279820Y-10606850D01*
X80287465Y-10645351D01*
X80318652Y-10675431D01*
X80332533Y-10680283D01*
X80369349Y-10680043D01*
X80386401Y-10671428D01*
X80409347Y-10639190D01*
X80412007Y-10598893D01*
X80395220Y-10562650D01*
X80359823Y-10542574D01*
X80322371Y-10545842D01*
X80292520Y-10570243D01*
X80279820Y-10606850D01*
X80137741Y-10606850D01*
X80136231Y-10592093D01*
X80147869Y-10539257D01*
X80187139Y-10473966D01*
X80246803Y-10426979D01*
X80320097Y-10403040D01*
X80400256Y-10406894D01*
X80422938Y-10414176D01*
X80483863Y-10451944D01*
X80532106Y-10506851D01*
X80551350Y-10553617D01*
X80557416Y-10568362D01*
X80560197Y-10579144D01*
X80570398Y-10596639D01*
X80590997Y-10615938D01*
X80625931Y-10639597D01*
X80679133Y-10670168D01*
X80754541Y-10710210D01*
X80856086Y-10762274D01*
X81146922Y-10910111D01*
X81498335Y-11991649D01*
X81803521Y-12146805D01*
X82108706Y-12301963D01*
X82270542Y-12800045D01*
X82454409Y-12829785D01*
X82519078Y-12839959D01*
X82583109Y-12849361D01*
X82628296Y-12855200D01*
X82647580Y-12856502D01*
X82647808Y-12856167D01*
X82644087Y-12836565D01*
X82631267Y-12789790D01*
X82610573Y-12719906D01*
X82583233Y-12630978D01*
X82550475Y-12527075D01*
X82513523Y-12412259D01*
X82370162Y-11971039D01*
X82054444Y-11810504D01*
X81738727Y-11649969D01*
X81434001Y-10712122D01*
X80870815Y-10424981D01*
X80307630Y-10137842D01*
X79658807Y-10348657D01*
X79427473Y-10348657D01*
X79391092Y-10217784D01*
X79329479Y-9879991D01*
X79298894Y-9537267D01*
X79299854Y-9262142D01*
X79540464Y-9262142D01*
X79543664Y-9602749D01*
X79545586Y-9632910D01*
X79553506Y-9726039D01*
X79564199Y-9823039D01*
X79576727Y-9917714D01*
X79590153Y-10003869D01*
X79603537Y-10075309D01*
X79615942Y-10125841D01*
X79626430Y-10149269D01*
X79628683Y-10149939D01*
X79656052Y-10146055D01*
X79710105Y-10132697D01*
X79786924Y-10110961D01*
X79882592Y-10081942D01*
X79993191Y-10046733D01*
X80345767Y-9932174D01*
X80972263Y-10251226D01*
X81598759Y-10570277D01*
X81903623Y-11508554D01*
X82513446Y-11818588D01*
X82545321Y-11914126D01*
X82867421Y-12879564D01*
X83003977Y-12879503D01*
X83140533Y-12879440D01*
X83261317Y-12643219D01*
X83382102Y-12406996D01*
X84537819Y-12031480D01*
X84783657Y-12031480D01*
X84795234Y-12067067D01*
X84826581Y-12090412D01*
X84849538Y-12096669D01*
X84871529Y-12098756D01*
X84881717Y-12090865D01*
X84902987Y-12065586D01*
X84907756Y-12057595D01*
X84911992Y-12017435D01*
X84892856Y-11979300D01*
X84856001Y-11956336D01*
X84844870Y-11954574D01*
X84810740Y-11964906D01*
X84789581Y-11993985D01*
X84783657Y-12031480D01*
X84537819Y-12031480D01*
X84617380Y-12005629D01*
X84660876Y-11930000D01*
X84693302Y-11881003D01*
X84727702Y-11851388D01*
X84776632Y-11830891D01*
X84793147Y-11826108D01*
X84851885Y-11815884D01*
X84901156Y-11816013D01*
X84920839Y-11821379D01*
X84974476Y-11852420D01*
X85022335Y-11899377D01*
X85051969Y-11951102D01*
X85056719Y-11970411D01*
X85058458Y-11977480D01*
X85056905Y-12054752D01*
X85029104Y-12127829D01*
X84979565Y-12187805D01*
X84912801Y-12225778D01*
X84865323Y-12233504D01*
X84805084Y-12230049D01*
X84750556Y-12215920D01*
X84715302Y-12193343D01*
X84708333Y-12189243D01*
X84693083Y-12188471D01*
X84666983Y-12192410D01*
X84627056Y-12201899D01*
X84570321Y-12217776D01*
X84493799Y-12240877D01*
X84394511Y-12272040D01*
X84269478Y-12312103D01*
X84115720Y-12361903D01*
X83532967Y-12551251D01*
X83454418Y-12706698D01*
X83422584Y-12769287D01*
X83401407Y-12815785D01*
X83396604Y-12844316D01*
X83411538Y-12857676D01*
X83449568Y-12858660D01*
X83514057Y-12850061D01*
X83608366Y-12834674D01*
X83642149Y-12828563D01*
X83722730Y-12811111D01*
X83819457Y-12787564D01*
X83925372Y-12759866D01*
X84033515Y-12729966D01*
X84136931Y-12699812D01*
X84228661Y-12671352D01*
X84301745Y-12646532D01*
X84349229Y-12627301D01*
X84362409Y-12620974D01*
X84408530Y-12599321D01*
X84470957Y-12570383D01*
X84540051Y-12538636D01*
X84571830Y-12523632D01*
X84691958Y-12460626D01*
X84824739Y-12383062D01*
X84960700Y-12296879D01*
X85090367Y-12208015D01*
X85204267Y-12122404D01*
X85261622Y-12075667D01*
X85509176Y-11848359D01*
X85731988Y-11600364D01*
X85929192Y-11333924D01*
X86099927Y-11051279D01*
X86243327Y-10754672D01*
X86358531Y-10446341D01*
X86444676Y-10128529D01*
X86500897Y-9803477D01*
X86526332Y-9473425D01*
X86520116Y-9140615D01*
X86481388Y-8807286D01*
X86477390Y-8782893D01*
X86463291Y-8695458D01*
X86451069Y-8635980D01*
X86435966Y-8600754D01*
X86413224Y-8586072D01*
X86378088Y-8588227D01*
X86325798Y-8603513D01*
X86251598Y-8628220D01*
X86072380Y-8686451D01*
X86000517Y-8828844D01*
X85928653Y-8971235D01*
X86038305Y-9308711D01*
X86061276Y-9379265D01*
X86092606Y-9474256D01*
X86116632Y-9544113D01*
X86135147Y-9593028D01*
X86149944Y-9625191D01*
X86162820Y-9644798D01*
X86175568Y-9656040D01*
X86189981Y-9663109D01*
X86235799Y-9688403D01*
X86289647Y-9742921D01*
X86322765Y-9808675D01*
X86323646Y-9810423D01*
X86335693Y-9883202D01*
X86323689Y-9953548D01*
X86285533Y-10013750D01*
X86274249Y-10024107D01*
X86214461Y-10060241D01*
X86145283Y-10081523D01*
X86082271Y-10082677D01*
X86038296Y-10068335D01*
X85978553Y-10024817D01*
X85937548Y-9963266D01*
X85918161Y-9891323D01*
X85918402Y-9887792D01*
X86058683Y-9887792D01*
X86064242Y-9909771D01*
X86090728Y-9928445D01*
X86120935Y-9941323D01*
X86149561Y-9944020D01*
X86175410Y-9921986D01*
X86194168Y-9884460D01*
X86196512Y-9849697D01*
X86174918Y-9823356D01*
X86136922Y-9803919D01*
X86100989Y-9801667D01*
X86081664Y-9820556D01*
X86065393Y-9857610D01*
X86058683Y-9887792D01*
X85918402Y-9887792D01*
X85923269Y-9816631D01*
X85955753Y-9746831D01*
X85960676Y-9738372D01*
X85964028Y-9723498D01*
X85962771Y-9700888D01*
X85955912Y-9666546D01*
X85942457Y-9616480D01*
X85921415Y-9546693D01*
X85891790Y-9453189D01*
X85852588Y-9331974D01*
X85727561Y-8947180D01*
X85937537Y-8536990D01*
X86394804Y-8388415D01*
X86312189Y-8170165D01*
X86303073Y-8146227D01*
X86272318Y-8067590D01*
X86245128Y-8001136D01*
X86224169Y-7953255D01*
X86212109Y-7930339D01*
X86209119Y-7927406D01*
X86196239Y-7922973D01*
X86172911Y-7924320D01*
X86134904Y-7932469D01*
X86077988Y-7948439D01*
X85997933Y-7973250D01*
X85890510Y-8007925D01*
X85586376Y-8107084D01*
X85273582Y-8685580D01*
X85874330Y-10534493D01*
X85630081Y-11013440D01*
X85430898Y-11404015D01*
X85385832Y-11492387D01*
X83610682Y-12069168D01*
X83592870Y-12117609D01*
X83586942Y-12131095D01*
X83545948Y-12183752D01*
X83487514Y-12225389D01*
X83424454Y-12246221D01*
X83365814Y-12246398D01*
X83293461Y-12221206D01*
X83231075Y-12164728D01*
X83212552Y-12141165D01*
X83191964Y-12107444D01*
X83184683Y-12072709D01*
X83184967Y-12056871D01*
X83331979Y-12056871D01*
X83358473Y-12090463D01*
X83374535Y-12097075D01*
X83413175Y-12096869D01*
X83447439Y-12081861D01*
X83463038Y-12056670D01*
X83462748Y-12043506D01*
X83447442Y-12002490D01*
X83416845Y-11976302D01*
X83380276Y-11970310D01*
X83347054Y-11989879D01*
X83332947Y-12014388D01*
X83331979Y-12056871D01*
X83184967Y-12056871D01*
X83185613Y-12020829D01*
X83191911Y-11968189D01*
X83211024Y-11925694D01*
X83250715Y-11883850D01*
X83263677Y-11872792D01*
X83337806Y-11830261D01*
X83414169Y-11821062D01*
X83492912Y-11845169D01*
X83554534Y-11876565D01*
X85260862Y-11322145D01*
X85662780Y-10532323D01*
X85057316Y-8668897D01*
X85251736Y-8313793D01*
X85446157Y-7958688D01*
X86109456Y-7743169D01*
X86097736Y-7707444D01*
X86095865Y-7702344D01*
X86075145Y-7661073D01*
X86039135Y-7600170D01*
X85991808Y-7525632D01*
X85937140Y-7443457D01*
X85879104Y-7359642D01*
X85821676Y-7280188D01*
X85768830Y-7211089D01*
X85732923Y-7166929D01*
X85613201Y-7030723D01*
X85481310Y-6894541D01*
X85344671Y-6765496D01*
X85210698Y-6650699D01*
X85086811Y-6557261D01*
X85009801Y-6504064D01*
X84874074Y-6771177D01*
X84830290Y-6857814D01*
X84794058Y-6931715D01*
X84769916Y-6985549D01*
X84756094Y-7024388D01*
X84750824Y-7053306D01*
X84752339Y-7077373D01*
X84758870Y-7101660D01*
X84761121Y-7110676D01*
X84766028Y-7130320D01*
X84765729Y-7210371D01*
X84738814Y-7284612D01*
X84689225Y-7344988D01*
X84620904Y-7383446D01*
X84599787Y-7388244D01*
X84535927Y-7387454D01*
X84471542Y-7370480D01*
X84422969Y-7340840D01*
X84399940Y-7313675D01*
X84365283Y-7244399D01*
X84352228Y-7169243D01*
X84352313Y-7168739D01*
X84489743Y-7168739D01*
X84494620Y-7205876D01*
X84524795Y-7235455D01*
X84527611Y-7236795D01*
X84569344Y-7240720D01*
X84607782Y-7222624D01*
X84628492Y-7188978D01*
X84627715Y-7154022D01*
X84603809Y-7121430D01*
X84558020Y-7111851D01*
X84544586Y-7113809D01*
X84507339Y-7134549D01*
X84489743Y-7168739D01*
X84352313Y-7168739D01*
X84363805Y-7100523D01*
X84385548Y-7061150D01*
X84427256Y-7013741D01*
X84474527Y-6979931D01*
X84517615Y-6968114D01*
X84519130Y-6968065D01*
X84535869Y-6956935D01*
X84560386Y-6924907D01*
X84594156Y-6869585D01*
X84638658Y-6788570D01*
X84695368Y-6679463D01*
X84843581Y-6389267D01*
X84680589Y-6305613D01*
X84517596Y-6221960D01*
X84294710Y-6658940D01*
X84071822Y-7095922D01*
X84531382Y-8510301D01*
X84713886Y-8152691D01*
X84722590Y-8135633D01*
X84777913Y-8026745D01*
X84819710Y-7942834D01*
X84849575Y-7879743D01*
X84869103Y-7833324D01*
X84879889Y-7799422D01*
X84883526Y-7773889D01*
X84881611Y-7752570D01*
X84875736Y-7731316D01*
X84864397Y-7667775D01*
X84866965Y-7649273D01*
X85005016Y-7649273D01*
X85005124Y-7673463D01*
X85027535Y-7696266D01*
X85028262Y-7696840D01*
X85072083Y-7716577D01*
X85112770Y-7711266D01*
X85139458Y-7682267D01*
X85144425Y-7652582D01*
X85126514Y-7614877D01*
X85081548Y-7590387D01*
X85057922Y-7585411D01*
X85036067Y-7592721D01*
X85016473Y-7623898D01*
X85005016Y-7649273D01*
X84866965Y-7649273D01*
X84875113Y-7590555D01*
X84910046Y-7523737D01*
X84964558Y-7472956D01*
X85034014Y-7443844D01*
X85113780Y-7442034D01*
X85181007Y-7465924D01*
X85233432Y-7516296D01*
X85270690Y-7595148D01*
X85275360Y-7609920D01*
X85275383Y-7610031D01*
X85286282Y-7659437D01*
X85281778Y-7699850D01*
X85260729Y-7748352D01*
X85259282Y-7751178D01*
X85231193Y-7797155D01*
X85198506Y-7824419D01*
X85147032Y-7845034D01*
X85069815Y-7870123D01*
X84616682Y-8764102D01*
X85086254Y-10285828D01*
X84980471Y-10492476D01*
X84975702Y-10501808D01*
X84934100Y-10585225D01*
X84907020Y-10644985D01*
X84892695Y-10686046D01*
X84889362Y-10713371D01*
X84895253Y-10731919D01*
X84904215Y-10750193D01*
X84911382Y-10792144D01*
X84914745Y-10811831D01*
X84906516Y-10881178D01*
X84880487Y-10944404D01*
X84862062Y-10970176D01*
X84823869Y-11002001D01*
X84765895Y-11026138D01*
X84757181Y-11028923D01*
X84705811Y-11040942D01*
X84664639Y-11037161D01*
X84616131Y-11016445D01*
X84605654Y-11010748D01*
X84553453Y-10971886D01*
X84517551Y-10928323D01*
X84497303Y-10871726D01*
X84497150Y-10827967D01*
X84637072Y-10827967D01*
X84645923Y-10864617D01*
X84676697Y-10893471D01*
X84690578Y-10898324D01*
X84727393Y-10898084D01*
X84761915Y-10873799D01*
X84772615Y-10837232D01*
X84759223Y-10798958D01*
X84722161Y-10769328D01*
X84707897Y-10764529D01*
X84671477Y-10768594D01*
X84646729Y-10792849D01*
X84637072Y-10827967D01*
X84497150Y-10827967D01*
X84497038Y-10796047D01*
X84522815Y-10724796D01*
X84571338Y-10666096D01*
X84639313Y-10628070D01*
X84643949Y-10626493D01*
X84668631Y-10614415D01*
X84691457Y-10593747D01*
X84716437Y-10559071D01*
X84747582Y-10504969D01*
X84788903Y-10426025D01*
X84883202Y-10242009D01*
X84720446Y-9741055D01*
X84717092Y-9730725D01*
X84681823Y-9621514D01*
X84638112Y-9485330D01*
X84587370Y-9326594D01*
X84530998Y-9149728D01*
X84470405Y-8959155D01*
X84406997Y-8759294D01*
X84342180Y-8554570D01*
X84277359Y-8349402D01*
X84213940Y-8148214D01*
X83870189Y-7056327D01*
X84100918Y-6599376D01*
X84156247Y-6488827D01*
X84215929Y-6366568D01*
X84261869Y-6268494D01*
X84293489Y-6195886D01*
X84310211Y-6150027D01*
X84311457Y-6132199D01*
X84299961Y-6127356D01*
X84260566Y-6112602D01*
X84202302Y-6091762D01*
X84133066Y-6067690D01*
X83974864Y-6013409D01*
X83201671Y-7527266D01*
X81762073Y-8017588D01*
X81571002Y-8389390D01*
X81379931Y-8761190D01*
X81553022Y-9293909D01*
X81583984Y-9389122D01*
X81625061Y-9514814D01*
X81657936Y-9613971D01*
X81683865Y-9689820D01*
X81704100Y-9745583D01*
X81719895Y-9784487D01*
X81732504Y-9809756D01*
X81743180Y-9824615D01*
X81753176Y-9832288D01*
X81763747Y-9836003D01*
X81774423Y-9839117D01*
X81832464Y-9874258D01*
X81875819Y-9930699D01*
X81897594Y-9990250D01*
X81900978Y-9999508D01*
X81904431Y-10071754D01*
X81882664Y-10138507D01*
X81874055Y-10152368D01*
X81819784Y-10210909D01*
X81756865Y-10242678D01*
X81690478Y-10250385D01*
X81625795Y-10236738D01*
X81567996Y-10204448D01*
X81522256Y-10156222D01*
X81493753Y-10094770D01*
X81490091Y-10051494D01*
X81625649Y-10051494D01*
X81645141Y-10085416D01*
X81663381Y-10096340D01*
X81705579Y-10101072D01*
X81743417Y-10085177D01*
X81763742Y-10052326D01*
X81765049Y-10033316D01*
X81750704Y-9993566D01*
X81717760Y-9972735D01*
X81674877Y-9978063D01*
X81667005Y-9982098D01*
X81633855Y-10013740D01*
X81625649Y-10051494D01*
X81490091Y-10051494D01*
X81487663Y-10022803D01*
X81509161Y-9943029D01*
X81544781Y-9863386D01*
X81174326Y-8723244D01*
X81396762Y-8286230D01*
X81619199Y-7849215D01*
X83049999Y-7384320D01*
X83406615Y-6684133D01*
X83475589Y-6548345D01*
X83542747Y-6415382D01*
X83603486Y-6294362D01*
X83656336Y-6188252D01*
X83699825Y-6100019D01*
X83732483Y-6032629D01*
X83752842Y-5989049D01*
X83759429Y-5972246D01*
X83758273Y-5970765D01*
X83734308Y-5962009D01*
X83684404Y-5951297D01*
X83614656Y-5939464D01*
X83531159Y-5927350D01*
X83440008Y-5915792D01*
X83347299Y-5905627D01*
X83259127Y-5897693D01*
X83181588Y-5892829D01*
X83002487Y-5888893D01*
X82738639Y-5899357D01*
X82482297Y-5931127D01*
X82223711Y-5985560D01*
X81953131Y-6064016D01*
X81778617Y-6124630D01*
X81530015Y-6227668D01*
X81299616Y-6346084D01*
X81078729Y-6484513D01*
X80858666Y-6647586D01*
X80848003Y-6656097D01*
X80595041Y-6879862D01*
X80366840Y-7124928D01*
X80164325Y-7389217D01*
X79988420Y-7670647D01*
X79840054Y-7967142D01*
X79720148Y-8276617D01*
X79629632Y-8596996D01*
X79569428Y-8926198D01*
X79540464Y-9262142D01*
X79299854Y-9262142D01*
X79300099Y-9191991D01*
X79333860Y-8846539D01*
X79337957Y-8819145D01*
X79407254Y-8474341D01*
X79506847Y-8141750D01*
X79635412Y-7822939D01*
X79791625Y-7519475D01*
X79974162Y-7232926D01*
X80181702Y-6964860D01*
X80412921Y-6716846D01*
X80666495Y-6490450D01*
X80941101Y-6287241D01*
X81235415Y-6108786D01*
X81548115Y-5956654D01*
X81877878Y-5832411D01*
X81904275Y-5823940D01*
X82244360Y-5733188D01*
X82586880Y-5674989D01*
X82929841Y-5648854D01*
X83271253Y-5654292D01*
G36*
X82245869Y-10840049D02*
G01*
X82305997Y-10878412D01*
X82306601Y-10879014D01*
X82341033Y-10928255D01*
X82361827Y-10981188D01*
X82365634Y-10990878D01*
X82365726Y-10991233D01*
X82373440Y-11017879D01*
X82383925Y-11040025D01*
X82401519Y-11061245D01*
X82430565Y-11085110D01*
X82475402Y-11115193D01*
X82540370Y-11155066D01*
X82629813Y-11208302D01*
X82875425Y-11353842D01*
X83151587Y-11275553D01*
X83186174Y-11265731D01*
X83343140Y-11220600D01*
X83470998Y-11182656D01*
X83572468Y-11150927D01*
X83650267Y-11124445D01*
X83684705Y-11110992D01*
X83917324Y-11110992D01*
X83918199Y-11137638D01*
X83940243Y-11160761D01*
X83972232Y-11179352D01*
X84011800Y-11178798D01*
X84041768Y-11146835D01*
X84052372Y-11099242D01*
X84034407Y-11063032D01*
X83991268Y-11045276D01*
X83966783Y-11043836D01*
X83942516Y-11053821D01*
X83925345Y-11087166D01*
X83917324Y-11110992D01*
X83684705Y-11110992D01*
X83707116Y-11102237D01*
X83745732Y-11083335D01*
X83768834Y-11066768D01*
X83779141Y-11051565D01*
X83812061Y-10989682D01*
X83870929Y-10937143D01*
X83945171Y-10907693D01*
X84026934Y-10905945D01*
X84093196Y-10927746D01*
X84143332Y-10973190D01*
X84178046Y-11045965D01*
X84180455Y-11057625D01*
X84192131Y-11114130D01*
X84182775Y-11190539D01*
X84142456Y-11255115D01*
X84079992Y-11299791D01*
X84003725Y-11320812D01*
X83925176Y-11315752D01*
X83854535Y-11283606D01*
X83846892Y-11279137D01*
X83833399Y-11275944D01*
X83812877Y-11276745D01*
X83781800Y-11282468D01*
X83736633Y-11294035D01*
X83673851Y-11312374D01*
X83589919Y-11338407D01*
X83481311Y-11373062D01*
X83344493Y-11417262D01*
X82864514Y-11572783D01*
X82565301Y-11398095D01*
X82488149Y-11353283D01*
X82403768Y-11305350D01*
X82340716Y-11271517D01*
X82294823Y-11249869D01*
X82261919Y-11238493D01*
X82237834Y-11235476D01*
X82218398Y-11238902D01*
X82162824Y-11248631D01*
X82090867Y-11236666D01*
X82028862Y-11199862D01*
X81982062Y-11143182D01*
X81955717Y-11071589D01*
X81955454Y-11038036D01*
X82093123Y-11038036D01*
X82099261Y-11071070D01*
X82135600Y-11096162D01*
X82171687Y-11107748D01*
X82200842Y-11098468D01*
X82224490Y-11060190D01*
X82233869Y-11022764D01*
X82218791Y-10997326D01*
X82180210Y-10972932D01*
X82139919Y-10971030D01*
X82108796Y-11001241D01*
X82093123Y-11038036D01*
X81955454Y-11038036D01*
X81955078Y-10990046D01*
X81957010Y-10980190D01*
X81986748Y-10916320D01*
X82038443Y-10867845D01*
X82104153Y-10837291D01*
X82175941Y-10827184D01*
X82245869Y-10840049D01*
G37*
X82245869Y-10840049D02*
X82305997Y-10878412D01*
X82306601Y-10879014D01*
X82341033Y-10928255D01*
X82361827Y-10981188D01*
X82365634Y-10990878D01*
X82365726Y-10991233D01*
X82373440Y-11017879D01*
X82383925Y-11040025D01*
X82401519Y-11061245D01*
X82430565Y-11085110D01*
X82475402Y-11115193D01*
X82540370Y-11155066D01*
X82629813Y-11208302D01*
X82875425Y-11353842D01*
X83151587Y-11275553D01*
X83186174Y-11265731D01*
X83343140Y-11220600D01*
X83470998Y-11182656D01*
X83572468Y-11150927D01*
X83650267Y-11124445D01*
X83684705Y-11110992D01*
X83917324Y-11110992D01*
X83918199Y-11137638D01*
X83940243Y-11160761D01*
X83972232Y-11179352D01*
X84011800Y-11178798D01*
X84041768Y-11146835D01*
X84052372Y-11099242D01*
X84034407Y-11063032D01*
X83991268Y-11045276D01*
X83966783Y-11043836D01*
X83942516Y-11053821D01*
X83925345Y-11087166D01*
X83917324Y-11110992D01*
X83684705Y-11110992D01*
X83707116Y-11102237D01*
X83745732Y-11083335D01*
X83768834Y-11066768D01*
X83779141Y-11051565D01*
X83812061Y-10989682D01*
X83870929Y-10937143D01*
X83945171Y-10907693D01*
X84026934Y-10905945D01*
X84093196Y-10927746D01*
X84143332Y-10973190D01*
X84178046Y-11045965D01*
X84180455Y-11057625D01*
X84192131Y-11114130D01*
X84182775Y-11190539D01*
X84142456Y-11255115D01*
X84079992Y-11299791D01*
X84003725Y-11320812D01*
X83925176Y-11315752D01*
X83854535Y-11283606D01*
X83846892Y-11279137D01*
X83833399Y-11275944D01*
X83812877Y-11276745D01*
X83781800Y-11282468D01*
X83736633Y-11294035D01*
X83673851Y-11312374D01*
X83589919Y-11338407D01*
X83481311Y-11373062D01*
X83344493Y-11417262D01*
X82864514Y-11572783D01*
X82565301Y-11398095D01*
X82488149Y-11353283D01*
X82403768Y-11305350D01*
X82340716Y-11271517D01*
X82294823Y-11249869D01*
X82261919Y-11238493D01*
X82237834Y-11235476D01*
X82218398Y-11238902D01*
X82162824Y-11248631D01*
X82090867Y-11236666D01*
X82028862Y-11199862D01*
X81982062Y-11143182D01*
X81955717Y-11071589D01*
X81955454Y-11038036D01*
X82093123Y-11038036D01*
X82099261Y-11071070D01*
X82135600Y-11096162D01*
X82171687Y-11107748D01*
X82200842Y-11098468D01*
X82224490Y-11060190D01*
X82233869Y-11022764D01*
X82218791Y-10997326D01*
X82180210Y-10972932D01*
X82139919Y-10971030D01*
X82108796Y-11001241D01*
X82093123Y-11038036D01*
X81955454Y-11038036D01*
X81955078Y-10990046D01*
X81957010Y-10980190D01*
X81986748Y-10916320D01*
X82038443Y-10867845D01*
X82104153Y-10837291D01*
X82175941Y-10827184D01*
X82245869Y-10840049D01*
G36*
X83526374Y-7998508D02*
G01*
X83773617Y-8124892D01*
X84361991Y-9935718D01*
X84230876Y-10193812D01*
X84099760Y-10451906D01*
X82874921Y-10849881D01*
X82677954Y-10749003D01*
X82656764Y-10738189D01*
X82578633Y-10699558D01*
X82521740Y-10674628D01*
X82479631Y-10661233D01*
X82445850Y-10657207D01*
X82413946Y-10660383D01*
X82403649Y-10662007D01*
X82326293Y-10657392D01*
X82259379Y-10625625D01*
X82208197Y-10571998D01*
X82178034Y-10501806D01*
X82176409Y-10467477D01*
X82313919Y-10467477D01*
X82320392Y-10489941D01*
X82350777Y-10509353D01*
X82352724Y-10510341D01*
X82393217Y-10526015D01*
X82418096Y-10518648D01*
X82438151Y-10485261D01*
X82447005Y-10458067D01*
X82442282Y-10414492D01*
X82409717Y-10386768D01*
X82380561Y-10382071D01*
X82343185Y-10400248D01*
X82318810Y-10445065D01*
X82313919Y-10467477D01*
X82176409Y-10467477D01*
X82174179Y-10420345D01*
X82174827Y-10415697D01*
X82199560Y-10344806D01*
X82251074Y-10291390D01*
X82331287Y-10253417D01*
X82382208Y-10240814D01*
X82425372Y-10244161D01*
X82476775Y-10265885D01*
X82506839Y-10282211D01*
X82537708Y-10306497D01*
X82558561Y-10340244D01*
X82570419Y-10372858D01*
X82578446Y-10394936D01*
X82608525Y-10487509D01*
X82750359Y-10560465D01*
X82892194Y-10633423D01*
X83957257Y-10287363D01*
X84056899Y-10092806D01*
X84156541Y-9898251D01*
X83629820Y-8277169D01*
X83435265Y-8177528D01*
X83240708Y-8077886D01*
X82175870Y-8423873D01*
X82076228Y-8618428D01*
X81976585Y-8812984D01*
X82115022Y-9239048D01*
X82309345Y-9340462D01*
X82503668Y-9441875D01*
X82723736Y-9370371D01*
X82733746Y-9367113D01*
X82821343Y-9337877D01*
X82849521Y-9327576D01*
X83085721Y-9327576D01*
X83088360Y-9356828D01*
X83118061Y-9381782D01*
X83151098Y-9396261D01*
X83187750Y-9392655D01*
X83215639Y-9358636D01*
X83226383Y-9328010D01*
X83217306Y-9293409D01*
X83177010Y-9266089D01*
X83141965Y-9258645D01*
X83108134Y-9277413D01*
X83085721Y-9327576D01*
X82849521Y-9327576D01*
X82881782Y-9315782D01*
X82919566Y-9298835D01*
X82939201Y-9285043D01*
X82945187Y-9272418D01*
X82957461Y-9237996D01*
X82991748Y-9194206D01*
X83038490Y-9154668D01*
X83088117Y-9128984D01*
X83144953Y-9117981D01*
X83221207Y-9127255D01*
X83286174Y-9162100D01*
X83334746Y-9217943D01*
X83347202Y-9251203D01*
X83361811Y-9290208D01*
X83362257Y-9374325D01*
X83359843Y-9385958D01*
X83330280Y-9445616D01*
X83279479Y-9493091D01*
X83215530Y-9525349D01*
X83146521Y-9539358D01*
X83080543Y-9532084D01*
X83025687Y-9500496D01*
X83019976Y-9495486D01*
X83006529Y-9488694D01*
X82986580Y-9487430D01*
X82955093Y-9492713D01*
X82907029Y-9505563D01*
X82837352Y-9526995D01*
X82741024Y-9558029D01*
X82483556Y-9641686D01*
X82225463Y-9510571D01*
X81967368Y-9379456D01*
X81776300Y-8791409D01*
X81907416Y-8533315D01*
X82038531Y-8275222D01*
X83279132Y-7872126D01*
X83526374Y-7998508D01*
G37*
X83526374Y-7998508D02*
X83773617Y-8124892D01*
X84361991Y-9935718D01*
X84230876Y-10193812D01*
X84099760Y-10451906D01*
X82874921Y-10849881D01*
X82677954Y-10749003D01*
X82656764Y-10738189D01*
X82578633Y-10699558D01*
X82521740Y-10674628D01*
X82479631Y-10661233D01*
X82445850Y-10657207D01*
X82413946Y-10660383D01*
X82403649Y-10662007D01*
X82326293Y-10657392D01*
X82259379Y-10625625D01*
X82208197Y-10571998D01*
X82178034Y-10501806D01*
X82176409Y-10467477D01*
X82313919Y-10467477D01*
X82320392Y-10489941D01*
X82350777Y-10509353D01*
X82352724Y-10510341D01*
X82393217Y-10526015D01*
X82418096Y-10518648D01*
X82438151Y-10485261D01*
X82447005Y-10458067D01*
X82442282Y-10414492D01*
X82409717Y-10386768D01*
X82380561Y-10382071D01*
X82343185Y-10400248D01*
X82318810Y-10445065D01*
X82313919Y-10467477D01*
X82176409Y-10467477D01*
X82174179Y-10420345D01*
X82174827Y-10415697D01*
X82199560Y-10344806D01*
X82251074Y-10291390D01*
X82331287Y-10253417D01*
X82382208Y-10240814D01*
X82425372Y-10244161D01*
X82476775Y-10265885D01*
X82506839Y-10282211D01*
X82537708Y-10306497D01*
X82558561Y-10340244D01*
X82570419Y-10372858D01*
X82578446Y-10394936D01*
X82608525Y-10487509D01*
X82750359Y-10560465D01*
X82892194Y-10633423D01*
X83957257Y-10287363D01*
X84056899Y-10092806D01*
X84156541Y-9898251D01*
X83629820Y-8277169D01*
X83435265Y-8177528D01*
X83240708Y-8077886D01*
X82175870Y-8423873D01*
X82076228Y-8618428D01*
X81976585Y-8812984D01*
X82115022Y-9239048D01*
X82309345Y-9340462D01*
X82503668Y-9441875D01*
X82723736Y-9370371D01*
X82733746Y-9367113D01*
X82821343Y-9337877D01*
X82849521Y-9327576D01*
X83085721Y-9327576D01*
X83088360Y-9356828D01*
X83118061Y-9381782D01*
X83151098Y-9396261D01*
X83187750Y-9392655D01*
X83215639Y-9358636D01*
X83226383Y-9328010D01*
X83217306Y-9293409D01*
X83177010Y-9266089D01*
X83141965Y-9258645D01*
X83108134Y-9277413D01*
X83085721Y-9327576D01*
X82849521Y-9327576D01*
X82881782Y-9315782D01*
X82919566Y-9298835D01*
X82939201Y-9285043D01*
X82945187Y-9272418D01*
X82957461Y-9237996D01*
X82991748Y-9194206D01*
X83038490Y-9154668D01*
X83088117Y-9128984D01*
X83144953Y-9117981D01*
X83221207Y-9127255D01*
X83286174Y-9162100D01*
X83334746Y-9217943D01*
X83347202Y-9251203D01*
X83361811Y-9290208D01*
X83362257Y-9374325D01*
X83359843Y-9385958D01*
X83330280Y-9445616D01*
X83279479Y-9493091D01*
X83215530Y-9525349D01*
X83146521Y-9539358D01*
X83080543Y-9532084D01*
X83025687Y-9500496D01*
X83019976Y-9495486D01*
X83006529Y-9488694D01*
X82986580Y-9487430D01*
X82955093Y-9492713D01*
X82907029Y-9505563D01*
X82837352Y-9526995D01*
X82741024Y-9558029D01*
X82483556Y-9641686D01*
X82225463Y-9510571D01*
X81967368Y-9379456D01*
X81776300Y-8791409D01*
X81907416Y-8533315D01*
X82038531Y-8275222D01*
X83279132Y-7872126D01*
X83526374Y-7998508D01*
G36*
X81963945Y-6377881D02*
G01*
X82030042Y-6416208D01*
X82056076Y-6444540D01*
X82089583Y-6511193D01*
X82090659Y-6518540D01*
X82100422Y-6585248D01*
X82087888Y-6656762D01*
X82051274Y-6715795D01*
X82022456Y-6740697D01*
X81946277Y-6777102D01*
X81860971Y-6783530D01*
X81772062Y-6759124D01*
X81767736Y-6757241D01*
X81752381Y-6752431D01*
X81733555Y-6751156D01*
X81707241Y-6754468D01*
X81669420Y-6763416D01*
X81616075Y-6779050D01*
X81543186Y-6802422D01*
X81446735Y-6834579D01*
X81322705Y-6876575D01*
X80917813Y-7014094D01*
X80493944Y-7845769D01*
X80070074Y-8677443D01*
X80138338Y-8887537D01*
X80160466Y-8955013D01*
X80182928Y-9020064D01*
X80199956Y-9062315D01*
X80214079Y-9086968D01*
X80227824Y-9099223D01*
X80243722Y-9104280D01*
X80252340Y-9106142D01*
X80308122Y-9135651D01*
X80350803Y-9187388D01*
X80370330Y-9234499D01*
X80377983Y-9252966D01*
X80387258Y-9324003D01*
X80376224Y-9392111D01*
X80342480Y-9448905D01*
X80312344Y-9474944D01*
X80243578Y-9508215D01*
X80168506Y-9519013D01*
X80096798Y-9506654D01*
X80038124Y-9470453D01*
X80012192Y-9438777D01*
X79981196Y-9372568D01*
X79970613Y-9310275D01*
X80110687Y-9310275D01*
X80113326Y-9339527D01*
X80143027Y-9364483D01*
X80176065Y-9378960D01*
X80212717Y-9375355D01*
X80240606Y-9341336D01*
X80251349Y-9310709D01*
X80242272Y-9276108D01*
X80201976Y-9248789D01*
X80166931Y-9241344D01*
X80133100Y-9260112D01*
X80110687Y-9310275D01*
X79970613Y-9310275D01*
X79969016Y-9300878D01*
X79976790Y-9233851D01*
X80005661Y-9181631D01*
X80010689Y-9175893D01*
X80017470Y-9162440D01*
X80018721Y-9142478D01*
X80013425Y-9110969D01*
X80000564Y-9062878D01*
X79979120Y-8993168D01*
X79948074Y-8896806D01*
X79864366Y-8639179D01*
X80317567Y-7749496D01*
X80770766Y-6859812D01*
X81656240Y-6572104D01*
X81821693Y-6572104D01*
X81825297Y-6608757D01*
X81859317Y-6636644D01*
X81889943Y-6647389D01*
X81924545Y-6638312D01*
X81951864Y-6598016D01*
X81961244Y-6560589D01*
X81946165Y-6535152D01*
X81907584Y-6510757D01*
X81867293Y-6508856D01*
X81836170Y-6539067D01*
X81821693Y-6572104D01*
X81656240Y-6572104D01*
X81668108Y-6568248D01*
X81681501Y-6519073D01*
X81701765Y-6471389D01*
X81751157Y-6415659D01*
X81816592Y-6379943D01*
X81890158Y-6366571D01*
X81963945Y-6377881D01*
G37*
X81963945Y-6377881D02*
X82030042Y-6416208D01*
X82056076Y-6444540D01*
X82089583Y-6511193D01*
X82090659Y-6518540D01*
X82100422Y-6585248D01*
X82087888Y-6656762D01*
X82051274Y-6715795D01*
X82022456Y-6740697D01*
X81946277Y-6777102D01*
X81860971Y-6783530D01*
X81772062Y-6759124D01*
X81767736Y-6757241D01*
X81752381Y-6752431D01*
X81733555Y-6751156D01*
X81707241Y-6754468D01*
X81669420Y-6763416D01*
X81616075Y-6779050D01*
X81543186Y-6802422D01*
X81446735Y-6834579D01*
X81322705Y-6876575D01*
X80917813Y-7014094D01*
X80493944Y-7845769D01*
X80070074Y-8677443D01*
X80138338Y-8887537D01*
X80160466Y-8955013D01*
X80182928Y-9020064D01*
X80199956Y-9062315D01*
X80214079Y-9086968D01*
X80227824Y-9099223D01*
X80243722Y-9104280D01*
X80252340Y-9106142D01*
X80308122Y-9135651D01*
X80350803Y-9187388D01*
X80370330Y-9234499D01*
X80377983Y-9252966D01*
X80387258Y-9324003D01*
X80376224Y-9392111D01*
X80342480Y-9448905D01*
X80312344Y-9474944D01*
X80243578Y-9508215D01*
X80168506Y-9519013D01*
X80096798Y-9506654D01*
X80038124Y-9470453D01*
X80012192Y-9438777D01*
X79981196Y-9372568D01*
X79970613Y-9310275D01*
X80110687Y-9310275D01*
X80113326Y-9339527D01*
X80143027Y-9364483D01*
X80176065Y-9378960D01*
X80212717Y-9375355D01*
X80240606Y-9341336D01*
X80251349Y-9310709D01*
X80242272Y-9276108D01*
X80201976Y-9248789D01*
X80166931Y-9241344D01*
X80133100Y-9260112D01*
X80110687Y-9310275D01*
X79970613Y-9310275D01*
X79969016Y-9300878D01*
X79976790Y-9233851D01*
X80005661Y-9181631D01*
X80010689Y-9175893D01*
X80017470Y-9162440D01*
X80018721Y-9142478D01*
X80013425Y-9110969D01*
X80000564Y-9062878D01*
X79979120Y-8993168D01*
X79948074Y-8896806D01*
X79864366Y-8639179D01*
X80317567Y-7749496D01*
X80770766Y-6859812D01*
X81656240Y-6572104D01*
X81821693Y-6572104D01*
X81825297Y-6608757D01*
X81859317Y-6636644D01*
X81889943Y-6647389D01*
X81924545Y-6638312D01*
X81951864Y-6598016D01*
X81961244Y-6560589D01*
X81946165Y-6535152D01*
X81907584Y-6510757D01*
X81867293Y-6508856D01*
X81836170Y-6539067D01*
X81821693Y-6572104D01*
X81656240Y-6572104D01*
X81668108Y-6568248D01*
X81681501Y-6519073D01*
X81701765Y-6471389D01*
X81751157Y-6415659D01*
X81816592Y-6379943D01*
X81890158Y-6366571D01*
X81963945Y-6377881D01*
G04 #@! TD*
M02*
