G04 #@! TF.GenerationSoftware,KiCad,Pcbnew,(6.0.7)*
G04 #@! TF.CreationDate,2022-09-06T15:12:06+02:00*
G04 #@! TF.ProjectId,osprey_plate,6f737072-6579-45f7-906c-6174652e6b69,rev?*
G04 #@! TF.SameCoordinates,Original*
G04 #@! TF.FileFunction,Profile,NP*
%FSLAX46Y46*%
G04 Gerber Fmt 4.6, Leading zero omitted, Abs format (unit mm)*
G04 Created by KiCad (PCBNEW (6.0.7)) date 2022-09-06 15:12:06*
%MOMM*%
%LPD*%
G01*
G04 APERTURE LIST*
G04 #@! TA.AperFunction,Profile*
%ADD10C,0.050000*%
G04 #@! TD*
G04 APERTURE END LIST*
D10*
X-41236031Y-18255397D02*
X-53599765Y-14238176D01*
X-38146090Y-37870236D02*
X-34128869Y-25506502D01*
X84664159Y-19983623D02*
X84710268Y-20077078D01*
X24831287Y-42196478D02*
G75*
G03*
X25461336Y-42517494I475513J154478D01*
G01*
X61754745Y51463977D02*
G75*
G03*
X47906035Y49030509I9732155J-96007877D01*
G01*
X-82584476Y13054386D02*
G75*
G03*
X-83214513Y12733364I-154507J-475531D01*
G01*
X-10510602Y11274766D02*
X-6975565Y22154492D01*
X-26666006Y12024197D02*
X-22648785Y24387932D01*
X6975528Y22154480D02*
G75*
G03*
X6500037Y22499991I-475528J-154480D01*
G01*
X-31255994Y38221067D02*
G75*
G03*
X-28165825Y37731633I3090164J9510548D01*
G01*
X-95142056Y34273452D02*
X-91124835Y46637187D01*
X10000036Y-45500007D02*
G75*
G03*
X11000037Y-44500009I14J999987D01*
G01*
X26344987Y11394160D02*
X13981252Y7376940D01*
X-70050902Y-5002445D02*
X-74068123Y-17366180D01*
X-86637091Y-19010206D02*
X-86683200Y-19103661D01*
X54291035Y43501437D02*
X58308256Y31137702D01*
X-47419425Y4782955D02*
X-35055692Y765734D01*
X-14908303Y4523770D02*
X-27272038Y8540991D01*
X52672724Y-11385036D02*
G75*
G03*
X52993734Y-10754969I-154524J475536D01*
G01*
X87080553Y13779254D02*
G75*
G03*
X87710591Y13458234I475547J154546D01*
G01*
X81978445Y16537591D02*
X77961224Y28901326D01*
X-114287568Y54065020D02*
G75*
G03*
X-112610764Y55177722I592644J926700D01*
G01*
X87710591Y13458234D02*
X100074325Y17475455D01*
X-69293691Y11890334D02*
G75*
G03*
X-68663654Y12211354I154509J475528D01*
G01*
X-33155363Y-7947990D02*
X-37172584Y-20311724D01*
X-26666005Y12024197D02*
G75*
G03*
X-26344987Y11394160I475528J-154509D01*
G01*
X94821037Y33643415D02*
X82457302Y29626195D01*
X-50876791Y10322484D02*
G75*
G03*
X-50246754Y10643504I154509J475528D01*
G01*
X-53660999Y43822457D02*
G75*
G03*
X-54291035Y43501437I-154508J-475528D01*
G01*
X9655020Y20691715D02*
G75*
G03*
X9333994Y20061694I154480J-475515D01*
G01*
X64797635Y11165522D02*
G75*
G03*
X64167576Y11486535I-475535J-154522D01*
G01*
X-69420865Y-4681427D02*
G75*
G03*
X-70050902Y-5002445I-154509J-475528D01*
G01*
X-40915012Y-18885433D02*
G75*
G03*
X-41236031Y-18255397I-475526J154509D01*
G01*
X-59544324Y27333475D02*
X-63561545Y14969741D01*
X38469935Y33944687D02*
X42487155Y21580952D01*
X68493804Y-1828226D02*
G75*
G03*
X68814834Y-1198219I-154504J475526D01*
G01*
X20161584Y-11644168D02*
G75*
G03*
X19840572Y-12274228I154516J-475532D01*
G01*
X-88316622Y9975027D02*
G75*
G03*
X-88637642Y10605064I-475528J154509D01*
G01*
X-101801304Y28340875D02*
X-114165038Y32358096D01*
X47419423Y4782965D02*
G75*
G03*
X47740445Y5412992I-154523J475535D01*
G01*
X100395345Y18105490D02*
X96378123Y30469226D01*
X0Y-45500010D02*
X-10000036Y-45500009D01*
X73916978Y-3956595D02*
G75*
G03*
X74546980Y-4277627I475522J154495D01*
G01*
X-84664159Y-19983623D02*
G75*
G03*
X-86637091Y-19010206I-986466J486708D01*
G01*
X48346476Y1929785D02*
X35982742Y-2087436D01*
X35055691Y765734D02*
X47419426Y4782955D01*
X-132196067Y970108D02*
G75*
G03*
X-131715384Y315636I475533J-154498D01*
G01*
X-33498833Y-25185482D02*
G75*
G03*
X-34128869Y-25506502I-154509J-475526D01*
G01*
X46229533Y23007238D02*
X50246754Y10643504D01*
X123744564Y2875344D02*
G75*
G03*
X124065583Y3505381I-154564J475556D01*
G01*
X-9333994Y20061695D02*
X-13351215Y7697959D01*
X131715384Y315603D02*
G75*
G03*
X130820820Y-1439975I-11384J-1099903D01*
G01*
X-35982742Y-2087436D02*
X-48346476Y1929785D01*
X43093188Y18097746D02*
X30729453Y14080525D01*
X50876791Y10322484D02*
X63240525Y14339705D01*
X-101480282Y27710838D02*
G75*
G03*
X-101801304Y28340875I-475531J154507D01*
G01*
X-57926003Y-27552967D02*
X-45562268Y-31570188D01*
X-90494799Y46958209D02*
G75*
G03*
X-91124835Y46637187I-154507J-475530D01*
G01*
X-76725155Y32705552D02*
G75*
G03*
X-76404137Y32075515I475528J-154509D01*
G01*
X-54229802Y-14559195D02*
X-58247023Y-26922930D01*
X-1600000Y-50655601D02*
X-3950437Y-50655601D01*
X-22018749Y24708951D02*
G75*
G03*
X-22648785Y24387932I-154509J-475526D01*
G01*
X69293691Y11890335D02*
X81657425Y15907555D01*
X35661722Y-2717473D02*
X39678943Y-15081207D01*
X-37839899Y34265707D02*
X-25476164Y30248486D01*
X-23857793Y-24637962D02*
X-19840572Y-12274228D01*
X40915011Y-18885433D02*
X44932232Y-31249168D01*
X-48976513Y1608765D02*
X-52993734Y-10754969D01*
X-87231734Y369631D02*
G75*
G03*
X-86910714Y-260406I475528J-154509D01*
G01*
X74068123Y-17366180D02*
X70050902Y-5002445D01*
X13351215Y7697959D02*
X9333994Y20061694D01*
X-112075550Y55760466D02*
X-64950149Y51748558D01*
X31919295Y-4143764D02*
X27902074Y8219971D01*
X48509881Y43827186D02*
G75*
G03*
X48830898Y44457231I-154481J475514D01*
G01*
X88637646Y10605051D02*
G75*
G03*
X88316622Y9975027I154554J-475551D01*
G01*
X-40976244Y39175199D02*
X-44993465Y26811464D01*
X59714161Y41373092D02*
G75*
G03*
X59393144Y40743049I154439J-475492D01*
G01*
X41297264Y39805236D02*
X53660999Y43822457D01*
X47906027Y49030540D02*
G75*
G03*
X47552687Y48391158I122173J-484840D01*
G01*
X-100395345Y18105491D02*
G75*
G03*
X-100074325Y17475455I475528J-154508D01*
G01*
X112610765Y55177722D02*
G75*
G03*
X112075551Y55760466I-492765J84578D01*
G01*
X48830898Y44457231D02*
X47552687Y48391158D01*
X-87350462Y-19331981D02*
G75*
G03*
X-126419373Y-3563368I-132852897J-272877744D01*
G01*
X106127541Y15026084D02*
X118491275Y19043305D01*
X-123744564Y2875344D02*
X-111380830Y-1141877D01*
X-60753332Y-21692418D02*
X-56736111Y-9328683D01*
X86683200Y-19103661D02*
X86637091Y-19010206D01*
X114165038Y32358096D02*
X101801303Y28340875D01*
X56130080Y-5845477D02*
X68493814Y-1828256D01*
X41236029Y-18255391D02*
G75*
G03*
X40915011Y-18885433I154471J-475509D01*
G01*
X-18604504Y-8470001D02*
X-14587283Y3893732D01*
X-77331188Y29222346D02*
G75*
G03*
X-77961224Y28901327I-154508J-475528D01*
G01*
X113237987Y35211265D02*
X100874252Y31194045D01*
X36851562Y-20941756D02*
G75*
G03*
X37172584Y-20311724I-154562J475556D01*
G01*
X-39678944Y-15081207D02*
X-35661722Y-2717473D01*
X-33498833Y-25185482D02*
X-21135098Y-29202703D01*
X101801304Y28340873D02*
G75*
G03*
X101480283Y27710838I154596J-475573D01*
G01*
X-106127541Y15026084D02*
G75*
G03*
X-105497504Y15347104I154509J475528D01*
G01*
X-1600000Y-50655601D02*
G75*
G03*
X-1100000Y-50155600I-1J500001D01*
G01*
X100244208Y31515062D02*
G75*
G03*
X100874252Y31194045I475492J154438D01*
G01*
X44108650Y-41902783D02*
G75*
G03*
X68715219Y-29220183I-123387800J269606880D01*
G01*
X-108911749Y48526057D02*
X-96548014Y44508836D01*
X1100000Y-50055601D02*
G75*
G03*
X-1100000Y-50055601I-1100000J1D01*
G01*
X95748088Y30790246D02*
X83384353Y26773025D01*
X-106733572Y11542877D02*
G75*
G03*
X-107054592Y12172914I-475528J154509D01*
G01*
X64167576Y11486535D02*
X51803842Y7469314D01*
X94821039Y33643408D02*
G75*
G03*
X95142055Y34273452I-154439J475492D01*
G01*
X-43093188Y18097746D02*
G75*
G03*
X-43723224Y17776726I-154508J-475528D01*
G01*
X64950149Y51748557D02*
X112075551Y55760466D01*
X1100000Y-50155601D02*
X1100000Y-50055601D01*
X-130820820Y-1439975D02*
G75*
G03*
X-131715384Y315636I-883232J655669D01*
G01*
X-84710268Y-20077078D02*
X-84664159Y-19983623D01*
X-55500043Y-5524457D02*
X-51482822Y6839277D01*
X-59393144Y40743049D02*
G75*
G03*
X-59714164Y41373086I-475528J154509D01*
G01*
X69420865Y-4681426D02*
X57057131Y-8698647D01*
X76404137Y32075515D02*
X64040402Y28058295D01*
X-6500037Y22499991D02*
G75*
G03*
X-6975565Y22154492I11J-500011D01*
G01*
X-101001376Y14622285D02*
G75*
G03*
X-101631413Y14301265I-154509J-475528D01*
G01*
X81827287Y29947222D02*
G75*
G03*
X82457302Y29626195I475513J154478D01*
G01*
X61383369Y-22013438D02*
X73747103Y-17996217D01*
X27272038Y8540991D02*
X14908303Y4523770D01*
X-31598275Y-4773800D02*
X-19234541Y-8791021D01*
X115032498Y53798295D02*
G75*
G03*
X114287568Y54065020I-475498J-154395D01*
G01*
X109541785Y48205037D02*
X113559006Y35841302D01*
X3950437Y-50655600D02*
G75*
G03*
X44108650Y-41902783I-7J96500040D01*
G01*
X-72077899Y45390307D02*
X-59714164Y41373086D01*
X-1100000Y-50055601D02*
X-1100000Y-50155600D01*
X101001376Y14622285D02*
X88637642Y10605064D01*
X-25155144Y29618449D02*
X-29172365Y17254714D01*
X130573855Y-2213536D02*
X126419373Y-3563368D01*
X6975565Y22154492D02*
X10510602Y11274766D01*
X64646433Y24575088D02*
X68663653Y12211354D01*
X91124813Y46637180D02*
G75*
G03*
X90494799Y46958207I-475513J-154480D01*
G01*
X131715384Y315589D02*
G75*
G03*
X132196067Y970108I5116J500011D01*
G01*
X105497473Y15347094D02*
G75*
G03*
X106127541Y15026084I475527J154506D01*
G01*
X-28165825Y37731633D02*
X28165825Y37731633D01*
X-51803842Y7469314D02*
X-64167576Y11486535D01*
X57987237Y30507665D02*
X45623502Y26490445D01*
X-68715219Y-29220183D02*
X-84485463Y-20745532D01*
X-126419373Y-3563368D02*
X-130573855Y-2213536D01*
X-20161592Y-11644191D02*
X-32525326Y-7626970D01*
X-51482822Y6839277D02*
G75*
G03*
X-51803842Y7469314I-475528J154509D01*
G01*
X-77810044Y42310949D02*
G75*
G03*
X-78131064Y42940986I-475528J154509D01*
G01*
X35982746Y-2087449D02*
G75*
G03*
X35661722Y-2717473I154554J-475551D01*
G01*
X42166139Y20950908D02*
G75*
G03*
X42487155Y21580952I-154439J475492D01*
G01*
X-64167576Y11486535D02*
G75*
G03*
X-64797613Y11165515I-154509J-475528D01*
G01*
X25476164Y30248486D02*
X37839899Y34265707D01*
X-38146089Y-37870236D02*
G75*
G03*
X-37825071Y-38500273I475528J-154509D01*
G01*
X106733572Y11542877D02*
X110750794Y-820857D01*
X115032484Y53798290D02*
X132196067Y970108D01*
X31255995Y38221067D02*
X48509878Y43827194D01*
X86637062Y-19010220D02*
G75*
G03*
X84664159Y-19983623I-986462J-486680D01*
G01*
X55500047Y-5524455D02*
G75*
G03*
X56130080Y-5845477I475553J154555D01*
G01*
X-84710268Y-20077078D02*
G75*
G03*
X-84485463Y-20745532I448392J-221232D01*
G01*
X81827265Y29947215D02*
X77810044Y42310949D01*
X-42487155Y21580952D02*
G75*
G03*
X-42166137Y20950915I475528J-154509D01*
G01*
X9655015Y20691731D02*
X22018749Y24708952D01*
X25476162Y30248492D02*
G75*
G03*
X25155144Y29618449I154438J-475492D01*
G01*
X28165825Y37731634D02*
G75*
G03*
X31255995Y38221067I75J9999566D01*
G01*
X-113559006Y35841303D02*
X-109541785Y48205037D01*
X-64797613Y11165515D02*
X-68814834Y-1198219D01*
X62303316Y51010227D02*
G75*
G03*
X61754745Y51463980I-498116J-43727D01*
G01*
X-108911749Y48526057D02*
G75*
G03*
X-109541785Y48205037I-154508J-475528D01*
G01*
X-68715217Y-29220180D02*
G75*
G03*
X-44108650Y-41902783I147995917J256927180D01*
G01*
X22648785Y24387932D02*
X26666006Y12024197D01*
X72707914Y45069280D02*
G75*
G03*
X72077899Y45390308I-475514J-154480D01*
G01*
X92333817Y-2388715D02*
G75*
G03*
X92963880Y-2709727I475583J154615D01*
G01*
X-50246754Y10643504D02*
X-46229533Y23007238D01*
X64950150Y51748544D02*
G75*
G03*
X64494475Y51206667I42350J-498144D01*
G01*
X77961240Y28901331D02*
G75*
G03*
X77331188Y29222346I-475540J-154531D01*
G01*
X-74546981Y-4277626D02*
G75*
G03*
X-73916943Y-3956607I154511J475525D01*
G01*
X11000036Y8184596D02*
G75*
G03*
X10510602Y11274766I-9999546J74D01*
G01*
X-64040402Y28058295D02*
X-76404137Y32075515D01*
X3950437Y-50655601D02*
X1600000Y-50655601D01*
X-52672714Y-11385006D02*
X-40308980Y-15402227D01*
X-100874252Y31194045D02*
X-113237987Y35211265D01*
X-46229533Y23007238D02*
G75*
G03*
X-46550553Y23637275I-475528J154509D01*
G01*
X-112075550Y55760465D02*
G75*
G03*
X-112610764Y55177722I-42412J-498199D01*
G01*
X-24487830Y-24958982D02*
G75*
G03*
X-23857793Y-24637962I154509J475528D01*
G01*
X101480283Y27710838D02*
X105497504Y15347104D01*
X63410387Y28379321D02*
G75*
G03*
X64040402Y28058295I475513J154479D01*
G01*
X113237980Y35211287D02*
G75*
G03*
X113559006Y35841302I-154480J475513D01*
G01*
X83063333Y26142988D02*
X87080554Y13779254D01*
X13351205Y7697956D02*
G75*
G03*
X13981252Y7376940I475495J154444D01*
G01*
X-30729453Y14080525D02*
X-43093188Y18097746D01*
X60753313Y-21692425D02*
G75*
G03*
X61383369Y-22013438I475587J154625D01*
G01*
X76404140Y32075507D02*
G75*
G03*
X76725156Y32705552I-154440J475493D01*
G01*
X63410365Y28379314D02*
X59393144Y40743049D01*
X57987240Y30507657D02*
G75*
G03*
X58308256Y31137702I-154540J475543D01*
G01*
X96548015Y44508836D02*
X108911749Y48526057D01*
X41297261Y39805244D02*
G75*
G03*
X40976244Y39175199I154539J-475544D01*
G01*
X-45562268Y-31570187D02*
G75*
G03*
X-44932232Y-31249168I154507J475530D01*
G01*
X105327624Y1307464D02*
G75*
G03*
X105648634Y1937531I-154524J475536D01*
G01*
X-105497504Y15347104D02*
X-101480283Y27710838D01*
X-36851564Y-20941761D02*
X-24487830Y-24958982D01*
X-83063334Y26142988D02*
G75*
G03*
X-83384353Y26773025I-475526J154510D01*
G01*
X-64502854Y51111148D02*
G75*
G03*
X-62311270Y50918894I1095792J-96127D01*
G01*
X42166137Y20950915D02*
X29802402Y16933695D01*
X118812295Y19673341D02*
X114795074Y32037076D01*
X-96226994Y43878799D02*
G75*
G03*
X-96548014Y44508836I-475528J154509D01*
G01*
X-111380830Y-1141877D02*
G75*
G03*
X-110750793Y-820857I154509J475528D01*
G01*
X-61754745Y51463981D02*
G75*
G03*
X-62303258Y51010223I-50428J-497449D01*
G01*
X-110750793Y-820857D02*
X-106733572Y11542877D01*
X-25155144Y29618449D02*
G75*
G03*
X-25476164Y30248486I-475528J154509D01*
G01*
X21135098Y-29202703D02*
X33498832Y-25185482D01*
X-77810044Y42310949D02*
X-81827266Y29947214D01*
X-48509878Y43827194D02*
X-31255994Y38221067D01*
X57057128Y-8698639D02*
G75*
G03*
X56736110Y-9328683I154572J-475561D01*
G01*
X-32525326Y-7626970D02*
G75*
G03*
X-33155363Y-7947990I-154509J-475528D01*
G01*
X-87710591Y13458234D02*
G75*
G03*
X-87080554Y13779254I154509J475528D01*
G01*
X-40976245Y39175199D02*
G75*
G03*
X-41297264Y39805235I-475530J154507D01*
G01*
X-13981252Y7376941D02*
G75*
G03*
X-13351215Y7697959I154509J475528D01*
G01*
X124065583Y3505381D02*
X120048363Y15869115D01*
X-74068123Y-17366180D02*
G75*
G03*
X-73747103Y-17996217I475528J-154509D01*
G01*
X11000037Y8184596D02*
X11000037Y-44500009D01*
X-64494475Y51206666D02*
G75*
G03*
X-64950149Y51748558I-498086J43695D01*
G01*
X-95748088Y30790245D02*
G75*
G03*
X-96378124Y30469226I-154509J-475526D01*
G01*
X63561545Y14969741D02*
X59544324Y27333476D01*
X-68493814Y-1828256D02*
X-56130080Y-5845477D01*
X100244215Y31515064D02*
X96226994Y43878799D01*
X-64494475Y51206666D02*
X-64502854Y51111148D01*
X-73747103Y-17996217D02*
X-61383370Y-22013438D01*
X-58914288Y27654497D02*
G75*
G03*
X-59544324Y27333475I-154507J-475530D01*
G01*
X26344978Y11394188D02*
G75*
G03*
X26666006Y12024197I-154478J475512D01*
G01*
X39678917Y-15081215D02*
G75*
G03*
X40308980Y-15402227I475583J154615D01*
G01*
X-47552687Y48391158D02*
X-48830898Y44457231D01*
X-35661722Y-2717473D02*
G75*
G03*
X-35982742Y-2087436I-475531J154507D01*
G01*
X-96378124Y30469226D02*
X-100395345Y18105491D01*
X87231734Y369631D02*
X83214513Y12733365D01*
X-40308980Y-15402226D02*
G75*
G03*
X-39678944Y-15081207I154507J475530D01*
G01*
X111380830Y-1141877D02*
X123744564Y2875344D01*
X-132196067Y970108D02*
X-115032484Y53798290D01*
X-34425654Y1086754D02*
X-30408433Y13450488D01*
X-44108650Y-41902783D02*
G75*
G03*
X-3950437Y-50655601I40158213J87747183D01*
G01*
X73747107Y-17996228D02*
G75*
G03*
X74068123Y-17366180I-154507J475528D01*
G01*
X32525326Y-7626970D02*
X20161592Y-11644191D01*
X-46550553Y23637275D02*
X-58914288Y27654496D01*
X14587283Y3893733D02*
X18604505Y-8470001D01*
X78131062Y42940992D02*
G75*
G03*
X77810044Y42310949I154438J-475492D01*
G01*
X23857795Y-24637962D02*
G75*
G03*
X24487830Y-24958982I475505J154462D01*
G01*
X-96226994Y43878799D02*
X-100244215Y31515064D01*
X54229831Y-14559186D02*
G75*
G03*
X53599764Y-14238176I-475531J-154514D01*
G01*
X-37172584Y-20311724D02*
G75*
G03*
X-36851564Y-20941761I475528J-154509D01*
G01*
X38469913Y33944680D02*
G75*
G03*
X37839899Y34265707I-475513J-154480D01*
G01*
X-64646434Y24575088D02*
G75*
G03*
X-64967453Y25205124I-475530J154507D01*
G01*
X10000036Y-45500009D02*
X0Y-45500010D01*
X37172584Y-20311724D02*
X33155363Y-7947990D01*
X-107054592Y12172914D02*
X-119418326Y16190135D01*
X78131064Y42940986D02*
X90494799Y46958207D01*
X-29802402Y16933696D02*
G75*
G03*
X-29172365Y17254714I154509J475528D01*
G01*
X-68663654Y12211354D02*
X-64646433Y24575088D01*
X-92963880Y-2709727D02*
G75*
G03*
X-92333843Y-2388707I154509J475528D01*
G01*
X44993457Y26811462D02*
G75*
G03*
X45623502Y26490445I475543J154538D01*
G01*
X51482822Y6839277D02*
X55500042Y-5524457D01*
X62303258Y51010222D02*
X62311270Y50918894D01*
X-95142055Y34273452D02*
G75*
G03*
X-94821037Y33643415I475528J-154509D01*
G01*
X-69899722Y8407127D02*
G75*
G03*
X-70220742Y9037164I-475528J154509D01*
G01*
X-72077899Y45390307D02*
G75*
G03*
X-72707935Y45069287I-154509J-475526D01*
G01*
X-92333843Y-2388707D02*
X-88316622Y9975027D01*
X57926007Y-27552978D02*
G75*
G03*
X58247023Y-26922930I-154607J475578D01*
G01*
X31598279Y-4773814D02*
G75*
G03*
X31919295Y-4143764I-154479J475514D01*
G01*
X-20814078Y-29832739D02*
G75*
G03*
X-21135098Y-29202703I-475528J154508D01*
G01*
X-113559007Y35841303D02*
G75*
G03*
X-113237987Y35211265I475532J-154508D01*
G01*
X30408433Y13450488D02*
X34425654Y1086754D01*
X37825071Y-38500273D02*
X25461336Y-42517494D01*
X-100074325Y17475455D02*
X-87710591Y13458234D01*
X84485452Y-20745511D02*
G75*
G03*
X84710268Y-20077078I-223552J447211D01*
G01*
X101631405Y14301262D02*
G75*
G03*
X101001376Y14622285I-475505J-154462D01*
G01*
X-58247023Y-26922930D02*
G75*
G03*
X-57926003Y-27552967I475528J-154509D01*
G01*
X110750799Y-820855D02*
G75*
G03*
X111380830Y-1141877I475501J154455D01*
G01*
X58247023Y-26922930D02*
X54229802Y-14559195D01*
X-83384353Y26773025D02*
X-95748088Y30790245D01*
X-86910714Y-260406D02*
X-74546981Y-4277627D01*
X44993465Y26811464D02*
X40976244Y39175199D01*
X-11000037Y-44500009D02*
X-11000037Y8184596D01*
X86910724Y-260436D02*
G75*
G03*
X87231734Y369631I-154524J475536D01*
G01*
X56736110Y-9328683D02*
X60753332Y-21692419D01*
X51803846Y7469301D02*
G75*
G03*
X51482822Y6839277I154454J-475501D01*
G01*
X29172365Y17254714D02*
X25155144Y29618449D01*
X-19840572Y-12274228D02*
G75*
G03*
X-20161592Y-11644191I-475526J154510D01*
G01*
X-22018749Y24708951D02*
X-9655014Y20691731D01*
X-105648634Y1937531D02*
G75*
G03*
X-105327614Y1307494I475528J-154509D01*
G01*
X130573845Y-2213504D02*
G75*
G03*
X130820820Y-1439975I-154445J475504D01*
G01*
X-13981252Y7376940D02*
X-26344987Y11394160D01*
X83384344Y26773053D02*
G75*
G03*
X83063333Y26142988I154556J-475553D01*
G01*
X-56736111Y-9328683D02*
G75*
G03*
X-57057131Y-8698647I-475528J154508D01*
G01*
X44932243Y-31249165D02*
G75*
G03*
X45562269Y-31570188I475557J154565D01*
G01*
X-118491275Y19043305D02*
X-106127541Y15026084D01*
X24831299Y-42196474D02*
X20814078Y-29832739D01*
X48976505Y1608763D02*
G75*
G03*
X48346476Y1929785I-475505J-154463D01*
G01*
X-42487156Y21580952D02*
X-38469935Y33944687D01*
X-124065584Y3505381D02*
G75*
G03*
X-123744564Y2875344I475528J-154509D01*
G01*
X-120048363Y15869115D02*
X-124065584Y3505381D01*
X-14587283Y3893732D02*
G75*
G03*
X-14908303Y4523770I-475529J154509D01*
G01*
X-82457302Y29626193D02*
G75*
G03*
X-81827266Y29947214I154505J475534D01*
G01*
X-56130080Y-5845477D02*
G75*
G03*
X-55500043Y-5524457I154509J475528D01*
G01*
X-47740445Y5412991D02*
G75*
G03*
X-47419425Y4782955I475528J-154508D01*
G01*
X-57057131Y-8698647D02*
X-69420865Y-4681426D01*
X-19234541Y-8791021D02*
G75*
G03*
X-18604504Y-8470001I154507J475531D01*
G01*
X-114287568Y54065020D02*
G75*
G03*
X-115032484Y53798290I-269384J-421227D01*
G01*
X43723240Y17776731D02*
G75*
G03*
X43093188Y18097746I-475540J-154531D01*
G01*
X-27902074Y8219971D02*
X-31919295Y-4143764D01*
X34128869Y-25506501D02*
X38146090Y-37870236D01*
X64502854Y51111148D02*
X64494475Y51206667D01*
X74546980Y-4277627D02*
X86910714Y-260406D01*
X-47906035Y49030509D02*
G75*
G03*
X-61754745Y51463980I-23580894J-93574438D01*
G01*
X-100874252Y31194046D02*
G75*
G03*
X-100244215Y31515064I154509J475528D01*
G01*
X24487830Y-24958982D02*
X36851564Y-20941761D01*
X-45623502Y26490446D02*
G75*
G03*
X-44993465Y26811464I154509J475528D01*
G01*
X-101631413Y14301265D02*
X-105648634Y1937531D01*
X120048387Y15869123D02*
G75*
G03*
X119418326Y16190135I-475587J-154623D01*
G01*
X59544309Y27333471D02*
G75*
G03*
X58914288Y27654496I-475509J-154471D01*
G01*
X70220746Y9037151D02*
G75*
G03*
X69899722Y8407127I154554J-475551D01*
G01*
X-105327614Y1307494D02*
X-92963880Y-2709727D01*
X50246783Y10643513D02*
G75*
G03*
X50876791Y10322484I475517J154487D01*
G01*
X40308980Y-15402227D02*
X52672714Y-11385006D01*
X-130820820Y-1439975D02*
G75*
G03*
X-130573855Y-2213536I401466J-298032D01*
G01*
X-53660999Y43822457D02*
X-41297264Y39805235D01*
X-20814078Y-29832739D02*
X-24831299Y-42196474D01*
X-58308255Y31137702D02*
G75*
G03*
X-57987237Y30507665I475528J-154509D01*
G01*
X-63240525Y14339705D02*
X-50876791Y10322484D01*
X-114795074Y32037076D02*
X-118812295Y19673340D01*
X72707935Y45069287D02*
X76725156Y32705552D01*
X-31919295Y-4143764D02*
G75*
G03*
X-31598275Y-4773800I475528J-154508D01*
G01*
X126419375Y-3563374D02*
G75*
G03*
X87350462Y-19331981I93783125J-288644326D01*
G01*
X-52993734Y-10754969D02*
G75*
G03*
X-52672714Y-11385006I475528J-154509D01*
G01*
X63240521Y14339716D02*
G75*
G03*
X63561545Y14969741I-154421J475484D01*
G01*
X-59393144Y40743049D02*
X-63410365Y28379314D01*
X69899722Y8407127D02*
X73916943Y-3956606D01*
X14908301Y4523775D02*
G75*
G03*
X14587283Y3893733I154599J-475575D01*
G01*
X47740445Y5412992D02*
X43723224Y17776726D01*
X88316622Y9975027D02*
X92333843Y-2388707D01*
X114795060Y32037072D02*
G75*
G03*
X114165038Y32358096I-475560J-154572D01*
G01*
X-70220742Y9037164D02*
X-82584476Y13054385D01*
X22648790Y24387934D02*
G75*
G03*
X22018749Y24708952I-475490J-154434D01*
G01*
X118491281Y19043286D02*
G75*
G03*
X118812295Y19673341I-154481J475514D01*
G01*
X100074322Y17475465D02*
G75*
G03*
X100395345Y18105490I-154522J475535D01*
G01*
X-87350462Y-19331981D02*
G75*
G03*
X-86683200Y-19103661I218868J449553D01*
G01*
X-82457302Y29626194D02*
X-94821037Y33643415D01*
X1099999Y-50155601D02*
G75*
G03*
X1600000Y-50655601I500001J1D01*
G01*
X-45623502Y26490445D02*
X-57987237Y30507665D01*
X-90494799Y46958208D02*
X-78131064Y42940986D01*
X-81978445Y16537591D02*
G75*
G03*
X-81657425Y15907555I475528J-154508D01*
G01*
X30729444Y14080553D02*
G75*
G03*
X30408433Y13450488I154556J-475553D01*
G01*
X-73916943Y-3956607D02*
X-69899722Y8407127D01*
X34128875Y-25506499D02*
G75*
G03*
X33498832Y-25185482I-475575J-154601D01*
G01*
X83214505Y12733363D02*
G75*
G03*
X82584476Y13054385I-475505J-154463D01*
G01*
X52993734Y-10754969D02*
X48976513Y1608766D01*
X-77961224Y28901327D02*
X-81978445Y16537591D01*
X-62311270Y50918894D02*
X-62303258Y51010223D01*
X119418326Y16190135D02*
X107054592Y12172914D01*
X-64967453Y25205124D02*
X-77331188Y29222346D01*
X-48830898Y44457231D02*
G75*
G03*
X-48509878Y43827194I475528J-154509D01*
G01*
X70050901Y-5002445D02*
G75*
G03*
X69420865Y-4681426I-475501J-154455D01*
G01*
X84485463Y-20745532D02*
X68715219Y-29220183D01*
X19234541Y-8791021D02*
X31598275Y-4773800D01*
X77331188Y29222346D02*
X64967453Y25205125D01*
X29172387Y17254721D02*
G75*
G03*
X29802402Y16933695I475513J154479D01*
G01*
X82584476Y13054385D02*
X70220742Y9037164D01*
X-53599765Y-14238177D02*
G75*
G03*
X-54229802Y-14559195I-154509J-475528D01*
G01*
X64967444Y25205153D02*
G75*
G03*
X64646433Y24575088I154556J-475553D01*
G01*
X33155384Y-7947983D02*
G75*
G03*
X32525326Y-7626970I-475584J-154617D01*
G01*
X-64040402Y28058296D02*
G75*
G03*
X-63410365Y28379314I154509J475528D01*
G01*
X-63561545Y14969741D02*
G75*
G03*
X-63240525Y14339705I475528J-154508D01*
G01*
X-37839899Y34265707D02*
G75*
G03*
X-38469935Y33944687I-154508J-475528D01*
G01*
X46550563Y23637242D02*
G75*
G03*
X46229533Y23007238I154537J-475542D01*
G01*
X19840572Y-12274228D02*
X23857794Y-24637962D01*
X-47552687Y48391158D02*
G75*
G03*
X-47906035Y49030509I-475529J154508D01*
G01*
X-58308256Y31137702D02*
X-54291035Y43501437D01*
X27902057Y8219965D02*
G75*
G03*
X27272038Y8540991I-475557J-154565D01*
G01*
X-48346476Y1929785D02*
G75*
G03*
X-48976513Y1608765I-154509J-475528D01*
G01*
X-35055692Y765735D02*
G75*
G03*
X-34425654Y1086754I154511J475525D01*
G01*
X-9333995Y20061695D02*
G75*
G03*
X-9655014Y20691731I-475530J154507D01*
G01*
X91124835Y46637187D02*
X95142055Y34273452D01*
X86683196Y-19103663D02*
G75*
G03*
X87350462Y-19331981I448404J221263D01*
G01*
X-87080554Y13779254D02*
X-83063334Y26142988D01*
X62311342Y50918900D02*
G75*
G03*
X64502854Y51111148I1095758J96100D01*
G01*
X58914288Y27654496D02*
X46550553Y23637274D01*
X-44932232Y-31249168D02*
X-40915012Y-18885433D01*
X45562269Y-31570188D02*
X57926003Y-27552967D01*
X59714163Y41373086D02*
X72077899Y45390308D01*
X-43723224Y17776726D02*
X-47740445Y5412991D01*
X-76725156Y32705552D02*
X-72707935Y45069287D01*
X-30408433Y13450488D02*
G75*
G03*
X-30729453Y14080525I-475528J154509D01*
G01*
X34425653Y1086754D02*
G75*
G03*
X35055691Y765734I475547J154546D01*
G01*
X107054587Y12172931D02*
G75*
G03*
X106733572Y11542877I154513J-475531D01*
G01*
X96548022Y44508814D02*
G75*
G03*
X96226994Y43878799I154478J-475514D01*
G01*
X-83214513Y12733364D02*
X-87231734Y369631D01*
X54291044Y43501440D02*
G75*
G03*
X53660999Y43822457I-475544J-154540D01*
G01*
X18604531Y-8469993D02*
G75*
G03*
X19234541Y-8791021I475469J154393D01*
G01*
X-114165038Y32358096D02*
G75*
G03*
X-114795074Y32037076I-154508J-475528D01*
G01*
X-25461336Y-42517494D02*
G75*
G03*
X-24831299Y-42196474I154509J475528D01*
G01*
X-10510602Y11274766D02*
G75*
G03*
X-11000037Y8184596I9510508J-3090161D01*
G01*
X96378140Y30469231D02*
G75*
G03*
X95748088Y30790246I-475540J-154531D01*
G01*
X-68814834Y-1198219D02*
G75*
G03*
X-68493814Y-1828256I475528J-154509D01*
G01*
X-81657425Y15907555D02*
X-69293691Y11890334D01*
X-118812295Y19673340D02*
G75*
G03*
X-118491275Y19043305I475526J-154508D01*
G01*
X68814834Y-1198219D02*
X64797613Y11165515D01*
X-6500037Y22499991D02*
X6500037Y22499991D01*
X112610748Y55177725D02*
G75*
G03*
X114287568Y54065020I1084152J-186025D01*
G01*
X81657422Y15907565D02*
G75*
G03*
X81978445Y16537591I-154522J475535D01*
G01*
X92963880Y-2709727D02*
X105327614Y1307494D01*
X37825066Y-38500257D02*
G75*
G03*
X38146090Y-37870236I-154566J475557D01*
G01*
X-61383370Y-22013437D02*
G75*
G03*
X-60753332Y-21692418I154511J475525D01*
G01*
X-119418326Y16190135D02*
G75*
G03*
X-120048363Y15869115I-154509J-475528D01*
G01*
X53599764Y-14238176D02*
X41236031Y-18255397D01*
X21135087Y-29202670D02*
G75*
G03*
X20814078Y-29832739I154513J-475530D01*
G01*
X-27272038Y8540991D02*
G75*
G03*
X-27902074Y8219971I-154508J-475528D01*
G01*
X68663652Y12211354D02*
G75*
G03*
X69293691Y11890335I475548J154546D01*
G01*
X105648634Y1937531D02*
X101631414Y14301265D01*
X-88637642Y10605064D02*
X-101001376Y14622285D01*
X109541793Y48205040D02*
G75*
G03*
X108911749Y48526057I-475493J-154440D01*
G01*
X-29802402Y16933695D02*
X-42166137Y20950915D01*
X-25461336Y-42517494D02*
X-37825071Y-38500273D01*
X-11000037Y-44500009D02*
G75*
G03*
X-10000036Y-45500009I1000018J18D01*
G01*
M02*
