G04 #@! TF.GenerationSoftware,KiCad,Pcbnew,(6.0.7)*
G04 #@! TF.CreationDate,2022-09-06T15:12:06+02:00*
G04 #@! TF.ProjectId,osprey_plate,6f737072-6579-45f7-906c-6174652e6b69,rev?*
G04 #@! TF.SameCoordinates,Original*
G04 #@! TF.FileFunction,Legend,Top*
G04 #@! TF.FilePolarity,Positive*
%FSLAX46Y46*%
G04 Gerber Fmt 4.6, Leading zero omitted, Abs format (unit mm)*
G04 Created by KiCad (PCBNEW (6.0.7)) date 2022-09-06 15:12:06*
%MOMM*%
%LPD*%
G01*
G04 APERTURE LIST*
%ADD10C,1.200000*%
%ADD11C,2.500000*%
%ADD12C,0.110000*%
G04 APERTURE END LIST*
%LPC*%
D10*
X-26666006Y12024197D02*
X-22648785Y24387932D01*
D11*
X64950151Y51748558D02*
X112075553Y55760466D01*
X-62311268Y50918894D02*
X-62303256Y51010223D01*
D10*
X-56130080Y-5845477D02*
G75*
G03*
X-55500043Y-5524457I154509J475528D01*
G01*
X-25461336Y-42517494D02*
X-37825071Y-38500273D01*
X83063333Y26142988D02*
X87080554Y13779254D01*
X113237987Y35211265D02*
X100874252Y31194045D01*
X-69420865Y-4681427D02*
G75*
G03*
X-70050902Y-5002445I-154509J-475528D01*
G01*
D11*
X84485455Y-20745512D02*
G75*
G03*
X84710270Y-20077078I-223555J447212D01*
G01*
D10*
X68814834Y-1198219D02*
X64797613Y11165515D01*
X-40976244Y39175199D02*
X-44993465Y26811464D01*
X-41236031Y-18255397D02*
X-53599765Y-14238176D01*
X91124835Y46637187D02*
X95142055Y34273452D01*
X101801304Y28340873D02*
G75*
G03*
X101480283Y27710838I154596J-475573D01*
G01*
X100395345Y18105490D02*
X96378123Y30469226D01*
X63561545Y14969741D02*
X59544324Y27333476D01*
X94821039Y33643408D02*
G75*
G03*
X95142055Y34273452I-154439J475492D01*
G01*
X54291035Y43501437D02*
X58308256Y31137702D01*
X20161584Y-11644168D02*
G75*
G03*
X19840572Y-12274228I154516J-475532D01*
G01*
D11*
X1100002Y-50055601D02*
G75*
G03*
X-1099998Y-50055601I-1100000J0D01*
G01*
D10*
X34425653Y1086754D02*
G75*
G03*
X35055691Y765734I475547J154546D01*
G01*
X-45562268Y-31570187D02*
G75*
G03*
X-44932232Y-31249168I154507J475530D01*
G01*
X-95142055Y34273452D02*
G75*
G03*
X-94821037Y33643415I475528J-154509D01*
G01*
X19234541Y-8791021D02*
X31598275Y-4773800D01*
X24831299Y-42196474D02*
X20814078Y-29832739D01*
D11*
X-64494473Y51206666D02*
X-64502852Y51111148D01*
D10*
X-120048363Y15869115D02*
X-124065584Y3505381D01*
X27902118Y8219985D02*
G75*
G03*
X27272038Y8540991I-475618J-154685D01*
G01*
X-64167576Y11486535D02*
G75*
G03*
X-64797613Y11165515I-154509J-475528D01*
G01*
X-42487156Y21580952D02*
X-38469935Y33944687D01*
D11*
X-112075549Y55760467D02*
G75*
G03*
X-112610762Y55177722I-42447J-498167D01*
G01*
D10*
X50246722Y10643493D02*
G75*
G03*
X50876791Y10322484I475578J154607D01*
G01*
X29172387Y17254721D02*
G75*
G03*
X29802402Y16933695I475513J154479D01*
G01*
X119418326Y16190135D02*
X107054592Y12172914D01*
X120048387Y15869123D02*
G75*
G03*
X119418326Y16190135I-475587J-154623D01*
G01*
X-90494799Y46958209D02*
G75*
G03*
X-91124835Y46637187I-154507J-475530D01*
G01*
X-64797613Y11165515D02*
X-68814834Y-1198219D01*
X83214505Y12733363D02*
G75*
G03*
X82584476Y13054385I-475505J-154463D01*
G01*
D11*
X115032548Y53798310D02*
G75*
G03*
X114287570Y54065020I-475548J-154510D01*
G01*
D10*
X88316622Y9975027D02*
X92333843Y-2388707D01*
X-58308255Y31137702D02*
G75*
G03*
X-57987237Y30507665I475528J-154509D01*
G01*
X82584476Y13054385D02*
X70220742Y9037164D01*
X-87231734Y369631D02*
G75*
G03*
X-86910714Y-260406I475528J-154509D01*
G01*
X-64646434Y24575088D02*
G75*
G03*
X-64967453Y25205124I-475530J154507D01*
G01*
D11*
X1100002Y-50155601D02*
X1100002Y-50055601D01*
D10*
X78131064Y42940986D02*
X90494799Y46958207D01*
X-54229802Y-14559195D02*
X-58247023Y-26922930D01*
X-37172584Y-20311724D02*
G75*
G03*
X-36851564Y-20941761I475528J-154509D01*
G01*
X-53660999Y43822457D02*
X-41297264Y39805235D01*
X-40308980Y-15402226D02*
G75*
G03*
X-39678944Y-15081207I154507J475530D01*
G01*
X-96378124Y30469226D02*
X-100395345Y18105491D01*
X64167576Y11486535D02*
X51803842Y7469314D01*
X-47740445Y5412991D02*
G75*
G03*
X-47419425Y4782955I475528J-154508D01*
G01*
X63240521Y14339716D02*
G75*
G03*
X63561545Y14969741I-154421J475484D01*
G01*
X54291044Y43501440D02*
G75*
G03*
X53660999Y43822457I-475544J-154540D01*
G01*
X-69293691Y11890334D02*
G75*
G03*
X-68663654Y12211354I154509J475528D01*
G01*
X69420865Y-4681426D02*
X57057131Y-8698647D01*
X100074322Y17475465D02*
G75*
G03*
X100395345Y18105490I-154522J475535D01*
G01*
X105327604Y1307525D02*
G75*
G03*
X105648634Y1937531I-154404J475475D01*
G01*
X94821037Y33643415D02*
X82457302Y29626195D01*
X-70220742Y9037164D02*
X-82584476Y13054385D01*
X-83063334Y26142988D02*
G75*
G03*
X-83384353Y26773025I-475526J154510D01*
G01*
X-42487155Y21580952D02*
G75*
G03*
X-42166137Y20950915I475528J-154509D01*
G01*
X-44932232Y-31249168D02*
X-40915012Y-18885433D01*
X-51482822Y6839277D02*
G75*
G03*
X-51803842Y7469314I-475528J154509D01*
G01*
X-25461336Y-42517494D02*
G75*
G03*
X-24831299Y-42196474I154509J475528D01*
G01*
X-38146089Y-37870236D02*
G75*
G03*
X-37825071Y-38500273I475528J-154509D01*
G01*
X59714163Y41373086D02*
X72077899Y45390308D01*
X-101001376Y14622285D02*
G75*
G03*
X-101631413Y14301265I-154509J-475528D01*
G01*
X-63561545Y14969741D02*
G75*
G03*
X-63240525Y14339705I475528J-154508D01*
G01*
D11*
X126419373Y-3563362D02*
G75*
G03*
X87350464Y-19331981I93784027J-288646338D01*
G01*
D10*
X-30729453Y14080525D02*
X-43093188Y18097746D01*
X-77961224Y28901327D02*
X-81978445Y16537591D01*
X-13981252Y7376941D02*
G75*
G03*
X-13351215Y7697959I154509J475528D01*
G01*
X-9333994Y20061695D02*
X-13351215Y7697959D01*
X-25155144Y29618449D02*
X-29172365Y17254714D01*
X-22018749Y24708951D02*
G75*
G03*
X-22648785Y24387932I-154509J-475526D01*
G01*
X22648785Y24387932D02*
X26666006Y12024197D01*
X105497534Y15347114D02*
G75*
G03*
X106127541Y15026084I475466J154386D01*
G01*
X37825086Y-38500318D02*
G75*
G03*
X38146090Y-37870236I-154686J475618D01*
G01*
X39678917Y-15081215D02*
G75*
G03*
X40308980Y-15402227I475583J154615D01*
G01*
X-52993734Y-10754969D02*
G75*
G03*
X-52672714Y-11385006I475528J-154509D01*
G01*
D11*
X112610765Y55177722D02*
G75*
G03*
X112075553Y55760466I-492765J84578D01*
G01*
D10*
X96548015Y44508836D02*
X108911749Y48526057D01*
X27272038Y8540991D02*
X14908303Y4523770D01*
X-123744564Y2875344D02*
X-111380830Y-1141877D01*
X32525326Y-7626970D02*
X20161592Y-11644191D01*
X43093188Y18097746D02*
X30729453Y14080525D01*
X-100074325Y17475455D02*
X-87710591Y13458234D01*
X24831287Y-42196478D02*
G75*
G03*
X25461336Y-42517494I475513J154478D01*
G01*
X52993734Y-10754969D02*
X48976513Y1608766D01*
X-59393144Y40743049D02*
X-63410365Y28379314D01*
X81657422Y15907565D02*
G75*
G03*
X81978445Y16537591I-154522J475535D01*
G01*
X-105497504Y15347104D02*
X-101480283Y27710838D01*
D11*
X62311340Y50918900D02*
G75*
G03*
X64502856Y51111148I1095760J96100D01*
G01*
D10*
X78131062Y42940992D02*
G75*
G03*
X77810044Y42310949I154438J-475492D01*
G01*
X88637646Y10605051D02*
G75*
G03*
X88316622Y9975027I154554J-475551D01*
G01*
X33155384Y-7947983D02*
G75*
G03*
X32525326Y-7626970I-475584J-154617D01*
G01*
X-40915012Y-18885433D02*
G75*
G03*
X-41236031Y-18255397I-475526J154509D01*
G01*
X124065583Y3505381D02*
X120048363Y15869115D01*
X9655015Y20691731D02*
X22018749Y24708952D01*
D11*
X-1599998Y-50655601D02*
X-3950435Y-50655601D01*
D10*
X-64040402Y28058296D02*
G75*
G03*
X-63410365Y28379314I154509J475528D01*
G01*
X95748088Y30790246D02*
X83384353Y26773025D01*
X-36851564Y-20941761D02*
X-24487830Y-24958982D01*
X105648634Y1937531D02*
X101631414Y14301265D01*
X-19840572Y-12274228D02*
G75*
G03*
X-20161592Y-11644191I-475526J154510D01*
G01*
X25476162Y30248492D02*
G75*
G03*
X25155144Y29618449I154438J-475492D01*
G01*
X-53660999Y43822457D02*
G75*
G03*
X-54291035Y43501437I-154508J-475528D01*
G01*
X24487830Y-24958982D02*
X36851564Y-20941761D01*
X-48976513Y1608765D02*
X-52993734Y-10754969D01*
X-82457302Y29626193D02*
G75*
G03*
X-81827266Y29947214I154505J475534D01*
G01*
X109541793Y48205040D02*
G75*
G03*
X108911749Y48526057I-475493J-154440D01*
G01*
X43723240Y17776731D02*
G75*
G03*
X43093188Y18097746I-475540J-154531D01*
G01*
X-77810044Y42310949D02*
X-81827266Y29947214D01*
X30729464Y14080492D02*
G75*
G03*
X30408433Y13450488I154436J-475492D01*
G01*
X-96226994Y43878799D02*
X-100244215Y31515064D01*
X-40976245Y39175199D02*
G75*
G03*
X-41297264Y39805235I-475530J154507D01*
G01*
X57926007Y-27552978D02*
G75*
G03*
X58247023Y-26922930I-154607J475578D01*
G01*
X41297261Y39805244D02*
G75*
G03*
X40976244Y39175199I154539J-475544D01*
G01*
D11*
X-68715217Y-29220183D02*
X-84485461Y-20745532D01*
D10*
X-13981252Y7376940D02*
X-26344987Y11394160D01*
X87710591Y13458234D02*
X100074325Y17475455D01*
D11*
X-114287566Y54065020D02*
G75*
G03*
X-112610762Y55177722I592653J926686D01*
G01*
D10*
X-101480282Y27710838D02*
G75*
G03*
X-101801304Y28340875I-475531J154507D01*
G01*
X83384364Y26772992D02*
G75*
G03*
X83063333Y26142988I154436J-475492D01*
G01*
D11*
X-132196065Y970108D02*
G75*
G03*
X-131715382Y315636I475595J-154452D01*
G01*
D10*
X-52672714Y-11385006D02*
X-40308980Y-15402227D01*
X57057128Y-8698639D02*
G75*
G03*
X56736110Y-9328683I154572J-475561D01*
G01*
X56130080Y-5845477D02*
X68493814Y-1828256D01*
X-46229533Y23007238D02*
G75*
G03*
X-46550553Y23637275I-475528J154509D01*
G01*
X18604531Y-8469993D02*
G75*
G03*
X19234541Y-8791021I475469J154393D01*
G01*
D11*
X130573847Y-2213505D02*
G75*
G03*
X130820822Y-1439975I-154447J475505D01*
G01*
D10*
X40308980Y-15402227D02*
X52672714Y-11385006D01*
X-35982742Y-2087436D02*
X-48346476Y1929785D01*
X-107054592Y12172914D02*
X-119418326Y16190135D01*
X92333817Y-2388715D02*
G75*
G03*
X92963880Y-2709727I475583J154615D01*
G01*
X19840572Y-12274228D02*
X23857794Y-24637962D01*
X-114795074Y32037076D02*
X-118812295Y19673340D01*
X31919295Y-4143764D02*
X27902074Y8219971D01*
X74068123Y-17366180D02*
X70050902Y-5002445D01*
X-45623502Y26490446D02*
G75*
G03*
X-44993465Y26811464I154509J475528D01*
G01*
X51803846Y7469301D02*
G75*
G03*
X51482822Y6839277I154454J-475501D01*
G01*
X-23857793Y-24637962D02*
X-19840572Y-12274228D01*
X-77331188Y29222346D02*
G75*
G03*
X-77961224Y28901327I-154508J-475528D01*
G01*
X86910704Y-260375D02*
G75*
G03*
X87231734Y369631I-154404J475475D01*
G01*
X-50876791Y10322484D02*
G75*
G03*
X-50246754Y10643504I154509J475528D01*
G01*
X77961240Y28901331D02*
G75*
G03*
X77331188Y29222346I-475540J-154531D01*
G01*
D11*
X62303316Y51010228D02*
G75*
G03*
X61754747Y51463980I-498116J-43728D01*
G01*
D10*
X60753313Y-21692425D02*
G75*
G03*
X61383369Y-22013438I475587J154625D01*
G01*
X-100395345Y18105491D02*
G75*
G03*
X-100074325Y17475455I475528J-154508D01*
G01*
X47419423Y4782965D02*
G75*
G03*
X47740445Y5412992I-154523J475535D01*
G01*
X91124813Y46637180D02*
G75*
G03*
X90494799Y46958207I-475513J-154480D01*
G01*
X70220746Y9037151D02*
G75*
G03*
X69899722Y8407127I154554J-475551D01*
G01*
X36851562Y-20941756D02*
G75*
G03*
X37172584Y-20311724I-154562J475556D01*
G01*
X-57926003Y-27552967D02*
X-45562268Y-31570188D01*
X-90494799Y46958208D02*
X-78131064Y42940986D01*
X52672704Y-11384975D02*
G75*
G03*
X52993734Y-10754969I-154404J475475D01*
G01*
X-69899722Y8407127D02*
G75*
G03*
X-70220742Y9037164I-475528J154509D01*
G01*
X14587283Y3893733D02*
X18604505Y-8470001D01*
X-31598275Y-4773800D02*
X-19234541Y-8791021D01*
X106127541Y15026084D02*
X118491275Y19043305D01*
D11*
X-64494473Y51206666D02*
G75*
G03*
X-64950147Y51748558I-498190J43608D01*
G01*
D10*
X-50246754Y10643504D02*
X-46229533Y23007238D01*
X21135107Y-29202731D02*
G75*
G03*
X20814078Y-29832739I154393J-475469D01*
G01*
X-30408433Y13450488D02*
G75*
G03*
X-30729453Y14080525I-475528J154509D01*
G01*
D11*
X1099999Y-50155601D02*
G75*
G03*
X1600002Y-50655601I500001J1D01*
G01*
D10*
X29172365Y17254714D02*
X25155144Y29618449D01*
X-43093188Y18097746D02*
G75*
G03*
X-43723224Y17776726I-154508J-475528D01*
G01*
X107054587Y12172931D02*
G75*
G03*
X106733572Y11542877I154513J-475531D01*
G01*
D11*
X-114287566Y54065020D02*
G75*
G03*
X-115032482Y53798290I-269362J-421287D01*
G01*
D10*
X40915011Y-18885433D02*
X44932232Y-31249168D01*
D11*
X-112075549Y55760466D02*
X-64950147Y51748558D01*
D10*
X45562269Y-31570188D02*
X57926003Y-27552967D01*
X-105648634Y1937531D02*
G75*
G03*
X-105327614Y1307494I475528J-154509D01*
G01*
X-46550553Y23637275D02*
X-58914288Y27654496D01*
X-29802402Y16933696D02*
G75*
G03*
X-29172365Y17254714I154509J475528D01*
G01*
X-83214513Y12733364D02*
X-87231734Y369631D01*
X57987240Y30507657D02*
G75*
G03*
X58308256Y31137702I-154540J475543D01*
G01*
X-113559007Y35841303D02*
G75*
G03*
X-113237987Y35211265I475532J-154508D01*
G01*
X-106127541Y15026084D02*
G75*
G03*
X-105497504Y15347104I154509J475528D01*
G01*
X-100874252Y31194045D02*
X-113237987Y35211265D01*
X73747107Y-17996228D02*
G75*
G03*
X74068123Y-17366180I-154507J475528D01*
G01*
X70050901Y-5002445D02*
G75*
G03*
X69420865Y-4681426I-475501J-154455D01*
G01*
D11*
X-64502852Y51111148D02*
G75*
G03*
X-62311268Y50918894I1095787J-96187D01*
G01*
D10*
X-76725156Y32705552D02*
X-72707935Y45069287D01*
X-76725155Y32705552D02*
G75*
G03*
X-76404137Y32075515I475528J-154509D01*
G01*
X-47419425Y4782955D02*
X-35055692Y765734D01*
X-77810044Y42310949D02*
G75*
G03*
X-78131064Y42940986I-475528J154509D01*
G01*
X30408433Y13450488D02*
X34425654Y1086754D01*
D11*
X-1099998Y-50055601D02*
X-1099998Y-50155601D01*
D10*
X92963880Y-2709727D02*
X105327614Y1307494D01*
X26344998Y11394127D02*
G75*
G03*
X26666006Y12024197I-154598J475573D01*
G01*
X-124065584Y3505381D02*
G75*
G03*
X-123744564Y2875344I475528J-154509D01*
G01*
X101480283Y27710838D02*
X105497504Y15347104D01*
X37172584Y-20311724D02*
X33155363Y-7947990D01*
X-58914288Y27654497D02*
G75*
G03*
X-59544324Y27333475I-154507J-475530D01*
G01*
X37825071Y-38500273D02*
X25461336Y-42517494D01*
X41236029Y-18255391D02*
G75*
G03*
X40915011Y-18885433I154471J-475509D01*
G01*
X13351215Y7697959D02*
X9333994Y20061694D01*
X58247023Y-26922930D02*
X54229802Y-14559195D01*
X-72077899Y45390307D02*
G75*
G03*
X-72707935Y45069287I-154509J-475526D01*
G01*
X74546980Y-4277627D02*
X86910714Y-260406D01*
X-68814834Y-1198219D02*
G75*
G03*
X-68493814Y-1828256I475528J-154509D01*
G01*
X35055691Y765734D02*
X47419426Y4782955D01*
X-33498833Y-25185482D02*
X-21135098Y-29202703D01*
D11*
X115032486Y53798290D02*
X132196069Y970108D01*
D10*
X34128869Y-25506501D02*
X38146090Y-37870236D01*
X114795060Y32037072D02*
G75*
G03*
X114165038Y32358096I-475560J-154572D01*
G01*
X87080553Y13779254D02*
G75*
G03*
X87710591Y13458234I475547J154546D01*
G01*
X-55500043Y-5524457D02*
X-51482822Y6839277D01*
X-34425654Y1086754D02*
X-30408433Y13450488D01*
X-59393144Y40743049D02*
G75*
G03*
X-59714164Y41373086I-475528J154509D01*
G01*
D11*
X-44108648Y-41902783D02*
G75*
G03*
X-3950435Y-50655601I40158204J87747141D01*
G01*
D10*
X26344987Y11394160D02*
X13981252Y7376940D01*
X-58308256Y31137702D02*
X-54291035Y43501437D01*
X56736110Y-9328683D02*
X60753332Y-21692419D01*
X72707935Y45069287D02*
X76725156Y32705552D01*
X-45623502Y26490445D02*
X-57987237Y30507665D01*
X48976505Y1608763D02*
G75*
G03*
X48346476Y1929785I-475505J-154463D01*
G01*
D11*
X-130820819Y-1439975D02*
G75*
G03*
X-130573853Y-2213536I401389J-298057D01*
G01*
D10*
X21135098Y-29202703D02*
X33498832Y-25185482D01*
X-81978445Y16537591D02*
G75*
G03*
X-81657425Y15907555I475528J-154508D01*
G01*
X-113559006Y35841303D02*
X-109541785Y48205037D01*
X-20814078Y-29832739D02*
G75*
G03*
X-21135098Y-29202703I-475528J154508D01*
G01*
X-43723224Y17776726D02*
X-47740445Y5412991D01*
X100244208Y31515062D02*
G75*
G03*
X100874252Y31194045I475492J154438D01*
G01*
X113237980Y35211287D02*
G75*
G03*
X113559006Y35841302I-154480J475513D01*
G01*
X-110750793Y-820857D02*
X-106733572Y11542877D01*
X69293691Y11890335D02*
X81657425Y15907555D01*
X-64967453Y25205124D02*
X-77331188Y29222346D01*
D11*
X-47906033Y49030509D02*
G75*
G03*
X-61754743Y51463980I-23580754J-93573644D01*
G01*
D10*
X44932243Y-31249165D02*
G75*
G03*
X45562269Y-31570188I475557J154565D01*
G01*
D11*
X3950439Y-50655601D02*
G75*
G03*
X44108652Y-41902783I1J96500001D01*
G01*
X44108652Y-41902783D02*
G75*
G03*
X68715221Y-29220183I-123386861J269605057D01*
G01*
D10*
X96378140Y30469231D02*
G75*
G03*
X95748088Y30790246I-475540J-154531D01*
G01*
X-95142056Y34273452D02*
X-91124835Y46637187D01*
X-73916943Y-3956607D02*
X-69899722Y8407127D01*
D11*
X131715386Y315587D02*
G75*
G03*
X132196069Y970108I5114J500013D01*
G01*
D10*
X42166137Y20950915D02*
X29802402Y16933695D01*
X41297264Y39805236D02*
X53660999Y43822457D01*
X64967464Y25205092D02*
G75*
G03*
X64646433Y24575088I154436J-475492D01*
G01*
D11*
X-61754743Y51463980D02*
G75*
G03*
X-62303256Y51010223I-50361J-497529D01*
G01*
D10*
X59714161Y41373092D02*
G75*
G03*
X59393144Y40743049I154439J-475492D01*
G01*
X-82457302Y29626194D02*
X-94821037Y33643415D01*
X-27902074Y8219971D02*
X-31919295Y-4143764D01*
X-35055692Y765735D02*
G75*
G03*
X-34425654Y1086754I154511J475525D01*
G01*
X77331188Y29222346D02*
X64967453Y25205125D01*
X63410387Y28379321D02*
G75*
G03*
X64040402Y28058295I475513J154479D01*
G01*
D11*
X-1599998Y-50655601D02*
G75*
G03*
X-1099998Y-50155601I-1J500001D01*
G01*
D10*
X-22018749Y24708951D02*
X-9655014Y20691731D01*
X47740445Y5412992D02*
X43723224Y17776726D01*
X-59544324Y27333475D02*
X-63561545Y14969741D01*
X-19234541Y-8791021D02*
G75*
G03*
X-18604504Y-8470001I154507J475531D01*
G01*
X-73747103Y-17996217D02*
X-61383370Y-22013438D01*
X42166139Y20950908D02*
G75*
G03*
X42487155Y21580952I-154439J475492D01*
G01*
X34128875Y-25506499D02*
G75*
G03*
X33498832Y-25185482I-475575J-154601D01*
G01*
X-33498833Y-25185482D02*
G75*
G03*
X-34128869Y-25506502I-154509J-475526D01*
G01*
D11*
X-86637089Y-19010206D02*
X-86683198Y-19103661D01*
D10*
X-35661722Y-2717473D02*
G75*
G03*
X-35982742Y-2087436I-475531J154507D01*
G01*
X109541785Y48205037D02*
X113559006Y35841302D01*
X59544309Y27333471D02*
G75*
G03*
X58914288Y27654496I-475509J-154471D01*
G01*
X38469935Y33944687D02*
X42487155Y21580952D01*
X-119418326Y16190135D02*
G75*
G03*
X-120048363Y15869115I-154509J-475528D01*
G01*
X53599764Y-14238176D02*
X41236031Y-18255397D01*
X-32525326Y-7626970D02*
G75*
G03*
X-33155363Y-7947990I-154509J-475528D01*
G01*
X-108911749Y48526057D02*
G75*
G03*
X-109541785Y48205037I-154508J-475528D01*
G01*
X-20161592Y-11644191D02*
X-32525326Y-7626970D01*
D11*
X-84710265Y-20077078D02*
G75*
G03*
X-84485461Y-20745532I448332J-221252D01*
G01*
D10*
X38469913Y33944680D02*
G75*
G03*
X37839899Y34265707I-475513J-154480D01*
G01*
D11*
X-84664156Y-19983624D02*
G75*
G03*
X-86637089Y-19010206I-986449J486745D01*
G01*
D10*
X-26666005Y12024197D02*
G75*
G03*
X-26344987Y11394160I475528J-154509D01*
G01*
X123744564Y2875344D02*
G75*
G03*
X124065583Y3505381I-154564J475556D01*
G01*
X-88637642Y10605064D02*
X-101001376Y14622285D01*
X-106733572Y11542877D02*
G75*
G03*
X-107054592Y12172914I-475528J154509D01*
G01*
X-86910714Y-260406D02*
X-74546981Y-4277627D01*
X68493824Y-1828287D02*
G75*
G03*
X68814834Y-1198219I-154624J475587D01*
G01*
X118491281Y19043286D02*
G75*
G03*
X118812295Y19673341I-154481J475514D01*
G01*
X-100874252Y31194046D02*
G75*
G03*
X-100244215Y31515064I154509J475528D01*
G01*
X72707914Y45069280D02*
G75*
G03*
X72077899Y45390308I-475514J-154480D01*
G01*
X-81657425Y15907555D02*
X-69293691Y11890334D01*
X-101801304Y28340875D02*
X-114165038Y32358096D01*
X14908301Y4523775D02*
G75*
G03*
X14587283Y3893733I154599J-475575D01*
G01*
D11*
X86637061Y-19010222D02*
G75*
G03*
X84664161Y-19983623I-986461J-486678D01*
G01*
D10*
X-108911749Y48526057D02*
X-96548014Y44508836D01*
X51482822Y6839277D02*
X55500042Y-5524457D01*
X-92333843Y-2388707D02*
X-88316622Y9975027D01*
D11*
X131715386Y315683D02*
G75*
G03*
X130820822Y-1439975I-11286J-1099983D01*
G01*
D10*
X-92963880Y-2709727D02*
G75*
G03*
X-92333843Y-2388707I154509J475528D01*
G01*
X-68493814Y-1828256D02*
X-56130080Y-5845477D01*
X-58247023Y-26922930D02*
G75*
G03*
X-57926003Y-27552967I475528J-154509D01*
G01*
D11*
X-84710266Y-20077078D02*
X-84664157Y-19983623D01*
D10*
X81827287Y29947222D02*
G75*
G03*
X82457302Y29626195I475513J154478D01*
G01*
X48346476Y1929785D02*
X35982742Y-2087436D01*
D11*
X112610747Y55177725D02*
G75*
G03*
X114287570Y54065020I1084153J-186025D01*
G01*
D10*
X-37839899Y34265707D02*
G75*
G03*
X-38469935Y33944687I-154508J-475528D01*
G01*
X73916917Y-3956615D02*
G75*
G03*
X74546980Y-4277627I475583J154615D01*
G01*
X101001376Y14622285D02*
X88637642Y10605064D01*
D11*
X-87350460Y-19331980D02*
G75*
G03*
X-86683198Y-19103661I218857J449586D01*
G01*
D10*
X-114165038Y32358096D02*
G75*
G03*
X-114795074Y32037076I-154508J-475528D01*
G01*
X-25155144Y29618449D02*
G75*
G03*
X-25476164Y30248486I-475528J154509D01*
G01*
D11*
X-130820818Y-1439975D02*
G75*
G03*
X-131715382Y315636I-883307J655631D01*
G01*
D10*
X-60753332Y-21692418D02*
X-56736111Y-9328683D01*
X-53599765Y-14238177D02*
G75*
G03*
X-54229802Y-14559195I-154509J-475528D01*
G01*
X101631405Y14301262D02*
G75*
G03*
X101001376Y14622285I-475505J-154462D01*
G01*
X31598279Y-4773814D02*
G75*
G03*
X31919295Y-4143764I-154479J475514D01*
G01*
X9655020Y20691715D02*
G75*
G03*
X9333994Y20061694I154480J-475515D01*
G01*
X68663652Y12211354D02*
G75*
G03*
X69293691Y11890335I475548J154546D01*
G01*
X-118812295Y19673340D02*
G75*
G03*
X-118491275Y19043305I475526J-154508D01*
G01*
X44993465Y26811464D02*
X40976244Y39175199D01*
X22648790Y24387934D02*
G75*
G03*
X22018749Y24708952I-475490J-154434D01*
G01*
X96548022Y44508814D02*
G75*
G03*
X96226994Y43878799I154478J-475514D01*
G01*
X-48346476Y1929785D02*
G75*
G03*
X-48976513Y1608765I-154509J-475528D01*
G01*
X13351205Y7697956D02*
G75*
G03*
X13981252Y7376940I475495J154444D01*
G01*
D11*
X61754747Y51463976D02*
G75*
G03*
X47906037Y49030509I9732153J-96007876D01*
G01*
D10*
X61383369Y-22013438D02*
X73747103Y-17996217D01*
X-38146090Y-37870236D02*
X-34128869Y-25506502D01*
X114165038Y32358096D02*
X101801303Y28340875D01*
X-95748088Y30790245D02*
G75*
G03*
X-96378124Y30469226I-154509J-475526D01*
G01*
X-87710591Y13458234D02*
G75*
G03*
X-87080554Y13779254I154509J475528D01*
G01*
X-105327614Y1307494D02*
X-92963880Y-2709727D01*
D11*
X84664161Y-19983623D02*
X84710270Y-20077078D01*
D10*
X81978445Y16537591D02*
X77961224Y28901326D01*
X100244215Y31515064D02*
X96226994Y43878799D01*
X110750799Y-820855D02*
G75*
G03*
X111380830Y-1141877I475501J154455D01*
G01*
X44993457Y26811462D02*
G75*
G03*
X45623502Y26490445I475543J154538D01*
G01*
X-14908303Y4523770D02*
X-27272038Y8540991D01*
X35982746Y-2087449D02*
G75*
G03*
X35661722Y-2717473I154554J-475551D01*
G01*
X-27272038Y8540991D02*
G75*
G03*
X-27902074Y8219971I-154508J-475528D01*
G01*
X76404140Y32075507D02*
G75*
G03*
X76725156Y32705552I-154440J475493D01*
G01*
X55500047Y-5524455D02*
G75*
G03*
X56130080Y-5845477I475553J154555D01*
G01*
D11*
X3950439Y-50655601D02*
X1600002Y-50655601D01*
D10*
X50876791Y10322484D02*
X63240525Y14339705D01*
D11*
X-68715215Y-29220180D02*
G75*
G03*
X-44108648Y-41902783I147994415J256924280D01*
G01*
D10*
X81827265Y29947215D02*
X77810044Y42310949D01*
X-24487830Y-24958982D02*
G75*
G03*
X-23857793Y-24637962I154509J475528D01*
G01*
X23857795Y-24637962D02*
G75*
G03*
X24487830Y-24958982I475505J154462D01*
G01*
X69899722Y8407127D02*
X73916943Y-3956606D01*
X-61383370Y-22013437D02*
G75*
G03*
X-60753332Y-21692418I154511J475525D01*
G01*
X57987237Y30507665D02*
X45623502Y26490445D01*
X35661722Y-2717473D02*
X39678943Y-15081207D01*
X-74068123Y-17366180D02*
G75*
G03*
X-73747103Y-17996217I475528J-154509D01*
G01*
D11*
X-132196065Y970108D02*
X-115032482Y53798290D01*
X62303260Y51010223D02*
X62311272Y50918894D01*
D10*
X-111380830Y-1141877D02*
G75*
G03*
X-110750793Y-820857I154509J475528D01*
G01*
X-14587283Y3893732D02*
G75*
G03*
X-14908303Y4523770I-475529J154509D01*
G01*
X-87080554Y13779254D02*
X-83063334Y26142988D01*
X-31919295Y-4143764D02*
G75*
G03*
X-31598275Y-4773800I475528J-154508D01*
G01*
X-57057131Y-8698647D02*
X-69420865Y-4681426D01*
X46229533Y23007238D02*
X50246754Y10643504D01*
X-96226994Y43878799D02*
G75*
G03*
X-96548014Y44508836I-475528J154509D01*
G01*
X-118491275Y19043305D02*
X-106127541Y15026084D01*
X-63240525Y14339705D02*
X-50876791Y10322484D01*
D11*
X-87350460Y-19331981D02*
G75*
G03*
X-126419371Y-3563368I-132853445J-272879102D01*
G01*
D10*
X-82584476Y13054386D02*
G75*
G03*
X-83214513Y12733364I-154507J-475531D01*
G01*
X111380830Y-1141877D02*
X123744564Y2875344D01*
D11*
X64950145Y51748633D02*
G75*
G03*
X64494477Y51206666I42455J-498233D01*
G01*
D10*
X-9333995Y20061695D02*
G75*
G03*
X-9655014Y20691731I-475530J154507D01*
G01*
D11*
X-126419371Y-3563368D02*
X-130573853Y-2213536D01*
D10*
X-29802402Y16933695D02*
X-42166137Y20950915D01*
X-72077899Y45390307D02*
X-59714164Y41373086D01*
X118812295Y19673341D02*
X114795074Y32037076D01*
X-56736111Y-9328683D02*
G75*
G03*
X-57057131Y-8698647I-475528J154508D01*
G01*
X25476164Y30248486D02*
X37839899Y34265707D01*
X-18604504Y-8470001D02*
X-14587283Y3893732D01*
X-37839899Y34265707D02*
X-25476164Y30248486D01*
X63410365Y28379314D02*
X59393144Y40743049D01*
X-39678944Y-15081207D02*
X-35661722Y-2717473D01*
X-74546981Y-4277626D02*
G75*
G03*
X-73916943Y-3956607I154511J475525D01*
G01*
D11*
X86683195Y-19103664D02*
G75*
G03*
X87350464Y-19331981I448405J221264D01*
G01*
X86683202Y-19103661D02*
X86637093Y-19010206D01*
D10*
X106733572Y11542877D02*
X110750794Y-820857D01*
X-20814078Y-29832739D02*
X-24831299Y-42196474D01*
X-51803842Y7469314D02*
X-64167576Y11486535D01*
X-83384353Y26773025D02*
X-95748088Y30790245D01*
D11*
X84485465Y-20745532D02*
X68715221Y-29220183D01*
D10*
X-101631413Y14301265D02*
X-105648634Y1937531D01*
X58914288Y27654496D02*
X46550553Y23637274D01*
X-68663654Y12211354D02*
X-64646433Y24575088D01*
X46550543Y23637304D02*
G75*
G03*
X46229533Y23007238I154657J-475604D01*
G01*
X76404137Y32075515D02*
X64040402Y28058295D01*
X-64040402Y28058295D02*
X-76404137Y32075515D01*
X64646433Y24575088D02*
X68663653Y12211354D01*
X-33155363Y-7947990D02*
X-37172584Y-20311724D01*
X64797635Y11165522D02*
G75*
G03*
X64167576Y11486535I-475535J-154522D01*
G01*
X87231734Y369631D02*
X83214513Y12733365D01*
D11*
X130573857Y-2213536D02*
X126419375Y-3563368D01*
D10*
X-70050902Y-5002445D02*
X-74068123Y-17366180D01*
D11*
X64502856Y51111148D02*
X64494477Y51206666D01*
D10*
X54229770Y-14559206D02*
G75*
G03*
X53599764Y-14238176I-475470J-154394D01*
G01*
X-88316622Y9975027D02*
G75*
G03*
X-88637642Y10605064I-475528J154509D01*
G01*
G04 #@! TO.C,G1*
G36*
X84703001Y-8338082D02*
G01*
X84718101Y-8284472D01*
X84733415Y-8259821D01*
X84740457Y-8250084D01*
X84743775Y-8236136D01*
X84742400Y-8214062D01*
X84735369Y-8179941D01*
X84721715Y-8129858D01*
X84700475Y-8059896D01*
X84670682Y-7966135D01*
X84631371Y-7844660D01*
X84502639Y-7448462D01*
X83970886Y-7177713D01*
X83439132Y-6906965D01*
X82056204Y-7356305D01*
X81804023Y-7227398D01*
X81706230Y-7178251D01*
X81633071Y-7143757D01*
X81580051Y-7122179D01*
X81542676Y-7111784D01*
X81516450Y-7110838D01*
X81507379Y-7112938D01*
X81424969Y-7124783D01*
X81349254Y-7108829D01*
X81285501Y-7069723D01*
X81238978Y-7012110D01*
X81232078Y-6991582D01*
X81214950Y-6940637D01*
X81216454Y-6908148D01*
X81352177Y-6908148D01*
X81363937Y-6948739D01*
X81376167Y-6963348D01*
X81411921Y-6977980D01*
X81451875Y-6968598D01*
X81483232Y-6939967D01*
X81491568Y-6920407D01*
X81487398Y-6881508D01*
X81458568Y-6855788D01*
X81413151Y-6849673D01*
X81404410Y-6851036D01*
X81366586Y-6871932D01*
X81352177Y-6908148D01*
X81216454Y-6908148D01*
X81218686Y-6859949D01*
X81219013Y-6858559D01*
X81251362Y-6786529D01*
X81305289Y-6735313D01*
X81374234Y-6707691D01*
X81451634Y-6706447D01*
X81522520Y-6729881D01*
X81565798Y-6755290D01*
X81592427Y-6783803D01*
X81612379Y-6827811D01*
X81620388Y-6851494D01*
X81648325Y-6937476D01*
X81865513Y-7045948D01*
X82082701Y-7154421D01*
X83478128Y-6701019D01*
X84062374Y-6998883D01*
X84646619Y-7296747D01*
X84926048Y-8156741D01*
X84988900Y-8187088D01*
X85056027Y-8233948D01*
X85098178Y-8293306D01*
X85117145Y-8359521D01*
X85114724Y-8426952D01*
X85092710Y-8489954D01*
X85052895Y-8542889D01*
X84997074Y-8580115D01*
X84927043Y-8595988D01*
X84860990Y-8589286D01*
X84791440Y-8558522D01*
X84735410Y-8507039D01*
X84706206Y-8453513D01*
X84706104Y-8452814D01*
X84699786Y-8409319D01*
X84839968Y-8409319D01*
X84854417Y-8428930D01*
X84876753Y-8441601D01*
X84913071Y-8457963D01*
X84935619Y-8456534D01*
X84959972Y-8435518D01*
X84963787Y-8431563D01*
X84980152Y-8395599D01*
X84972416Y-8357844D01*
X84947492Y-8327549D01*
X84912288Y-8313967D01*
X84881435Y-8321316D01*
X84858012Y-8347276D01*
X84844786Y-8377314D01*
X84839968Y-8409319D01*
X84699786Y-8409319D01*
X84698342Y-8399375D01*
X84703001Y-8338082D01*
G37*
D12*
X84703001Y-8338082D02*
X84718101Y-8284472D01*
X84733415Y-8259821D01*
X84740457Y-8250084D01*
X84743775Y-8236136D01*
X84742400Y-8214062D01*
X84735369Y-8179941D01*
X84721715Y-8129858D01*
X84700475Y-8059896D01*
X84670682Y-7966135D01*
X84631371Y-7844660D01*
X84502639Y-7448462D01*
X83970886Y-7177713D01*
X83439132Y-6906965D01*
X82056204Y-7356305D01*
X81804023Y-7227398D01*
X81706230Y-7178251D01*
X81633071Y-7143757D01*
X81580051Y-7122179D01*
X81542676Y-7111784D01*
X81516450Y-7110838D01*
X81507379Y-7112938D01*
X81424969Y-7124783D01*
X81349254Y-7108829D01*
X81285501Y-7069723D01*
X81238978Y-7012110D01*
X81232078Y-6991582D01*
X81214950Y-6940637D01*
X81216454Y-6908148D01*
X81352177Y-6908148D01*
X81363937Y-6948739D01*
X81376167Y-6963348D01*
X81411921Y-6977980D01*
X81451875Y-6968598D01*
X81483232Y-6939967D01*
X81491568Y-6920407D01*
X81487398Y-6881508D01*
X81458568Y-6855788D01*
X81413151Y-6849673D01*
X81404410Y-6851036D01*
X81366586Y-6871932D01*
X81352177Y-6908148D01*
X81216454Y-6908148D01*
X81218686Y-6859949D01*
X81219013Y-6858559D01*
X81251362Y-6786529D01*
X81305289Y-6735313D01*
X81374234Y-6707691D01*
X81451634Y-6706447D01*
X81522520Y-6729881D01*
X81565798Y-6755290D01*
X81592427Y-6783803D01*
X81612379Y-6827811D01*
X81620388Y-6851494D01*
X81648325Y-6937476D01*
X81865513Y-7045948D01*
X82082701Y-7154421D01*
X83478128Y-6701019D01*
X84062374Y-6998883D01*
X84646619Y-7296747D01*
X84926048Y-8156741D01*
X84988900Y-8187088D01*
X85056027Y-8233948D01*
X85098178Y-8293306D01*
X85117145Y-8359521D01*
X85114724Y-8426952D01*
X85092710Y-8489954D01*
X85052895Y-8542889D01*
X84997074Y-8580115D01*
X84927043Y-8595988D01*
X84860990Y-8589286D01*
X84791440Y-8558522D01*
X84735410Y-8507039D01*
X84706206Y-8453513D01*
X84706104Y-8452814D01*
X84699786Y-8409319D01*
X84839968Y-8409319D01*
X84854417Y-8428930D01*
X84876753Y-8441601D01*
X84913071Y-8457963D01*
X84935619Y-8456534D01*
X84959972Y-8435518D01*
X84963787Y-8431563D01*
X84980152Y-8395599D01*
X84972416Y-8357844D01*
X84947492Y-8327549D01*
X84912288Y-8313967D01*
X84881435Y-8321316D01*
X84858012Y-8347276D01*
X84844786Y-8377314D01*
X84839968Y-8409319D01*
X84699786Y-8409319D01*
X84698342Y-8399375D01*
X84703001Y-8338082D01*
G36*
X82711723Y-9349243D02*
G01*
X82743801Y-9282866D01*
X82800041Y-9230542D01*
X82852489Y-9206036D01*
X82907735Y-9197645D01*
X82968790Y-9202158D01*
X83022268Y-9217431D01*
X83052430Y-9238064D01*
X83064695Y-9244760D01*
X83088685Y-9244377D01*
X83129215Y-9235878D01*
X83191099Y-9218229D01*
X83279150Y-9190393D01*
X83289164Y-9187144D01*
X83509231Y-9115640D01*
X83606833Y-8919375D01*
X83704434Y-8723109D01*
X83565997Y-8297045D01*
X83371027Y-8198214D01*
X83176058Y-8099384D01*
X82111220Y-8445371D01*
X82012389Y-8640340D01*
X81913559Y-8835309D01*
X82440280Y-10456390D01*
X82635249Y-10555221D01*
X82830219Y-10654052D01*
X83895281Y-10307992D01*
X84039009Y-10023208D01*
X84008930Y-9930635D01*
X84002446Y-9908056D01*
X83992870Y-9874701D01*
X83992249Y-9866421D01*
X84130584Y-9866421D01*
X84152375Y-9904451D01*
X84175522Y-9921247D01*
X84211372Y-9936469D01*
X84235830Y-9927806D01*
X84259376Y-9891324D01*
X84260371Y-9889381D01*
X84273542Y-9855816D01*
X84265575Y-9833838D01*
X84248445Y-9818581D01*
X84202383Y-9796651D01*
X84161460Y-9803914D01*
X84140634Y-9824851D01*
X84130584Y-9866421D01*
X83992249Y-9866421D01*
X83989905Y-9835142D01*
X84000603Y-9797350D01*
X84015329Y-9766470D01*
X84044146Y-9718681D01*
X84077099Y-9690603D01*
X84125703Y-9670868D01*
X84212917Y-9654441D01*
X84285989Y-9667375D01*
X84347668Y-9710190D01*
X84350923Y-9713570D01*
X84395687Y-9781740D01*
X84412542Y-9856255D01*
X84402656Y-9929724D01*
X84367194Y-9994755D01*
X84307324Y-10043958D01*
X84298039Y-10048696D01*
X84270361Y-10064879D01*
X84245398Y-10087992D01*
X84219205Y-10123580D01*
X84187831Y-10177190D01*
X84147328Y-10254368D01*
X84136542Y-10275572D01*
X84036486Y-10472957D01*
X82811647Y-10870932D01*
X82553868Y-10739197D01*
X82296091Y-10607462D01*
X81707717Y-8796635D01*
X81833455Y-8549063D01*
X81959193Y-8301492D01*
X83199794Y-7898396D01*
X83457571Y-8030131D01*
X83715350Y-8161866D01*
X83906418Y-8749913D01*
X83774682Y-9007691D01*
X83642948Y-9265469D01*
X83385480Y-9349125D01*
X83289308Y-9380638D01*
X83220340Y-9404254D01*
X83173903Y-9422110D01*
X83145323Y-9436343D01*
X83129928Y-9449091D01*
X83123042Y-9462490D01*
X83121365Y-9469900D01*
X83095553Y-9527699D01*
X83046451Y-9572365D01*
X82982388Y-9601594D01*
X82911691Y-9613085D01*
X82842687Y-9604537D01*
X82783704Y-9573649D01*
X82774913Y-9565656D01*
X82725832Y-9497343D01*
X82714723Y-9457200D01*
X82705251Y-9422970D01*
X82705951Y-9414994D01*
X82844619Y-9414994D01*
X82857615Y-9448322D01*
X82884308Y-9466784D01*
X82926866Y-9477914D01*
X82958638Y-9459287D01*
X82976856Y-9428155D01*
X82986216Y-9390509D01*
X82971157Y-9365292D01*
X82923540Y-9337883D01*
X82885138Y-9342585D01*
X82861162Y-9369206D01*
X82844619Y-9414994D01*
X82705951Y-9414994D01*
X82711723Y-9349243D01*
G37*
X82711723Y-9349243D02*
X82743801Y-9282866D01*
X82800041Y-9230542D01*
X82852489Y-9206036D01*
X82907735Y-9197645D01*
X82968790Y-9202158D01*
X83022268Y-9217431D01*
X83052430Y-9238064D01*
X83064695Y-9244760D01*
X83088685Y-9244377D01*
X83129215Y-9235878D01*
X83191099Y-9218229D01*
X83279150Y-9190393D01*
X83289164Y-9187144D01*
X83509231Y-9115640D01*
X83606833Y-8919375D01*
X83704434Y-8723109D01*
X83565997Y-8297045D01*
X83371027Y-8198214D01*
X83176058Y-8099384D01*
X82111220Y-8445371D01*
X82012389Y-8640340D01*
X81913559Y-8835309D01*
X82440280Y-10456390D01*
X82635249Y-10555221D01*
X82830219Y-10654052D01*
X83895281Y-10307992D01*
X84039009Y-10023208D01*
X84008930Y-9930635D01*
X84002446Y-9908056D01*
X83992870Y-9874701D01*
X83992249Y-9866421D01*
X84130584Y-9866421D01*
X84152375Y-9904451D01*
X84175522Y-9921247D01*
X84211372Y-9936469D01*
X84235830Y-9927806D01*
X84259376Y-9891324D01*
X84260371Y-9889381D01*
X84273542Y-9855816D01*
X84265575Y-9833838D01*
X84248445Y-9818581D01*
X84202383Y-9796651D01*
X84161460Y-9803914D01*
X84140634Y-9824851D01*
X84130584Y-9866421D01*
X83992249Y-9866421D01*
X83989905Y-9835142D01*
X84000603Y-9797350D01*
X84015329Y-9766470D01*
X84044146Y-9718681D01*
X84077099Y-9690603D01*
X84125703Y-9670868D01*
X84212917Y-9654441D01*
X84285989Y-9667375D01*
X84347668Y-9710190D01*
X84350923Y-9713570D01*
X84395687Y-9781740D01*
X84412542Y-9856255D01*
X84402656Y-9929724D01*
X84367194Y-9994755D01*
X84307324Y-10043958D01*
X84298039Y-10048696D01*
X84270361Y-10064879D01*
X84245398Y-10087992D01*
X84219205Y-10123580D01*
X84187831Y-10177190D01*
X84147328Y-10254368D01*
X84136542Y-10275572D01*
X84036486Y-10472957D01*
X82811647Y-10870932D01*
X82553868Y-10739197D01*
X82296091Y-10607462D01*
X81707717Y-8796635D01*
X81833455Y-8549063D01*
X81959193Y-8301492D01*
X83199794Y-7898396D01*
X83457571Y-8030131D01*
X83715350Y-8161866D01*
X83906418Y-8749913D01*
X83774682Y-9007691D01*
X83642948Y-9265469D01*
X83385480Y-9349125D01*
X83289308Y-9380638D01*
X83220340Y-9404254D01*
X83173903Y-9422110D01*
X83145323Y-9436343D01*
X83129928Y-9449091D01*
X83123042Y-9462490D01*
X83121365Y-9469900D01*
X83095553Y-9527699D01*
X83046451Y-9572365D01*
X82982388Y-9601594D01*
X82911691Y-9613085D01*
X82842687Y-9604537D01*
X82783704Y-9573649D01*
X82774913Y-9565656D01*
X82725832Y-9497343D01*
X82714723Y-9457200D01*
X82705251Y-9422970D01*
X82705951Y-9414994D01*
X82844619Y-9414994D01*
X82857615Y-9448322D01*
X82884308Y-9466784D01*
X82926866Y-9477914D01*
X82958638Y-9459287D01*
X82976856Y-9428155D01*
X82986216Y-9390509D01*
X82971157Y-9365292D01*
X82923540Y-9337883D01*
X82885138Y-9342585D01*
X82861162Y-9369206D01*
X82844619Y-9414994D01*
X82705951Y-9414994D01*
X82711723Y-9349243D01*
G36*
X83082800Y-11318270D02*
G01*
X83096649Y-11252036D01*
X83137442Y-11195451D01*
X83204617Y-11148805D01*
X83281991Y-11128993D01*
X83360497Y-11136896D01*
X83423505Y-11167611D01*
X83440779Y-11173852D01*
X83469207Y-11173676D01*
X83511558Y-11166270D01*
X83570603Y-11150821D01*
X83649110Y-11126517D01*
X83749850Y-11092543D01*
X83875593Y-11048088D01*
X84029108Y-10992337D01*
X84062863Y-10979954D01*
X84332299Y-10880967D01*
X84445458Y-10618855D01*
X84486527Y-10523214D01*
X84515650Y-10452768D01*
X84534243Y-10402076D01*
X84543713Y-10365696D01*
X84545475Y-10338187D01*
X84540940Y-10314108D01*
X84531518Y-10288016D01*
X84531384Y-10287675D01*
X84528768Y-10277598D01*
X84514478Y-10222552D01*
X84514189Y-10206580D01*
X84653973Y-10206580D01*
X84656726Y-10236022D01*
X84686313Y-10260787D01*
X84727944Y-10277855D01*
X84756984Y-10268226D01*
X84779370Y-10237641D01*
X84794021Y-10195982D01*
X84779569Y-10165649D01*
X84745262Y-10145094D01*
X84702326Y-10138946D01*
X84670847Y-10164167D01*
X84653973Y-10206580D01*
X84514189Y-10206580D01*
X84513391Y-10162477D01*
X84513526Y-10161634D01*
X84539621Y-10095256D01*
X84588632Y-10043745D01*
X84652650Y-10009726D01*
X84723770Y-9995821D01*
X84794085Y-10004653D01*
X84855686Y-10038846D01*
X84863042Y-10045683D01*
X84910455Y-10112029D01*
X84931222Y-10185434D01*
X84926676Y-10258798D01*
X84898146Y-10325018D01*
X84846964Y-10376993D01*
X84796286Y-10401788D01*
X84778547Y-10410440D01*
X84760836Y-10427038D01*
X84740903Y-10455582D01*
X84716499Y-10500071D01*
X84685375Y-10564503D01*
X84645284Y-10652879D01*
X84609207Y-10734482D01*
X84469817Y-11051680D01*
X83990093Y-11207986D01*
X83853425Y-11252647D01*
X83745189Y-11288449D01*
X83661985Y-11316721D01*
X83600414Y-11338788D01*
X83557074Y-11355978D01*
X83528568Y-11369615D01*
X83511495Y-11381029D01*
X83502456Y-11391543D01*
X83498899Y-11399651D01*
X83460644Y-11467180D01*
X83400071Y-11517443D01*
X83326014Y-11545266D01*
X83249220Y-11545837D01*
X83178644Y-11517293D01*
X83126163Y-11460977D01*
X83102396Y-11408400D01*
X83097492Y-11397550D01*
X83084405Y-11326929D01*
X83223730Y-11326929D01*
X83230479Y-11366783D01*
X83267032Y-11399054D01*
X83310065Y-11407298D01*
X83342401Y-11384489D01*
X83357354Y-11350645D01*
X83361596Y-11318981D01*
X83346642Y-11296910D01*
X83326149Y-11282349D01*
X83292657Y-11265465D01*
X83267156Y-11271651D01*
X83248193Y-11287208D01*
X83223730Y-11326929D01*
X83084405Y-11326929D01*
X83082800Y-11318270D01*
G37*
X83082800Y-11318270D02*
X83096649Y-11252036D01*
X83137442Y-11195451D01*
X83204617Y-11148805D01*
X83281991Y-11128993D01*
X83360497Y-11136896D01*
X83423505Y-11167611D01*
X83440779Y-11173852D01*
X83469207Y-11173676D01*
X83511558Y-11166270D01*
X83570603Y-11150821D01*
X83649110Y-11126517D01*
X83749850Y-11092543D01*
X83875593Y-11048088D01*
X84029108Y-10992337D01*
X84062863Y-10979954D01*
X84332299Y-10880967D01*
X84445458Y-10618855D01*
X84486527Y-10523214D01*
X84515650Y-10452768D01*
X84534243Y-10402076D01*
X84543713Y-10365696D01*
X84545475Y-10338187D01*
X84540940Y-10314108D01*
X84531518Y-10288016D01*
X84531384Y-10287675D01*
X84528768Y-10277598D01*
X84514478Y-10222552D01*
X84514189Y-10206580D01*
X84653973Y-10206580D01*
X84656726Y-10236022D01*
X84686313Y-10260787D01*
X84727944Y-10277855D01*
X84756984Y-10268226D01*
X84779370Y-10237641D01*
X84794021Y-10195982D01*
X84779569Y-10165649D01*
X84745262Y-10145094D01*
X84702326Y-10138946D01*
X84670847Y-10164167D01*
X84653973Y-10206580D01*
X84514189Y-10206580D01*
X84513391Y-10162477D01*
X84513526Y-10161634D01*
X84539621Y-10095256D01*
X84588632Y-10043745D01*
X84652650Y-10009726D01*
X84723770Y-9995821D01*
X84794085Y-10004653D01*
X84855686Y-10038846D01*
X84863042Y-10045683D01*
X84910455Y-10112029D01*
X84931222Y-10185434D01*
X84926676Y-10258798D01*
X84898146Y-10325018D01*
X84846964Y-10376993D01*
X84796286Y-10401788D01*
X84778547Y-10410440D01*
X84760836Y-10427038D01*
X84740903Y-10455582D01*
X84716499Y-10500071D01*
X84685375Y-10564503D01*
X84645284Y-10652879D01*
X84609207Y-10734482D01*
X84469817Y-11051680D01*
X83990093Y-11207986D01*
X83853425Y-11252647D01*
X83745189Y-11288449D01*
X83661985Y-11316721D01*
X83600414Y-11338788D01*
X83557074Y-11355978D01*
X83528568Y-11369615D01*
X83511495Y-11381029D01*
X83502456Y-11391543D01*
X83498899Y-11399651D01*
X83460644Y-11467180D01*
X83400071Y-11517443D01*
X83326014Y-11545266D01*
X83249220Y-11545837D01*
X83178644Y-11517293D01*
X83126163Y-11460977D01*
X83102396Y-11408400D01*
X83097492Y-11397550D01*
X83084405Y-11326929D01*
X83223730Y-11326929D01*
X83230479Y-11366783D01*
X83267032Y-11399054D01*
X83310065Y-11407298D01*
X83342401Y-11384489D01*
X83357354Y-11350645D01*
X83361596Y-11318981D01*
X83346642Y-11296910D01*
X83326149Y-11282349D01*
X83292657Y-11265465D01*
X83267156Y-11271651D01*
X83248193Y-11287208D01*
X83223730Y-11326929D01*
X83084405Y-11326929D01*
X83082800Y-11318270D01*
G36*
X85105471Y-7577389D02*
G01*
X85133255Y-7520729D01*
X85139133Y-7514157D01*
X85149022Y-7500721D01*
X85152938Y-7482727D01*
X85149874Y-7454481D01*
X85138815Y-7410290D01*
X85118751Y-7344460D01*
X85096992Y-7276865D01*
X85028729Y-7066771D01*
X84196965Y-6643077D01*
X83365201Y-6219382D01*
X82956805Y-6346116D01*
X82831778Y-6385044D01*
X82734846Y-6415720D01*
X82662140Y-6439655D01*
X82609793Y-6458362D01*
X82573935Y-6473354D01*
X82550701Y-6486141D01*
X82536219Y-6498239D01*
X82526624Y-6511156D01*
X82524232Y-6515221D01*
X82466648Y-6587226D01*
X82393856Y-6632167D01*
X82310828Y-6647491D01*
X82272876Y-6644284D01*
X82208556Y-6618047D01*
X82156381Y-6567558D01*
X82125070Y-6507851D01*
X82121621Y-6501275D01*
X82110979Y-6436359D01*
X82251732Y-6436359D01*
X82254484Y-6465802D01*
X82284072Y-6490567D01*
X82329859Y-6507110D01*
X82363187Y-6494115D01*
X82381649Y-6467420D01*
X82392779Y-6424863D01*
X82374152Y-6393091D01*
X82343021Y-6374873D01*
X82300084Y-6368725D01*
X82268605Y-6393946D01*
X82251732Y-6436359D01*
X82110979Y-6436359D01*
X82109552Y-6427657D01*
X82113960Y-6389434D01*
X82144906Y-6319576D01*
X82197953Y-6267055D01*
X82265329Y-6234631D01*
X82339260Y-6225065D01*
X82411976Y-6241119D01*
X82456399Y-6267785D01*
X82496138Y-6299697D01*
X83393480Y-6008133D01*
X84283069Y-6461518D01*
X85172658Y-6914902D01*
X85256366Y-7172529D01*
X85287891Y-7268736D01*
X85311516Y-7337737D01*
X85329378Y-7384203D01*
X85343614Y-7412807D01*
X85356360Y-7428222D01*
X85369754Y-7435120D01*
X85377194Y-7436806D01*
X85431245Y-7462083D01*
X85476932Y-7511740D01*
X85509216Y-7576897D01*
X85523057Y-7648681D01*
X85520696Y-7689549D01*
X85494506Y-7753325D01*
X85443758Y-7805472D01*
X85376676Y-7840863D01*
X85301487Y-7854365D01*
X85261801Y-7851013D01*
X85201119Y-7824900D01*
X85152160Y-7776285D01*
X85117908Y-7713363D01*
X85113245Y-7693925D01*
X85103266Y-7652316D01*
X85241303Y-7652316D01*
X85254298Y-7685645D01*
X85280992Y-7704108D01*
X85323550Y-7715237D01*
X85355321Y-7696610D01*
X85373540Y-7665478D01*
X85382900Y-7627831D01*
X85367841Y-7602614D01*
X85320223Y-7575206D01*
X85281822Y-7579907D01*
X85257846Y-7606529D01*
X85241303Y-7652316D01*
X85103266Y-7652316D01*
X85101352Y-7644333D01*
X85105471Y-7577389D01*
G37*
X85105471Y-7577389D02*
X85133255Y-7520729D01*
X85139133Y-7514157D01*
X85149022Y-7500721D01*
X85152938Y-7482727D01*
X85149874Y-7454481D01*
X85138815Y-7410290D01*
X85118751Y-7344460D01*
X85096992Y-7276865D01*
X85028729Y-7066771D01*
X84196965Y-6643077D01*
X83365201Y-6219382D01*
X82956805Y-6346116D01*
X82831778Y-6385044D01*
X82734846Y-6415720D01*
X82662140Y-6439655D01*
X82609793Y-6458362D01*
X82573935Y-6473354D01*
X82550701Y-6486141D01*
X82536219Y-6498239D01*
X82526624Y-6511156D01*
X82524232Y-6515221D01*
X82466648Y-6587226D01*
X82393856Y-6632167D01*
X82310828Y-6647491D01*
X82272876Y-6644284D01*
X82208556Y-6618047D01*
X82156381Y-6567558D01*
X82125070Y-6507851D01*
X82121621Y-6501275D01*
X82110979Y-6436359D01*
X82251732Y-6436359D01*
X82254484Y-6465802D01*
X82284072Y-6490567D01*
X82329859Y-6507110D01*
X82363187Y-6494115D01*
X82381649Y-6467420D01*
X82392779Y-6424863D01*
X82374152Y-6393091D01*
X82343021Y-6374873D01*
X82300084Y-6368725D01*
X82268605Y-6393946D01*
X82251732Y-6436359D01*
X82110979Y-6436359D01*
X82109552Y-6427657D01*
X82113960Y-6389434D01*
X82144906Y-6319576D01*
X82197953Y-6267055D01*
X82265329Y-6234631D01*
X82339260Y-6225065D01*
X82411976Y-6241119D01*
X82456399Y-6267785D01*
X82496138Y-6299697D01*
X83393480Y-6008133D01*
X84283069Y-6461518D01*
X85172658Y-6914902D01*
X85256366Y-7172529D01*
X85287891Y-7268736D01*
X85311516Y-7337737D01*
X85329378Y-7384203D01*
X85343614Y-7412807D01*
X85356360Y-7428222D01*
X85369754Y-7435120D01*
X85377194Y-7436806D01*
X85431245Y-7462083D01*
X85476932Y-7511740D01*
X85509216Y-7576897D01*
X85523057Y-7648681D01*
X85520696Y-7689549D01*
X85494506Y-7753325D01*
X85443758Y-7805472D01*
X85376676Y-7840863D01*
X85301487Y-7854365D01*
X85261801Y-7851013D01*
X85201119Y-7824900D01*
X85152160Y-7776285D01*
X85117908Y-7713363D01*
X85113245Y-7693925D01*
X85103266Y-7652316D01*
X85241303Y-7652316D01*
X85254298Y-7685645D01*
X85280992Y-7704108D01*
X85323550Y-7715237D01*
X85355321Y-7696610D01*
X85373540Y-7665478D01*
X85382900Y-7627831D01*
X85367841Y-7602614D01*
X85320223Y-7575206D01*
X85281822Y-7579907D01*
X85257846Y-7606529D01*
X85241303Y-7652316D01*
X85103266Y-7652316D01*
X85101352Y-7644333D01*
X85105471Y-7577389D01*
G36*
X79401579Y-10191462D02*
G01*
X79342675Y-9859997D01*
X79313888Y-9522041D01*
X79315337Y-9317074D01*
X79554299Y-9317074D01*
X79554540Y-9415110D01*
X79556853Y-9517029D01*
X79560927Y-9615644D01*
X79566452Y-9703765D01*
X79573116Y-9774203D01*
X79580612Y-9819770D01*
X79582096Y-9824996D01*
X79593613Y-9860787D01*
X80256913Y-9645268D01*
X80622927Y-9818277D01*
X80988942Y-9991284D01*
X81594406Y-11854710D01*
X81989107Y-12056080D01*
X82383810Y-12257449D01*
X83970330Y-11741957D01*
X84250794Y-11741957D01*
X84262520Y-11784137D01*
X84270023Y-11794957D01*
X84297450Y-11806168D01*
X84333991Y-11798170D01*
X84365373Y-11775625D01*
X84374481Y-11760834D01*
X84376170Y-11718085D01*
X84350416Y-11684284D01*
X84324597Y-11672748D01*
X84286217Y-11676444D01*
X84260154Y-11702786D01*
X84250794Y-11741957D01*
X83970330Y-11741957D01*
X84090138Y-11703029D01*
X84121536Y-11641408D01*
X84171071Y-11575621D01*
X84238257Y-11538179D01*
X84323228Y-11529015D01*
X84340215Y-11530342D01*
X84396921Y-11540865D01*
X84437361Y-11564010D01*
X84473397Y-11602894D01*
X84504645Y-11644320D01*
X84519171Y-11676701D01*
X84522335Y-11716082D01*
X84521200Y-11746033D01*
X84503925Y-11828394D01*
X84460197Y-11891303D01*
X84412653Y-11925628D01*
X84349392Y-11945840D01*
X84277644Y-11946502D01*
X84213528Y-11927997D01*
X84200805Y-11920571D01*
X84157922Y-11891851D01*
X82382772Y-12468632D01*
X82294369Y-12423628D01*
X81903653Y-12224721D01*
X81424533Y-11980812D01*
X80823785Y-10131899D01*
X80230697Y-9847741D01*
X79926364Y-9946286D01*
X79819075Y-9981375D01*
X79739725Y-10008357D01*
X79684293Y-10028892D01*
X79648755Y-10044639D01*
X79629091Y-10057261D01*
X79621276Y-10068418D01*
X79620581Y-10072548D01*
X79624294Y-10098177D01*
X79635481Y-10149232D01*
X79652545Y-10218977D01*
X79673886Y-10300673D01*
X79680580Y-10325397D01*
X79742028Y-10550525D01*
X80199295Y-10401950D01*
X80610273Y-10610380D01*
X80735300Y-10995174D01*
X80774834Y-11116281D01*
X80805826Y-11209340D01*
X80829823Y-11278168D01*
X80848366Y-11326581D01*
X80863002Y-11358395D01*
X80875275Y-11377426D01*
X80886729Y-11387489D01*
X80895685Y-11391439D01*
X80962992Y-11428815D01*
X81011027Y-11486240D01*
X81037629Y-11555838D01*
X81040635Y-11629736D01*
X81017882Y-11700059D01*
X80990735Y-11737510D01*
X80939078Y-11773614D01*
X80870604Y-11797058D01*
X80800995Y-11802967D01*
X80785778Y-11801221D01*
X80719524Y-11774944D01*
X80668464Y-11725089D01*
X80635432Y-11659128D01*
X80635116Y-11657196D01*
X80628423Y-11616174D01*
X80761369Y-11616174D01*
X80783699Y-11642920D01*
X80820932Y-11662254D01*
X80854795Y-11664886D01*
X80876369Y-11645878D01*
X80893238Y-11617704D01*
X80903689Y-11587028D01*
X80895268Y-11565979D01*
X80872098Y-11545506D01*
X80837154Y-11525092D01*
X80810418Y-11521170D01*
X80782671Y-11544112D01*
X80763357Y-11582171D01*
X80761369Y-11616174D01*
X80628423Y-11616174D01*
X80623260Y-11584533D01*
X80634780Y-11508777D01*
X80656980Y-11461382D01*
X80664485Y-11447191D01*
X80668190Y-11430603D01*
X80667082Y-11407173D01*
X80660148Y-11372454D01*
X80646376Y-11321999D01*
X80624752Y-11251362D01*
X80594265Y-11156096D01*
X80571378Y-11085515D01*
X80461725Y-10748040D01*
X80178055Y-10602126D01*
X79998837Y-10660357D01*
X79924286Y-10683982D01*
X79872998Y-10702351D01*
X79843305Y-10721260D01*
X79833537Y-10746505D01*
X79842023Y-10783881D01*
X79867096Y-10839184D01*
X79907083Y-10918207D01*
X79918187Y-10940292D01*
X80082780Y-11232724D01*
X80273373Y-11505627D01*
X80487949Y-11757694D01*
X80724494Y-11987621D01*
X80980992Y-12194102D01*
X81255426Y-12375831D01*
X81545781Y-12531503D01*
X81850042Y-12659812D01*
X82166193Y-12759452D01*
X82492220Y-12829120D01*
X82826103Y-12867507D01*
X82899976Y-12871605D01*
X83042444Y-12873918D01*
X83199580Y-12869594D01*
X83360232Y-12859401D01*
X83513245Y-12844105D01*
X83647464Y-12824469D01*
X83681993Y-12817929D01*
X83756552Y-12802999D01*
X83824066Y-12789717D01*
X83874106Y-12780125D01*
X83888487Y-12777496D01*
X83938206Y-12765145D01*
X84011921Y-12742267D01*
X84102861Y-12711374D01*
X84204251Y-12674983D01*
X84309315Y-12635607D01*
X84411282Y-12595760D01*
X84503377Y-12557956D01*
X84578826Y-12524710D01*
X84609749Y-12509797D01*
X84695091Y-12466812D01*
X84752318Y-12435863D01*
X84782507Y-12412714D01*
X84786735Y-12393127D01*
X84766080Y-12372868D01*
X84721617Y-12347698D01*
X84659074Y-12315774D01*
X84504156Y-12236185D01*
X83921404Y-12425532D01*
X83767739Y-12475620D01*
X83643036Y-12516701D01*
X83544394Y-12549850D01*
X83468908Y-12576139D01*
X83413676Y-12596643D01*
X83375796Y-12612434D01*
X83352366Y-12624588D01*
X83340482Y-12634177D01*
X83337254Y-12641590D01*
X83322003Y-12680577D01*
X83286194Y-12724059D01*
X83239490Y-12762261D01*
X83196539Y-12783917D01*
X83120206Y-12792440D01*
X83044875Y-12773036D01*
X82979430Y-12730257D01*
X82932754Y-12668655D01*
X82930006Y-12661914D01*
X82922499Y-12643501D01*
X82916070Y-12584236D01*
X82917995Y-12572789D01*
X83067798Y-12572789D01*
X83074732Y-12614889D01*
X83101765Y-12644889D01*
X83110320Y-12648551D01*
X83142387Y-12656499D01*
X83155267Y-12656895D01*
X83171831Y-12642282D01*
X83186726Y-12623726D01*
X83198364Y-12586413D01*
X83186814Y-12550818D01*
X83159981Y-12523966D01*
X83125771Y-12512878D01*
X83092086Y-12524580D01*
X83084117Y-12532548D01*
X83067798Y-12572789D01*
X82917995Y-12572789D01*
X82927188Y-12518116D01*
X82952336Y-12461476D01*
X82965106Y-12445566D01*
X83004891Y-12416500D01*
X83058420Y-12390247D01*
X83074593Y-12384410D01*
X83126226Y-12372231D01*
X83171463Y-12375970D01*
X83226496Y-12396550D01*
X83306139Y-12432169D01*
X84541417Y-12030803D01*
X84777983Y-12150916D01*
X85014547Y-12271029D01*
X85125060Y-12190813D01*
X85235572Y-12110597D01*
X84928686Y-11140216D01*
X84910688Y-11083304D01*
X85103845Y-11083304D01*
X85247206Y-11524524D01*
X85284799Y-11639131D01*
X85319370Y-11742446D01*
X85349521Y-11830460D01*
X85373857Y-11899160D01*
X85390978Y-11944538D01*
X85399490Y-11962583D01*
X85399871Y-11962720D01*
X85414707Y-11950332D01*
X85447832Y-11919048D01*
X85494108Y-11873806D01*
X85540447Y-11827563D01*
X85671716Y-11695428D01*
X85509880Y-11197347D01*
X85665581Y-10892438D01*
X85821282Y-10587530D01*
X85469870Y-9505993D01*
X85618264Y-9215441D01*
X85669814Y-9113633D01*
X85707284Y-9036916D01*
X85732355Y-8980911D01*
X85746711Y-8941237D01*
X85752033Y-8913516D01*
X85750002Y-8893366D01*
X85745915Y-8883009D01*
X85742156Y-8867514D01*
X85730235Y-8818369D01*
X85733514Y-8783051D01*
X85873777Y-8783051D01*
X85881499Y-8822239D01*
X85907336Y-8853277D01*
X85944849Y-8865871D01*
X85963709Y-8862818D01*
X85993634Y-8841372D01*
X86002012Y-8829287D01*
X86009563Y-8786621D01*
X85993117Y-8750979D01*
X85961325Y-8728828D01*
X85922833Y-8726634D01*
X85890613Y-8746003D01*
X85873777Y-8783051D01*
X85733514Y-8783051D01*
X85736991Y-8745591D01*
X85764081Y-8679225D01*
X85778151Y-8660002D01*
X85840736Y-8609767D01*
X85914103Y-8586054D01*
X85989991Y-8588997D01*
X86060138Y-8618736D01*
X86100609Y-8654641D01*
X86141793Y-8725522D01*
X86150635Y-8803340D01*
X86126917Y-8885825D01*
X86123293Y-8893175D01*
X86093555Y-8941370D01*
X86058560Y-8969547D01*
X86018757Y-8985495D01*
X85993217Y-8994756D01*
X85971967Y-9006860D01*
X85951775Y-9026321D01*
X85929404Y-9057659D01*
X85901620Y-9105391D01*
X85865187Y-9174033D01*
X85818120Y-9265661D01*
X85686384Y-9523439D01*
X86037809Y-10605014D01*
X85876747Y-10920464D01*
X85715687Y-11235913D01*
X85760935Y-11375173D01*
X85782041Y-11436944D01*
X85800088Y-11483955D01*
X85812279Y-11509170D01*
X85815067Y-11511546D01*
X85827777Y-11497492D01*
X85855029Y-11461855D01*
X85892389Y-11410558D01*
X85922283Y-11368356D01*
X85980833Y-11278003D01*
X86046970Y-11164721D01*
X86116449Y-11036837D01*
X86185030Y-10902679D01*
X86248466Y-10770575D01*
X86302515Y-10648853D01*
X86342936Y-10545839D01*
X86346331Y-10536115D01*
X86402041Y-10374095D01*
X86164987Y-9644518D01*
X86101409Y-9609347D01*
X86035436Y-9558461D01*
X86001813Y-9498555D01*
X85999035Y-9493604D01*
X85991010Y-9415854D01*
X86133756Y-9415854D01*
X86142065Y-9452985D01*
X86170294Y-9477690D01*
X86211830Y-9481608D01*
X86231443Y-9475141D01*
X86258441Y-9455718D01*
X86260386Y-9426329D01*
X86256053Y-9411067D01*
X86231398Y-9370671D01*
X86196896Y-9354288D01*
X86161714Y-9365124D01*
X86151979Y-9374658D01*
X86133756Y-9415854D01*
X85991010Y-9415854D01*
X85990566Y-9411556D01*
X85991939Y-9394142D01*
X86014617Y-9318227D01*
X86061028Y-9259609D01*
X86124419Y-9221895D01*
X86198036Y-9208691D01*
X86275125Y-9223604D01*
X86294729Y-9232444D01*
X86355184Y-9279669D01*
X86395082Y-9344249D01*
X86411852Y-9417351D01*
X86402921Y-9490143D01*
X86382231Y-9532935D01*
X86370900Y-9551939D01*
X86365385Y-9571541D01*
X86366653Y-9597965D01*
X86375675Y-9637430D01*
X86393420Y-9696160D01*
X86420692Y-9779877D01*
X86487873Y-9983937D01*
X86509933Y-9844990D01*
X86531857Y-9653780D01*
X86541345Y-9442369D01*
X86538522Y-9221527D01*
X86523516Y-9002025D01*
X86497749Y-8802462D01*
X86482342Y-8720704D01*
X86460314Y-8619580D01*
X86434566Y-8511760D01*
X86408000Y-8409915D01*
X86407158Y-8406856D01*
X86343765Y-8177074D01*
X85694943Y-8387890D01*
X85408093Y-8951223D01*
X85121242Y-9514557D01*
X85425967Y-10452404D01*
X85103845Y-11083304D01*
X84910688Y-11083304D01*
X84898318Y-11044189D01*
X85209441Y-10434921D01*
X84904576Y-9496643D01*
X85223889Y-8870281D01*
X85543201Y-8243918D01*
X85895777Y-8129359D01*
X86005948Y-8092834D01*
X86100402Y-8060079D01*
X86175326Y-8032511D01*
X86226907Y-8011547D01*
X86251333Y-7998601D01*
X86252762Y-7996735D01*
X86247476Y-7971617D01*
X86227810Y-7923445D01*
X86196646Y-7857781D01*
X86156867Y-7780189D01*
X86111354Y-7696231D01*
X86062990Y-7611472D01*
X86014657Y-7531473D01*
X85998484Y-7505942D01*
X85800869Y-7228505D01*
X85579974Y-6973746D01*
X85337768Y-6742802D01*
X85076225Y-6536815D01*
X84797314Y-6356922D01*
X84503008Y-6204261D01*
X84195277Y-6079973D01*
X83876094Y-5985194D01*
X83547429Y-5921065D01*
X83211253Y-5888723D01*
X83197624Y-5888104D01*
X82923737Y-5885526D01*
X82663669Y-5903368D01*
X82407669Y-5942993D01*
X82145982Y-6005758D01*
X81969170Y-6059297D01*
X81704150Y-6154867D01*
X81462955Y-6262824D01*
X81236896Y-6387795D01*
X81017288Y-6534416D01*
X80874705Y-6642872D01*
X80814834Y-6692384D01*
X80748165Y-6750629D01*
X80679137Y-6813345D01*
X80612188Y-6876273D01*
X80551758Y-6935152D01*
X80502285Y-6985722D01*
X80468209Y-7023721D01*
X80453968Y-7044891D01*
X80453903Y-7046769D01*
X80469108Y-7056491D01*
X80511194Y-7079781D01*
X80577227Y-7115105D01*
X80664272Y-7160924D01*
X80769398Y-7215705D01*
X80889671Y-7277911D01*
X81022156Y-7346005D01*
X81157772Y-7415318D01*
X81857840Y-7772168D01*
X83288640Y-7307273D01*
X83725466Y-7530080D01*
X84162291Y-7752888D01*
X84532745Y-8893029D01*
X84608375Y-8936526D01*
X84672658Y-8988427D01*
X84710032Y-9050230D01*
X84723092Y-9116699D01*
X84714435Y-9182600D01*
X84686654Y-9242697D01*
X84642346Y-9291757D01*
X84584107Y-9324544D01*
X84514532Y-9335825D01*
X84436216Y-9320363D01*
X84421104Y-9314210D01*
X84364258Y-9273000D01*
X84324586Y-9212522D01*
X84321882Y-9203043D01*
X84304496Y-9142066D01*
X84305102Y-9119386D01*
X84442668Y-9119386D01*
X84454427Y-9159976D01*
X84466658Y-9174587D01*
X84502411Y-9189218D01*
X84542365Y-9179836D01*
X84573723Y-9151205D01*
X84582058Y-9131646D01*
X84577888Y-9092745D01*
X84549059Y-9067025D01*
X84503641Y-9060911D01*
X84494900Y-9062274D01*
X84457076Y-9083170D01*
X84442668Y-9119386D01*
X84305102Y-9119386D01*
X84306396Y-9070921D01*
X84332696Y-9008376D01*
X84339503Y-8999581D01*
X84345871Y-8990363D01*
X84349448Y-8978279D01*
X84349351Y-8959982D01*
X84344699Y-8932129D01*
X84334610Y-8891370D01*
X84318204Y-8834363D01*
X84294598Y-8757760D01*
X84262911Y-8658216D01*
X84222264Y-8532385D01*
X84191348Y-8437157D01*
X84018257Y-7904438D01*
X83645138Y-7715954D01*
X83272020Y-7527469D01*
X82545587Y-7752217D01*
X81819156Y-7976964D01*
X80303807Y-7206700D01*
X80207725Y-7343603D01*
X80165860Y-7403774D01*
X80130974Y-7454880D01*
X80107774Y-7489972D01*
X80101320Y-7500647D01*
X80112808Y-7514338D01*
X80153291Y-7541610D01*
X80221551Y-7581765D01*
X80316363Y-7634106D01*
X80436509Y-7697935D01*
X80546250Y-7754850D01*
X81001502Y-7988912D01*
X81365197Y-9074319D01*
X81432146Y-9274360D01*
X81500299Y-9478445D01*
X81568195Y-9682169D01*
X81634372Y-9881130D01*
X81697367Y-10070923D01*
X81755721Y-10247144D01*
X81807972Y-10405390D01*
X81852656Y-10541258D01*
X81888315Y-10650342D01*
X81891673Y-10660671D01*
X82054455Y-11161617D01*
X82238906Y-11255061D01*
X82318738Y-11294641D01*
X82375735Y-11320103D01*
X82416326Y-11333474D01*
X82446941Y-11336778D01*
X82474009Y-11332041D01*
X82478686Y-11330593D01*
X82556030Y-11321401D01*
X82629789Y-11340370D01*
X82692523Y-11382862D01*
X82736792Y-11444243D01*
X82753678Y-11501932D01*
X82750238Y-11558278D01*
X82730849Y-11620401D01*
X82725722Y-11631169D01*
X82698655Y-11676440D01*
X82667568Y-11703700D01*
X82618945Y-11724170D01*
X82610257Y-11727039D01*
X82549168Y-11741588D01*
X82499563Y-11738290D01*
X82469509Y-11728270D01*
X82411288Y-11692419D01*
X82363869Y-11641153D01*
X82355018Y-11623249D01*
X82336158Y-11585098D01*
X82332667Y-11565046D01*
X82326531Y-11546577D01*
X82319779Y-11539325D01*
X82482122Y-11539325D01*
X82493785Y-11578161D01*
X82523935Y-11601455D01*
X82566138Y-11600811D01*
X82596063Y-11579365D01*
X82604440Y-11567281D01*
X82612378Y-11525848D01*
X82597996Y-11490996D01*
X82569542Y-11468261D01*
X82535263Y-11463184D01*
X82503409Y-11481303D01*
X82494690Y-11493570D01*
X82482122Y-11539325D01*
X82319779Y-11539325D01*
X82307773Y-11526431D01*
X82272049Y-11501631D01*
X82215015Y-11469202D01*
X82132326Y-11426168D01*
X82122984Y-11421422D01*
X81915939Y-11316418D01*
X81401382Y-9809308D01*
X80509322Y-9352409D01*
X80432105Y-9377499D01*
X80378344Y-9391076D01*
X80335875Y-9388233D01*
X80286126Y-9367547D01*
X80283294Y-9366110D01*
X80237757Y-9339244D01*
X80210358Y-9309196D01*
X80190136Y-9262821D01*
X80190089Y-9262717D01*
X80185185Y-9248021D01*
X80172177Y-9179237D01*
X80313422Y-9179237D01*
X80321094Y-9220270D01*
X80342561Y-9241365D01*
X80381197Y-9249140D01*
X80417236Y-9229521D01*
X80441086Y-9187796D01*
X80441337Y-9186904D01*
X80446064Y-9155283D01*
X80431933Y-9135650D01*
X80407749Y-9121855D01*
X80373572Y-9108150D01*
X80351594Y-9115081D01*
X80335405Y-9132995D01*
X80313422Y-9179237D01*
X80172177Y-9179237D01*
X80168980Y-9162329D01*
X80181784Y-9090762D01*
X80222129Y-9031920D01*
X80287725Y-8986499D01*
X80361028Y-8969225D01*
X80434977Y-8978267D01*
X80502513Y-9011791D01*
X80556572Y-9067965D01*
X80584746Y-9126035D01*
X80592487Y-9146683D01*
X80603468Y-9165056D01*
X80621419Y-9183575D01*
X80650072Y-9204662D01*
X80693154Y-9230738D01*
X80754400Y-9264225D01*
X80837536Y-9307544D01*
X80946296Y-9363117D01*
X80963364Y-9371802D01*
X81321211Y-9553841D01*
X80861651Y-8139462D01*
X80424480Y-7916946D01*
X79987311Y-7694431D01*
X79904617Y-7857913D01*
X79821924Y-8021394D01*
X80112404Y-8169050D01*
X80222414Y-8223987D01*
X80306037Y-8263372D01*
X80365875Y-8288279D01*
X80404535Y-8299779D01*
X80424619Y-8298945D01*
X80425873Y-8298093D01*
X80467679Y-8282327D01*
X80525794Y-8281894D01*
X80587403Y-8295735D01*
X80628137Y-8314808D01*
X80677895Y-8363598D01*
X80711509Y-8432075D01*
X80724190Y-8508490D01*
X80721526Y-8544003D01*
X80699652Y-8596534D01*
X80657541Y-8648110D01*
X80606341Y-8686285D01*
X80586437Y-8694816D01*
X80508559Y-8703861D01*
X80432953Y-8684163D01*
X80367540Y-8639922D01*
X80320246Y-8575334D01*
X80312669Y-8556558D01*
X80309191Y-8547941D01*
X80300198Y-8524453D01*
X80293064Y-8513211D01*
X80446075Y-8513211D01*
X80465993Y-8541948D01*
X80502524Y-8556996D01*
X80544258Y-8549042D01*
X80575714Y-8521336D01*
X80577204Y-8518597D01*
X80584230Y-8476931D01*
X80566347Y-8444020D01*
X80532016Y-8426702D01*
X80489692Y-8431816D01*
X80477672Y-8438129D01*
X80446258Y-8472793D01*
X80446075Y-8513211D01*
X80293064Y-8513211D01*
X80287278Y-8504092D01*
X80266017Y-8483795D01*
X80232005Y-8460498D01*
X80180831Y-8431135D01*
X80108081Y-8392644D01*
X80021736Y-8348290D01*
X79754925Y-8211969D01*
X79723891Y-8300272D01*
X79678586Y-8448683D01*
X79637676Y-8620303D01*
X79602982Y-8805017D01*
X79576326Y-8992714D01*
X79559529Y-9173278D01*
X79556437Y-9230110D01*
X79554299Y-9317074D01*
X79315337Y-9317074D01*
X79316310Y-9179449D01*
X79349897Y-8841820D01*
X79416774Y-8496129D01*
X79514048Y-8162527D01*
X79640398Y-7842583D01*
X79794499Y-7537865D01*
X79975029Y-7249938D01*
X80180664Y-6980373D01*
X80410082Y-6730737D01*
X80661957Y-6502596D01*
X80934968Y-6297520D01*
X81227791Y-6117076D01*
X81539104Y-5962831D01*
X81867581Y-5836354D01*
X81893917Y-5827692D01*
X82233728Y-5734376D01*
X82576129Y-5673654D01*
X82919127Y-5645034D01*
X83260732Y-5648023D01*
X83598949Y-5682135D01*
X83931788Y-5746876D01*
X84257257Y-5841756D01*
X84573362Y-5966286D01*
X84878113Y-6119974D01*
X85169516Y-6302330D01*
X85445581Y-6512862D01*
X85704314Y-6751083D01*
X85723731Y-6770836D01*
X85954095Y-7030469D01*
X86158018Y-7309094D01*
X86334722Y-7604341D01*
X86483426Y-7913837D01*
X86603356Y-8235211D01*
X86693732Y-8566092D01*
X86753777Y-8904108D01*
X86782713Y-9246888D01*
X86779762Y-9592061D01*
X86749759Y-9898845D01*
X86684665Y-10244246D01*
X86588824Y-10578313D01*
X86463480Y-10899400D01*
X86309870Y-11205861D01*
X86129236Y-11496051D01*
X85922818Y-11768326D01*
X85691855Y-12021039D01*
X85437590Y-12252545D01*
X85161261Y-12461199D01*
X84864110Y-12645355D01*
X84566837Y-12794687D01*
X84471796Y-12833966D01*
X84353868Y-12877493D01*
X84222765Y-12922136D01*
X84088197Y-12964765D01*
X83959875Y-13002251D01*
X83847508Y-13031460D01*
X83798821Y-13042295D01*
X83467003Y-13093740D01*
X83127675Y-13114782D01*
X82785651Y-13105805D01*
X82445745Y-13067188D01*
X82112774Y-12999311D01*
X81791554Y-12902559D01*
X81724887Y-12878171D01*
X81406782Y-12740640D01*
X81106778Y-12576197D01*
X80825970Y-12386697D01*
X80565447Y-12173999D01*
X80326305Y-11939957D01*
X80109633Y-11686429D01*
X79916526Y-11415271D01*
X79748075Y-11128339D01*
X79605371Y-10827489D01*
X79528509Y-10619902D01*
X79489509Y-10514578D01*
X79401579Y-10191462D01*
G37*
X79401579Y-10191462D02*
X79342675Y-9859997D01*
X79313888Y-9522041D01*
X79315337Y-9317074D01*
X79554299Y-9317074D01*
X79554540Y-9415110D01*
X79556853Y-9517029D01*
X79560927Y-9615644D01*
X79566452Y-9703765D01*
X79573116Y-9774203D01*
X79580612Y-9819770D01*
X79582096Y-9824996D01*
X79593613Y-9860787D01*
X80256913Y-9645268D01*
X80622927Y-9818277D01*
X80988942Y-9991284D01*
X81594406Y-11854710D01*
X81989107Y-12056080D01*
X82383810Y-12257449D01*
X83970330Y-11741957D01*
X84250794Y-11741957D01*
X84262520Y-11784137D01*
X84270023Y-11794957D01*
X84297450Y-11806168D01*
X84333991Y-11798170D01*
X84365373Y-11775625D01*
X84374481Y-11760834D01*
X84376170Y-11718085D01*
X84350416Y-11684284D01*
X84324597Y-11672748D01*
X84286217Y-11676444D01*
X84260154Y-11702786D01*
X84250794Y-11741957D01*
X83970330Y-11741957D01*
X84090138Y-11703029D01*
X84121536Y-11641408D01*
X84171071Y-11575621D01*
X84238257Y-11538179D01*
X84323228Y-11529015D01*
X84340215Y-11530342D01*
X84396921Y-11540865D01*
X84437361Y-11564010D01*
X84473397Y-11602894D01*
X84504645Y-11644320D01*
X84519171Y-11676701D01*
X84522335Y-11716082D01*
X84521200Y-11746033D01*
X84503925Y-11828394D01*
X84460197Y-11891303D01*
X84412653Y-11925628D01*
X84349392Y-11945840D01*
X84277644Y-11946502D01*
X84213528Y-11927997D01*
X84200805Y-11920571D01*
X84157922Y-11891851D01*
X82382772Y-12468632D01*
X82294369Y-12423628D01*
X81903653Y-12224721D01*
X81424533Y-11980812D01*
X80823785Y-10131899D01*
X80230697Y-9847741D01*
X79926364Y-9946286D01*
X79819075Y-9981375D01*
X79739725Y-10008357D01*
X79684293Y-10028892D01*
X79648755Y-10044639D01*
X79629091Y-10057261D01*
X79621276Y-10068418D01*
X79620581Y-10072548D01*
X79624294Y-10098177D01*
X79635481Y-10149232D01*
X79652545Y-10218977D01*
X79673886Y-10300673D01*
X79680580Y-10325397D01*
X79742028Y-10550525D01*
X80199295Y-10401950D01*
X80610273Y-10610380D01*
X80735300Y-10995174D01*
X80774834Y-11116281D01*
X80805826Y-11209340D01*
X80829823Y-11278168D01*
X80848366Y-11326581D01*
X80863002Y-11358395D01*
X80875275Y-11377426D01*
X80886729Y-11387489D01*
X80895685Y-11391439D01*
X80962992Y-11428815D01*
X81011027Y-11486240D01*
X81037629Y-11555838D01*
X81040635Y-11629736D01*
X81017882Y-11700059D01*
X80990735Y-11737510D01*
X80939078Y-11773614D01*
X80870604Y-11797058D01*
X80800995Y-11802967D01*
X80785778Y-11801221D01*
X80719524Y-11774944D01*
X80668464Y-11725089D01*
X80635432Y-11659128D01*
X80635116Y-11657196D01*
X80628423Y-11616174D01*
X80761369Y-11616174D01*
X80783699Y-11642920D01*
X80820932Y-11662254D01*
X80854795Y-11664886D01*
X80876369Y-11645878D01*
X80893238Y-11617704D01*
X80903689Y-11587028D01*
X80895268Y-11565979D01*
X80872098Y-11545506D01*
X80837154Y-11525092D01*
X80810418Y-11521170D01*
X80782671Y-11544112D01*
X80763357Y-11582171D01*
X80761369Y-11616174D01*
X80628423Y-11616174D01*
X80623260Y-11584533D01*
X80634780Y-11508777D01*
X80656980Y-11461382D01*
X80664485Y-11447191D01*
X80668190Y-11430603D01*
X80667082Y-11407173D01*
X80660148Y-11372454D01*
X80646376Y-11321999D01*
X80624752Y-11251362D01*
X80594265Y-11156096D01*
X80571378Y-11085515D01*
X80461725Y-10748040D01*
X80178055Y-10602126D01*
X79998837Y-10660357D01*
X79924286Y-10683982D01*
X79872998Y-10702351D01*
X79843305Y-10721260D01*
X79833537Y-10746505D01*
X79842023Y-10783881D01*
X79867096Y-10839184D01*
X79907083Y-10918207D01*
X79918187Y-10940292D01*
X80082780Y-11232724D01*
X80273373Y-11505627D01*
X80487949Y-11757694D01*
X80724494Y-11987621D01*
X80980992Y-12194102D01*
X81255426Y-12375831D01*
X81545781Y-12531503D01*
X81850042Y-12659812D01*
X82166193Y-12759452D01*
X82492220Y-12829120D01*
X82826103Y-12867507D01*
X82899976Y-12871605D01*
X83042444Y-12873918D01*
X83199580Y-12869594D01*
X83360232Y-12859401D01*
X83513245Y-12844105D01*
X83647464Y-12824469D01*
X83681993Y-12817929D01*
X83756552Y-12802999D01*
X83824066Y-12789717D01*
X83874106Y-12780125D01*
X83888487Y-12777496D01*
X83938206Y-12765145D01*
X84011921Y-12742267D01*
X84102861Y-12711374D01*
X84204251Y-12674983D01*
X84309315Y-12635607D01*
X84411282Y-12595760D01*
X84503377Y-12557956D01*
X84578826Y-12524710D01*
X84609749Y-12509797D01*
X84695091Y-12466812D01*
X84752318Y-12435863D01*
X84782507Y-12412714D01*
X84786735Y-12393127D01*
X84766080Y-12372868D01*
X84721617Y-12347698D01*
X84659074Y-12315774D01*
X84504156Y-12236185D01*
X83921404Y-12425532D01*
X83767739Y-12475620D01*
X83643036Y-12516701D01*
X83544394Y-12549850D01*
X83468908Y-12576139D01*
X83413676Y-12596643D01*
X83375796Y-12612434D01*
X83352366Y-12624588D01*
X83340482Y-12634177D01*
X83337254Y-12641590D01*
X83322003Y-12680577D01*
X83286194Y-12724059D01*
X83239490Y-12762261D01*
X83196539Y-12783917D01*
X83120206Y-12792440D01*
X83044875Y-12773036D01*
X82979430Y-12730257D01*
X82932754Y-12668655D01*
X82930006Y-12661914D01*
X82922499Y-12643501D01*
X82916070Y-12584236D01*
X82917995Y-12572789D01*
X83067798Y-12572789D01*
X83074732Y-12614889D01*
X83101765Y-12644889D01*
X83110320Y-12648551D01*
X83142387Y-12656499D01*
X83155267Y-12656895D01*
X83171831Y-12642282D01*
X83186726Y-12623726D01*
X83198364Y-12586413D01*
X83186814Y-12550818D01*
X83159981Y-12523966D01*
X83125771Y-12512878D01*
X83092086Y-12524580D01*
X83084117Y-12532548D01*
X83067798Y-12572789D01*
X82917995Y-12572789D01*
X82927188Y-12518116D01*
X82952336Y-12461476D01*
X82965106Y-12445566D01*
X83004891Y-12416500D01*
X83058420Y-12390247D01*
X83074593Y-12384410D01*
X83126226Y-12372231D01*
X83171463Y-12375970D01*
X83226496Y-12396550D01*
X83306139Y-12432169D01*
X84541417Y-12030803D01*
X84777983Y-12150916D01*
X85014547Y-12271029D01*
X85125060Y-12190813D01*
X85235572Y-12110597D01*
X84928686Y-11140216D01*
X84910688Y-11083304D01*
X85103845Y-11083304D01*
X85247206Y-11524524D01*
X85284799Y-11639131D01*
X85319370Y-11742446D01*
X85349521Y-11830460D01*
X85373857Y-11899160D01*
X85390978Y-11944538D01*
X85399490Y-11962583D01*
X85399871Y-11962720D01*
X85414707Y-11950332D01*
X85447832Y-11919048D01*
X85494108Y-11873806D01*
X85540447Y-11827563D01*
X85671716Y-11695428D01*
X85509880Y-11197347D01*
X85665581Y-10892438D01*
X85821282Y-10587530D01*
X85469870Y-9505993D01*
X85618264Y-9215441D01*
X85669814Y-9113633D01*
X85707284Y-9036916D01*
X85732355Y-8980911D01*
X85746711Y-8941237D01*
X85752033Y-8913516D01*
X85750002Y-8893366D01*
X85745915Y-8883009D01*
X85742156Y-8867514D01*
X85730235Y-8818369D01*
X85733514Y-8783051D01*
X85873777Y-8783051D01*
X85881499Y-8822239D01*
X85907336Y-8853277D01*
X85944849Y-8865871D01*
X85963709Y-8862818D01*
X85993634Y-8841372D01*
X86002012Y-8829287D01*
X86009563Y-8786621D01*
X85993117Y-8750979D01*
X85961325Y-8728828D01*
X85922833Y-8726634D01*
X85890613Y-8746003D01*
X85873777Y-8783051D01*
X85733514Y-8783051D01*
X85736991Y-8745591D01*
X85764081Y-8679225D01*
X85778151Y-8660002D01*
X85840736Y-8609767D01*
X85914103Y-8586054D01*
X85989991Y-8588997D01*
X86060138Y-8618736D01*
X86100609Y-8654641D01*
X86141793Y-8725522D01*
X86150635Y-8803340D01*
X86126917Y-8885825D01*
X86123293Y-8893175D01*
X86093555Y-8941370D01*
X86058560Y-8969547D01*
X86018757Y-8985495D01*
X85993217Y-8994756D01*
X85971967Y-9006860D01*
X85951775Y-9026321D01*
X85929404Y-9057659D01*
X85901620Y-9105391D01*
X85865187Y-9174033D01*
X85818120Y-9265661D01*
X85686384Y-9523439D01*
X86037809Y-10605014D01*
X85876747Y-10920464D01*
X85715687Y-11235913D01*
X85760935Y-11375173D01*
X85782041Y-11436944D01*
X85800088Y-11483955D01*
X85812279Y-11509170D01*
X85815067Y-11511546D01*
X85827777Y-11497492D01*
X85855029Y-11461855D01*
X85892389Y-11410558D01*
X85922283Y-11368356D01*
X85980833Y-11278003D01*
X86046970Y-11164721D01*
X86116449Y-11036837D01*
X86185030Y-10902679D01*
X86248466Y-10770575D01*
X86302515Y-10648853D01*
X86342936Y-10545839D01*
X86346331Y-10536115D01*
X86402041Y-10374095D01*
X86164987Y-9644518D01*
X86101409Y-9609347D01*
X86035436Y-9558461D01*
X86001813Y-9498555D01*
X85999035Y-9493604D01*
X85991010Y-9415854D01*
X86133756Y-9415854D01*
X86142065Y-9452985D01*
X86170294Y-9477690D01*
X86211830Y-9481608D01*
X86231443Y-9475141D01*
X86258441Y-9455718D01*
X86260386Y-9426329D01*
X86256053Y-9411067D01*
X86231398Y-9370671D01*
X86196896Y-9354288D01*
X86161714Y-9365124D01*
X86151979Y-9374658D01*
X86133756Y-9415854D01*
X85991010Y-9415854D01*
X85990566Y-9411556D01*
X85991939Y-9394142D01*
X86014617Y-9318227D01*
X86061028Y-9259609D01*
X86124419Y-9221895D01*
X86198036Y-9208691D01*
X86275125Y-9223604D01*
X86294729Y-9232444D01*
X86355184Y-9279669D01*
X86395082Y-9344249D01*
X86411852Y-9417351D01*
X86402921Y-9490143D01*
X86382231Y-9532935D01*
X86370900Y-9551939D01*
X86365385Y-9571541D01*
X86366653Y-9597965D01*
X86375675Y-9637430D01*
X86393420Y-9696160D01*
X86420692Y-9779877D01*
X86487873Y-9983937D01*
X86509933Y-9844990D01*
X86531857Y-9653780D01*
X86541345Y-9442369D01*
X86538522Y-9221527D01*
X86523516Y-9002025D01*
X86497749Y-8802462D01*
X86482342Y-8720704D01*
X86460314Y-8619580D01*
X86434566Y-8511760D01*
X86408000Y-8409915D01*
X86407158Y-8406856D01*
X86343765Y-8177074D01*
X85694943Y-8387890D01*
X85408093Y-8951223D01*
X85121242Y-9514557D01*
X85425967Y-10452404D01*
X85103845Y-11083304D01*
X84910688Y-11083304D01*
X84898318Y-11044189D01*
X85209441Y-10434921D01*
X84904576Y-9496643D01*
X85223889Y-8870281D01*
X85543201Y-8243918D01*
X85895777Y-8129359D01*
X86005948Y-8092834D01*
X86100402Y-8060079D01*
X86175326Y-8032511D01*
X86226907Y-8011547D01*
X86251333Y-7998601D01*
X86252762Y-7996735D01*
X86247476Y-7971617D01*
X86227810Y-7923445D01*
X86196646Y-7857781D01*
X86156867Y-7780189D01*
X86111354Y-7696231D01*
X86062990Y-7611472D01*
X86014657Y-7531473D01*
X85998484Y-7505942D01*
X85800869Y-7228505D01*
X85579974Y-6973746D01*
X85337768Y-6742802D01*
X85076225Y-6536815D01*
X84797314Y-6356922D01*
X84503008Y-6204261D01*
X84195277Y-6079973D01*
X83876094Y-5985194D01*
X83547429Y-5921065D01*
X83211253Y-5888723D01*
X83197624Y-5888104D01*
X82923737Y-5885526D01*
X82663669Y-5903368D01*
X82407669Y-5942993D01*
X82145982Y-6005758D01*
X81969170Y-6059297D01*
X81704150Y-6154867D01*
X81462955Y-6262824D01*
X81236896Y-6387795D01*
X81017288Y-6534416D01*
X80874705Y-6642872D01*
X80814834Y-6692384D01*
X80748165Y-6750629D01*
X80679137Y-6813345D01*
X80612188Y-6876273D01*
X80551758Y-6935152D01*
X80502285Y-6985722D01*
X80468209Y-7023721D01*
X80453968Y-7044891D01*
X80453903Y-7046769D01*
X80469108Y-7056491D01*
X80511194Y-7079781D01*
X80577227Y-7115105D01*
X80664272Y-7160924D01*
X80769398Y-7215705D01*
X80889671Y-7277911D01*
X81022156Y-7346005D01*
X81157772Y-7415318D01*
X81857840Y-7772168D01*
X83288640Y-7307273D01*
X83725466Y-7530080D01*
X84162291Y-7752888D01*
X84532745Y-8893029D01*
X84608375Y-8936526D01*
X84672658Y-8988427D01*
X84710032Y-9050230D01*
X84723092Y-9116699D01*
X84714435Y-9182600D01*
X84686654Y-9242697D01*
X84642346Y-9291757D01*
X84584107Y-9324544D01*
X84514532Y-9335825D01*
X84436216Y-9320363D01*
X84421104Y-9314210D01*
X84364258Y-9273000D01*
X84324586Y-9212522D01*
X84321882Y-9203043D01*
X84304496Y-9142066D01*
X84305102Y-9119386D01*
X84442668Y-9119386D01*
X84454427Y-9159976D01*
X84466658Y-9174587D01*
X84502411Y-9189218D01*
X84542365Y-9179836D01*
X84573723Y-9151205D01*
X84582058Y-9131646D01*
X84577888Y-9092745D01*
X84549059Y-9067025D01*
X84503641Y-9060911D01*
X84494900Y-9062274D01*
X84457076Y-9083170D01*
X84442668Y-9119386D01*
X84305102Y-9119386D01*
X84306396Y-9070921D01*
X84332696Y-9008376D01*
X84339503Y-8999581D01*
X84345871Y-8990363D01*
X84349448Y-8978279D01*
X84349351Y-8959982D01*
X84344699Y-8932129D01*
X84334610Y-8891370D01*
X84318204Y-8834363D01*
X84294598Y-8757760D01*
X84262911Y-8658216D01*
X84222264Y-8532385D01*
X84191348Y-8437157D01*
X84018257Y-7904438D01*
X83645138Y-7715954D01*
X83272020Y-7527469D01*
X82545587Y-7752217D01*
X81819156Y-7976964D01*
X80303807Y-7206700D01*
X80207725Y-7343603D01*
X80165860Y-7403774D01*
X80130974Y-7454880D01*
X80107774Y-7489972D01*
X80101320Y-7500647D01*
X80112808Y-7514338D01*
X80153291Y-7541610D01*
X80221551Y-7581765D01*
X80316363Y-7634106D01*
X80436509Y-7697935D01*
X80546250Y-7754850D01*
X81001502Y-7988912D01*
X81365197Y-9074319D01*
X81432146Y-9274360D01*
X81500299Y-9478445D01*
X81568195Y-9682169D01*
X81634372Y-9881130D01*
X81697367Y-10070923D01*
X81755721Y-10247144D01*
X81807972Y-10405390D01*
X81852656Y-10541258D01*
X81888315Y-10650342D01*
X81891673Y-10660671D01*
X82054455Y-11161617D01*
X82238906Y-11255061D01*
X82318738Y-11294641D01*
X82375735Y-11320103D01*
X82416326Y-11333474D01*
X82446941Y-11336778D01*
X82474009Y-11332041D01*
X82478686Y-11330593D01*
X82556030Y-11321401D01*
X82629789Y-11340370D01*
X82692523Y-11382862D01*
X82736792Y-11444243D01*
X82753678Y-11501932D01*
X82750238Y-11558278D01*
X82730849Y-11620401D01*
X82725722Y-11631169D01*
X82698655Y-11676440D01*
X82667568Y-11703700D01*
X82618945Y-11724170D01*
X82610257Y-11727039D01*
X82549168Y-11741588D01*
X82499563Y-11738290D01*
X82469509Y-11728270D01*
X82411288Y-11692419D01*
X82363869Y-11641153D01*
X82355018Y-11623249D01*
X82336158Y-11585098D01*
X82332667Y-11565046D01*
X82326531Y-11546577D01*
X82319779Y-11539325D01*
X82482122Y-11539325D01*
X82493785Y-11578161D01*
X82523935Y-11601455D01*
X82566138Y-11600811D01*
X82596063Y-11579365D01*
X82604440Y-11567281D01*
X82612378Y-11525848D01*
X82597996Y-11490996D01*
X82569542Y-11468261D01*
X82535263Y-11463184D01*
X82503409Y-11481303D01*
X82494690Y-11493570D01*
X82482122Y-11539325D01*
X82319779Y-11539325D01*
X82307773Y-11526431D01*
X82272049Y-11501631D01*
X82215015Y-11469202D01*
X82132326Y-11426168D01*
X82122984Y-11421422D01*
X81915939Y-11316418D01*
X81401382Y-9809308D01*
X80509322Y-9352409D01*
X80432105Y-9377499D01*
X80378344Y-9391076D01*
X80335875Y-9388233D01*
X80286126Y-9367547D01*
X80283294Y-9366110D01*
X80237757Y-9339244D01*
X80210358Y-9309196D01*
X80190136Y-9262821D01*
X80190089Y-9262717D01*
X80185185Y-9248021D01*
X80172177Y-9179237D01*
X80313422Y-9179237D01*
X80321094Y-9220270D01*
X80342561Y-9241365D01*
X80381197Y-9249140D01*
X80417236Y-9229521D01*
X80441086Y-9187796D01*
X80441337Y-9186904D01*
X80446064Y-9155283D01*
X80431933Y-9135650D01*
X80407749Y-9121855D01*
X80373572Y-9108150D01*
X80351594Y-9115081D01*
X80335405Y-9132995D01*
X80313422Y-9179237D01*
X80172177Y-9179237D01*
X80168980Y-9162329D01*
X80181784Y-9090762D01*
X80222129Y-9031920D01*
X80287725Y-8986499D01*
X80361028Y-8969225D01*
X80434977Y-8978267D01*
X80502513Y-9011791D01*
X80556572Y-9067965D01*
X80584746Y-9126035D01*
X80592487Y-9146683D01*
X80603468Y-9165056D01*
X80621419Y-9183575D01*
X80650072Y-9204662D01*
X80693154Y-9230738D01*
X80754400Y-9264225D01*
X80837536Y-9307544D01*
X80946296Y-9363117D01*
X80963364Y-9371802D01*
X81321211Y-9553841D01*
X80861651Y-8139462D01*
X80424480Y-7916946D01*
X79987311Y-7694431D01*
X79904617Y-7857913D01*
X79821924Y-8021394D01*
X80112404Y-8169050D01*
X80222414Y-8223987D01*
X80306037Y-8263372D01*
X80365875Y-8288279D01*
X80404535Y-8299779D01*
X80424619Y-8298945D01*
X80425873Y-8298093D01*
X80467679Y-8282327D01*
X80525794Y-8281894D01*
X80587403Y-8295735D01*
X80628137Y-8314808D01*
X80677895Y-8363598D01*
X80711509Y-8432075D01*
X80724190Y-8508490D01*
X80721526Y-8544003D01*
X80699652Y-8596534D01*
X80657541Y-8648110D01*
X80606341Y-8686285D01*
X80586437Y-8694816D01*
X80508559Y-8703861D01*
X80432953Y-8684163D01*
X80367540Y-8639922D01*
X80320246Y-8575334D01*
X80312669Y-8556558D01*
X80309191Y-8547941D01*
X80300198Y-8524453D01*
X80293064Y-8513211D01*
X80446075Y-8513211D01*
X80465993Y-8541948D01*
X80502524Y-8556996D01*
X80544258Y-8549042D01*
X80575714Y-8521336D01*
X80577204Y-8518597D01*
X80584230Y-8476931D01*
X80566347Y-8444020D01*
X80532016Y-8426702D01*
X80489692Y-8431816D01*
X80477672Y-8438129D01*
X80446258Y-8472793D01*
X80446075Y-8513211D01*
X80293064Y-8513211D01*
X80287278Y-8504092D01*
X80266017Y-8483795D01*
X80232005Y-8460498D01*
X80180831Y-8431135D01*
X80108081Y-8392644D01*
X80021736Y-8348290D01*
X79754925Y-8211969D01*
X79723891Y-8300272D01*
X79678586Y-8448683D01*
X79637676Y-8620303D01*
X79602982Y-8805017D01*
X79576326Y-8992714D01*
X79559529Y-9173278D01*
X79556437Y-9230110D01*
X79554299Y-9317074D01*
X79315337Y-9317074D01*
X79316310Y-9179449D01*
X79349897Y-8841820D01*
X79416774Y-8496129D01*
X79514048Y-8162527D01*
X79640398Y-7842583D01*
X79794499Y-7537865D01*
X79975029Y-7249938D01*
X80180664Y-6980373D01*
X80410082Y-6730737D01*
X80661957Y-6502596D01*
X80934968Y-6297520D01*
X81227791Y-6117076D01*
X81539104Y-5962831D01*
X81867581Y-5836354D01*
X81893917Y-5827692D01*
X82233728Y-5734376D01*
X82576129Y-5673654D01*
X82919127Y-5645034D01*
X83260732Y-5648023D01*
X83598949Y-5682135D01*
X83931788Y-5746876D01*
X84257257Y-5841756D01*
X84573362Y-5966286D01*
X84878113Y-6119974D01*
X85169516Y-6302330D01*
X85445581Y-6512862D01*
X85704314Y-6751083D01*
X85723731Y-6770836D01*
X85954095Y-7030469D01*
X86158018Y-7309094D01*
X86334722Y-7604341D01*
X86483426Y-7913837D01*
X86603356Y-8235211D01*
X86693732Y-8566092D01*
X86753777Y-8904108D01*
X86782713Y-9246888D01*
X86779762Y-9592061D01*
X86749759Y-9898845D01*
X86684665Y-10244246D01*
X86588824Y-10578313D01*
X86463480Y-10899400D01*
X86309870Y-11205861D01*
X86129236Y-11496051D01*
X85922818Y-11768326D01*
X85691855Y-12021039D01*
X85437590Y-12252545D01*
X85161261Y-12461199D01*
X84864110Y-12645355D01*
X84566837Y-12794687D01*
X84471796Y-12833966D01*
X84353868Y-12877493D01*
X84222765Y-12922136D01*
X84088197Y-12964765D01*
X83959875Y-13002251D01*
X83847508Y-13031460D01*
X83798821Y-13042295D01*
X83467003Y-13093740D01*
X83127675Y-13114782D01*
X82785651Y-13105805D01*
X82445745Y-13067188D01*
X82112774Y-12999311D01*
X81791554Y-12902559D01*
X81724887Y-12878171D01*
X81406782Y-12740640D01*
X81106778Y-12576197D01*
X80825970Y-12386697D01*
X80565447Y-12173999D01*
X80326305Y-11939957D01*
X80109633Y-11686429D01*
X79916526Y-11415271D01*
X79748075Y-11128339D01*
X79605371Y-10827489D01*
X79528509Y-10619902D01*
X79489509Y-10514578D01*
X79401579Y-10191462D01*
G04 #@! TD*
M02*
